<svg width="62" height="62" viewBox="0 0 62 62" fill="none" xmlns="http://www.w3.org/2000/svg">
<path d="M18.9673 41.6768C16.3179 41.6768 14.1621 43.8331 14.1621 46.4825C14.1621 49.13 16.3179 51.2843 18.9673 51.2843C21.6172 51.2843 23.773 49.13 23.773 46.4825C23.7729 43.833 21.6172 41.6768 18.9673 41.6768ZM18.9673 49.2842C17.4204 49.2842 16.1621 48.0274 16.1621 46.4824C16.1621 45.0636 17.2245 43.8996 18.5934 43.7146C18.7094 43.7579 18.8303 43.7881 18.9556 43.7881C19.0801 43.7881 19.2046 43.7593 19.3248 43.7129C20.7018 43.8908 21.773 45.0579 21.773 46.4824C21.7729 48.0273 20.5142 49.2842 18.9673 49.2842Z" fill="#D63E45"/>
<path d="M59.0835 17.2871H30.5479C28.9561 17.2871 27.6607 18.583 27.6607 20.1748V24.9008C26.8013 24.6822 25.9234 24.5606 25.0328 24.5606H24.6309V21.731C27.2439 19.2082 28.7066 15.0617 28.7066 9.7364C28.7065 4.3682 24.3374 0 18.9673 0C13.5972 0 9.22801 4.3682 9.22801 9.7363C9.22801 9.94 9.24001 10.1338 9.24431 10.334C9.24391 10.3396 9.24051 10.344 9.24021 10.3496C9.23931 10.3636 9.24611 10.3757 9.24581 10.3896C9.36211 15.3978 10.7999 19.314 13.3037 21.7313V24.5605H12.9018C6.98481 24.5605 2.17131 29.373 2.17131 35.288V35.4505C1.58621 35.5871 1.04311 35.9011 0.648412 36.3525C0.167412 36.9023 -0.046388 37.5869 0.046312 38.2793L2.37861 55.7266C1.03961 56.1114 0.051112 57.3338 0.051112 58.7949C0.051312 60.5625 1.48931 62 3.25681 62H34.6782C36.4453 62 37.8833 60.5625 37.8833 58.7949C37.8833 57.3339 36.895 56.1115 35.5563 55.7266L36.8085 46.3535H59.0835C60.6777 46.3535 61.9746 45.0566 61.9746 43.4629V20.1748C61.9746 18.583 60.6777 17.2871 59.0835 17.2871ZM30.5479 19.2871H59.0835C59.5747 19.2871 59.9746 19.6855 59.9746 20.1748V23.4248H29.6606V20.1748C29.6606 19.6855 30.0586 19.2871 30.5479 19.2871ZM25.0327 26.5605C25.2464 26.5605 25.4587 26.5754 25.6708 26.591L23.6753 31.8974L20.5659 29.791L24.0249 26.5605H25.0327ZM18.9673 2C23.2349 2 26.7066 5.4707 26.7066 9.7363C26.7066 9.8744 26.7037 10.0385 26.7 10.2068C25.1392 9.5142 24.0743 8.5888 23.9068 6.4277C23.8721 5.9824 23.5469 5.6142 23.1094 5.5254C22.6734 5.4356 22.2285 5.6475 22.0225 6.043C20.1801 9.5848 14.3325 9.6062 11.242 9.4615C11.3885 5.3237 14.7925 2 18.9673 2ZM11.3007 11.4679C14.2771 11.6003 19.4526 11.5418 22.4145 8.7803C23.2808 10.8592 25.0505 11.7467 26.5504 12.3175C26.1223 16.0142 24.5458 21.5427 18.9673 22.376C12.9404 21.4766 11.5826 15.0965 11.3007 11.4679ZM18.834 24.377C18.8784 24.3829 18.9229 24.3858 18.9673 24.3858C19.0117 24.3858 19.0562 24.3829 19.1006 24.377C20.3963 24.2028 21.5718 23.7997 22.6309 23.2104V25.1265L18.9673 28.5481L15.3037 25.1265V23.2109C16.3628 23.8 17.5383 24.2029 18.834 24.377ZM13.9097 26.5605L17.3682 29.791L14.2569 31.8984L12.2644 26.5928C12.4757 26.5774 12.6867 26.5605 12.9019 26.5605H13.9097ZM10.2692 26.968L12.8311 33.789C12.9385 34.0761 13.1719 34.2978 13.4639 34.3906C13.563 34.4219 13.6656 34.4375 13.7671 34.4375C13.9649 34.4375 14.1602 34.3789 14.3276 34.2656L18.9668 31.124L23.6035 34.2656C23.771 34.3789 23.9668 34.4375 24.1645 34.4375C24.2661 34.4375 24.3686 34.4219 24.4672 34.3906C24.7592 34.2978 24.9926 34.0761 25.1005 33.789L27.6606 26.981V35.3721H4.17141V35.2881C4.17141 31.3927 6.73821 28.0871 10.2692 26.968ZM34.6782 60H3.25681C2.59221 60 2.05121 59.459 2.05121 58.7949C2.05121 58.1299 2.59221 57.5888 3.25681 57.5888H3.50291H34.4321H34.6782C35.3428 57.5888 35.8833 58.1298 35.8833 58.7949C35.8833 59.459 35.3428 60 34.6782 60ZM33.5566 55.5889H4.37791L2.02881 38.0137C2.01321 37.8975 2.05521 37.7823 2.15381 37.669C2.31201 37.4893 2.57181 37.3721 2.81541 37.3721H27.6606V43.4629C27.6606 45.0567 28.956 46.3535 30.5478 46.3535H34.7905L33.5566 55.5889ZM59.0835 44.3535H35.9331H30.5478C30.0585 44.3535 29.6606 43.9541 29.6606 43.4629V36.3721V26.2468C29.6606 26.2464 29.6606 26.246 29.6606 26.2456V25.4248H59.9746V43.4629C59.9746 43.9453 59.5664 44.3535 59.0835 44.3535Z" fill="#D63E45"/>
<path d="M41.8022 31.7979C41.455 31.3672 40.8256 31.3008 40.3959 31.6475L37.3529 34.1026C37.1175 34.2921 36.9808 34.5782 36.9808 34.8809C36.9808 35.1836 37.1175 35.4698 37.3529 35.6592L40.3959 38.1143C40.581 38.2637 40.8026 38.336 41.0233 38.336C41.3153 38.336 41.6044 38.209 41.8021 37.9639C42.1488 37.5342 42.0814 36.9043 41.6517 36.5576L39.5736 34.8808L41.6517 33.204C42.0815 32.8574 42.1489 32.2275 41.8022 31.7979Z" fill="#D63E45"/>
<path d="M46.0342 31.4834C45.5122 31.2998 44.9419 31.5693 44.7564 32.0898L43.0054 37C42.8199 37.5205 43.0913 38.0928 43.6114 38.2783C43.7227 38.3174 43.836 38.3359 43.9473 38.3359C44.3579 38.3359 44.7432 38.081 44.8892 37.6718L46.6402 32.7616C46.8257 32.2412 46.5542 31.6689 46.0342 31.4834Z" fill="#D63E45"/>
<path d="M49.2393 31.6475C48.8101 31.3008 48.1802 31.3672 47.833 31.7979C47.4858 32.2276 47.5527 32.8565 47.9824 33.2042L50.0591 34.881L47.9824 36.5578C47.5527 36.9055 47.4858 37.5344 47.833 37.9641C48.0303 38.2092 48.3198 38.3362 48.6113 38.3362C48.832 38.3362 49.0542 38.2639 49.2392 38.1145L52.2788 35.6594C52.5137 35.469 52.6504 35.1828 52.6504 34.8811C52.6504 34.5794 52.5137 34.2932 52.2788 34.1028L49.2393 31.6475Z" fill="#D63E45"/>
<path d="M52.7599 21.8584C52.9445 22.1748 53.2736 22.3486 53.6134 22.3486C53.7858 22.3486 53.9615 22.3037 54.1222 22.2099C54.5993 21.9316 54.7555 21.3105 54.4772 20.8329C54.1989 20.3573 53.5885 20.1962 53.1095 20.4725C52.6324 20.7508 52.4713 21.3631 52.7496 21.8407L52.7599 21.8584Z" fill="#D63E45"/>
<path d="M56.4761 21.8584C56.6607 22.1748 56.9898 22.3486 57.3296 22.3486C57.502 22.3486 57.6777 22.3037 57.8384 22.2099C58.3155 21.9316 58.4717 21.3105 58.1934 20.8329C57.9151 20.3573 57.3046 20.1962 56.8256 20.4725C56.3485 20.7508 56.1875 21.3631 56.4658 21.8407L56.4761 21.8584Z" fill="#D63E45"/>
<path d="M49.0431 21.8584C49.2277 22.1748 49.5568 22.3486 49.8966 22.3486C50.069 22.3486 50.2447 22.3037 50.4054 22.2099C50.8825 21.9316 51.0387 21.3105 50.7604 20.8329C50.4826 20.3573 49.8703 20.1962 49.3927 20.4725C48.9156 20.7508 48.7545 21.3631 49.0328 21.8407L49.0431 21.8584Z" fill="#D63E45"/>
</svg>
