<svg width="62" height="52" viewBox="0 0 62 52" fill="none" xmlns="http://www.w3.org/2000/svg">
<path d="M59.5166 7.6714H17.2818L16.8379 4.5552C16.4649 2.7549 15.2305 0.608398 11.4649 0.608398H4.1465C1.4238 0.608398 0 2.6968 0 4.7593C0 6.7998 1.4238 8.8657 4.1465 8.8657H8.9541L12.9004 38.6684C13.2031 40.954 15.4356 41.9951 17.3828 41.9951H20.0768C19.6004 42.8899 19.3281 43.9092 19.3281 44.9917C19.3281 48.5205 22.1992 51.3916 25.7285 51.3916C29.2568 51.3916 32.1279 48.5205 32.1279 44.9917C32.1279 43.9092 31.8556 42.8899 31.3793 41.9951H40.0963C39.6199 42.8899 39.3476 43.9092 39.3476 44.9917C39.3476 48.5205 42.2187 51.3916 45.748 51.3916C49.2763 51.3916 52.1474 48.5205 52.1474 44.9917C52.1474 43.9092 51.8751 42.8899 51.3988 41.9951H55.624C58.249 41.9951 59.622 39.9048 59.622 37.8398C59.622 35.8012 58.249 33.7377 55.624 33.7377H55.5256L60.3195 16.2606C61.2937 15.9245 62 15.0076 62 13.9194V10.1543C62 8.7852 60.8857 7.6714 59.5166 7.6714ZM25.7285 49.3916C23.3017 49.3916 21.3281 47.418 21.3281 44.9917C21.3281 42.5654 23.3017 40.5913 25.7285 40.5913C28.1543 40.5913 30.1279 42.5654 30.1279 44.9917C30.1279 47.418 28.1543 49.3916 25.7285 49.3916ZM45.748 49.3916C43.3212 49.3916 41.3476 47.418 41.3476 44.9917C41.3476 42.5654 43.3212 40.5913 45.748 40.5913C48.1738 40.5913 50.1474 42.5654 50.1474 44.9917C50.1474 47.418 48.1738 49.3916 45.748 49.3916ZM55.624 35.7378C57.0986 35.7378 57.622 36.8701 57.622 37.8399C57.622 38.6407 57.2011 39.9952 55.624 39.9952H49.7366C48.6415 39.119 47.2561 38.5914 45.748 38.5914C44.2395 38.5914 42.8538 39.119 41.7586 39.9952H29.7171C28.622 39.119 27.2366 38.5914 25.7285 38.5914C24.22 38.5914 22.8343 39.119 21.7391 39.9952H17.3828C16.2803 39.9952 15.0273 39.4976 14.8828 38.4058L10.8213 7.7344C10.7559 7.2373 10.332 6.8657 9.8301 6.8657H4.1465C2.5625 6.8657 2 5.731 2 4.7593C2 3.9605 2.4521 2.6084 4.1465 2.6084H11.4649C13.4893 2.6084 14.543 3.334 14.8682 4.8989L19.1377 34.8789C19.208 35.3716 19.6299 35.7378 20.1279 35.7378H54.2112C54.2124 35.7378 54.2136 35.7383 54.2148 35.7383C54.2158 35.7383 54.2167 35.7378 54.2177 35.7378H55.624ZM33.2336 20.853L34.4526 16.4057H45.2937L44.0735 20.853H33.2336ZM54.6669 29.3042L53.4508 33.7378H42.6135L43.8299 29.3042H54.6669ZM43.5249 22.853L42.3037 27.3042H31.4654L32.6854 22.853H43.5249ZM20.0786 27.3042L19.4445 22.853H30.611L29.3909 27.3042H20.0786ZM28.8427 29.3042L27.6274 33.7378H20.9951L20.3635 29.3042H28.8427ZM30.9172 29.3042H41.755L40.5386 33.7378H29.702L30.9172 29.3042ZM31.1591 20.853H19.1596L18.5261 16.4057H32.3782L31.1591 20.853ZM55.2155 27.3042H44.3786L45.5998 22.853H56.4364L55.2155 27.3042ZM56.985 20.853H46.1485L47.3686 16.4057H58.2049L56.985 20.853ZM60 13.9194C60 14.1831 59.7783 14.4057 59.5166 14.4057H18.2411L17.5667 9.6713H59.5166C59.7783 9.6713 60 9.8925 60 10.1542V13.9194Z" fill="#D63E45"/>
<path d="M45.7549 45.9917H45.748C45.1953 45.9917 44.748 45.5439 44.748 44.9917C44.748 44.4395 45.1953 43.9917 45.748 43.9917C46.3007 43.9917 46.7509 44.4395 46.7509 44.9917C46.7509 45.5439 46.3076 45.9917 45.7549 45.9917Z" fill="#D63E45"/>
<path d="M25.7353 45.9917H25.7285C25.1758 45.9917 24.7285 45.5439 24.7285 44.9917C24.7285 44.4395 25.1758 43.9917 25.7285 43.9917C26.2812 43.9917 26.7314 44.4395 26.7314 44.9917C26.7314 45.5439 26.288 45.9917 25.7353 45.9917Z" fill="#D63E45"/>
</svg>
