<svg width="1440" height="570" viewBox="0 0 1440 570" fill="none" xmlns="http://www.w3.org/2000/svg">
<path d="M1660.14 478.027L1686 508.685V570H1660.14H1537.9H1389.79H1241.69H1091.24H943.137H795.034H646.932H498.829H350.727H200.273H52.1708H-95.9318H-244.034V437.151C-194.667 345.178 -145.299 181.671 -95.9318 151.014C-46.5642 120.356 2.80322 222.548 52.1708 242.986C101.538 263.425 150.906 202.109 200.273 232.767C249.641 263.425 301.359 386.055 350.727 396.274C400.094 406.493 449.462 304.301 498.829 314.52C548.197 324.74 597.564 447.37 646.932 447.37C696.299 447.37 745.667 324.74 795.034 242.986C844.402 161.233 893.769 120.356 943.137 151.014C992.504 181.671 1041.87 283.863 1091.24 273.644C1140.61 263.425 1189.97 140.794 1241.69 69.2601C1291.06 -2.27417 1340.43 -22.7125 1389.79 28.3834C1439.16 79.4793 1488.53 202.109 1537.9 294.082C1587.26 386.055 1636.63 447.37 1660.14 478.027Z" fill="#EFF9FB"/>
</svg>
