<svg width="64" height="51" viewBox="0 0 64 51" fill="none" xmlns="http://www.w3.org/2000/svg">
<path d="M42.31 38.6389L32.31 41.2289C31.5 41.0689 30.71 40.8489 29.59 40.5189C30.5594 39.8787 31.2521 38.8968 31.53 37.7689C31.6288 37.3556 31.644 36.9268 31.5748 36.5076C31.5056 36.0884 31.3534 35.6872 31.127 35.3277C30.9007 34.9681 30.6048 34.6574 30.2567 34.4137C29.9086 34.1701 29.5154 33.9984 29.1 33.9089L28 33.5689C22.5 31.7389 21.51 31.4189 18 32.5689L10.28 35.5689C9.99372 35.2487 9.642 34.9937 9.24865 34.8212C8.8553 34.6486 8.42949 34.5626 8.00002 34.5689H3.05002C2.64817 34.5702 2.25052 34.6506 1.87976 34.8056C1.50901 34.9606 1.17241 35.1871 0.889194 35.4722C0.605975 35.7572 0.381679 36.0953 0.229114 36.4671C0.0765484 36.8388 -0.00129897 37.237 1.63946e-05 37.6389V46.6389C0.00265295 47.447 0.324838 48.2212 0.896253 48.7926C1.46767 49.364 2.24192 49.6862 3.05002 49.6889H8.00002C8.61361 49.6887 9.21288 49.5034 9.71955 49.1573C10.2262 48.8112 10.6167 48.3204 10.84 47.7489L34 50.8789H34.13C34.2567 50.8792 34.3822 50.8554 34.5 50.8089L46.44 45.9889C46.9553 45.7965 47.4276 45.5044 47.8298 45.1292C48.232 44.754 48.5562 44.3031 48.7838 43.8024C49.0114 43.3017 49.1379 42.7609 49.1562 42.2112C49.1744 41.6615 49.084 41.1136 48.89 40.5989C48.15 38.7189 45.82 37.3589 42.31 38.6389ZM8.00002 47.7389H3.05002C2.77062 47.7362 2.50357 47.6234 2.30694 47.4249C2.11031 47.2264 2 46.9583 2.00002 46.6789V37.6789C2.00262 37.4012 2.11409 37.1356 2.31044 36.9393C2.50679 36.7429 2.77235 36.6315 3.05002 36.6289H8.00002C8.26144 36.6456 8.50763 36.7577 8.69194 36.9438C8.87625 37.13 8.98586 37.3773 9.00002 37.6389V46.6389C9.00838 46.9161 8.90879 47.1857 8.72224 47.3909C8.53569 47.5961 8.27676 47.7208 8.00002 47.7389ZM45.71 44.1789L34 48.8589L11 45.8089V37.4789L18.63 34.4789C21.47 33.5389 21.92 33.6789 27.34 35.4789L28.44 35.8389C29.31 36.0889 29.68 36.6089 29.51 37.3489C29.2324 38.1175 28.681 38.7568 27.9614 39.1443C27.2418 39.5318 26.4046 39.6402 25.61 39.4489L22.71 38.7089C22.4569 38.6565 22.1933 38.7043 21.9746 38.8421C21.7558 38.9799 21.599 39.197 21.5369 39.448C21.4748 39.6989 21.5123 39.9642 21.6415 40.188C21.7708 40.4119 21.9817 40.5771 22.23 40.6489L25.09 41.3789H25.19C26.75 41.7889 27.89 42.1189 28.82 42.3789C29.9006 42.7185 30.9989 42.9989 32.11 43.2189C32.2484 43.2486 32.3916 43.2486 32.53 43.2189L42.82 40.5589H42.92C44.92 39.8089 46.51 40.1289 46.99 41.3889C47.1812 41.9315 47.1522 42.5275 46.9092 43.0491C46.6662 43.5706 46.2285 43.9762 45.69 44.1789H45.71Z" fill="#008393"/>
<path d="M61.08 3.62881H56.47C55.9176 3.63139 55.3773 3.79061 54.9118 4.08798C54.4462 4.38536 54.0746 4.80868 53.84 5.30881L39.33 1.11881C35.33 -0.0111926 33.68 -0.531193 30.49 0.748807L23.49 3.53881C20 4.98881 19.65 6.33881 19.52 7.98881L19 14.9188C18.5163 16.0327 18.2678 17.2344 18.27 18.4488C18.2674 20.614 19.0253 22.7113 20.4113 24.3748C21.7973 26.0382 23.7234 27.1621 25.8535 27.5503C27.9837 27.9384 30.1824 27.5662 32.0661 26.4986C33.9498 25.431 35.3987 23.7357 36.16 21.7088L39.61 21.5688C39.6963 21.5801 39.7837 21.5801 39.87 21.5688L54 16.9888C54.2535 17.434 54.62 17.8043 55.0625 18.0624C55.505 18.3205 56.0078 18.4573 56.52 18.4588H61.13C61.8992 18.4457 62.6322 18.1295 63.1696 17.579C63.707 17.0285 64.0054 16.2881 64 15.5188V6.51881C63.9921 5.74959 63.681 5.01456 63.1343 4.47342C62.5875 3.93229 61.8493 3.62877 61.08 3.62881ZM27.47 25.6888C25.5489 25.6862 23.7075 24.9212 22.35 23.5618C20.9925 22.2024 20.23 20.3599 20.23 18.4388C20.2388 17.5049 20.4344 16.5822 20.8053 15.7251C21.1761 14.8679 21.7147 14.0936 22.3894 13.4479C23.0641 12.8021 23.8612 12.2978 24.7337 11.9648C25.6063 11.6318 26.5366 11.4767 27.47 11.5088C29.1835 11.4821 30.849 12.0751 32.16 13.1788C28.53 13.6488 27.46 15.9288 27.16 17.4188C26.92 18.5888 26.75 20.0588 27.56 21.0188C27.9106 21.3578 28.3317 21.6152 28.7932 21.7725C29.2548 21.9298 29.7454 21.9832 30.23 21.9288H31.1L33.88 21.8088C33.2654 22.9773 32.3437 23.956 31.2143 24.6396C30.0848 25.3233 28.7903 25.686 27.47 25.6888ZM39.35 19.5588L31 19.9088C30.44 19.9088 29.27 19.9788 29.06 19.7188C29.06 19.6588 28.79 19.3088 29.06 17.8188C29.47 15.8188 31.25 14.8988 34.37 15.1188H34.47C34.6944 15.1203 34.9128 15.0464 35.09 14.9088C35.1913 14.8249 35.275 14.7218 35.3363 14.6054C35.3977 14.4891 35.4355 14.3618 35.4476 14.2308C35.4596 14.0998 35.4458 13.9677 35.4067 13.8421C35.3677 13.7165 35.3042 13.5999 35.22 13.4988C32.97 10.7888 30.49 9.49881 27.41 9.49881C25.11 9.48106 22.883 10.3064 21.15 11.8188L21.45 8.03881C21.52 7.13881 21.58 6.43881 24.21 5.37881L31.21 2.58881C33.76 1.58881 34.92 1.89881 38.75 3.02881L53.55 7.30881V14.9888L39.35 19.5588ZM62 15.5588C62 15.8028 61.9031 16.0368 61.7306 16.2093C61.558 16.3819 61.324 16.4788 61.08 16.4788H56.47C56.226 16.4788 55.992 16.3819 55.8195 16.2093C55.647 16.0368 55.55 15.8028 55.55 15.5588V6.55881C55.55 6.31481 55.647 6.0808 55.8195 5.90827C55.992 5.73574 56.226 5.63881 56.47 5.63881H61.08C61.324 5.63881 61.558 5.73574 61.7306 5.90827C61.9031 6.0808 62 6.31481 62 6.55881V15.5588Z" fill="#008393"/>
</svg>
