<svg width="54" height="62" viewBox="0 0 54 62" fill="none" xmlns="http://www.w3.org/2000/svg">
<path d="M42.3358 6.4487C41.8068 2.8085 38.6658 0 34.8721 0C31.0016 0 27.8065 2.9229 27.3772 6.6715C22.7206 6.6821 18.2294 9.0225 15.5928 13.249C12.8721 17.6035 12.7969 23.164 15.3516 27.5903L12.4532 32.2324C12.378 32.3535 12.3292 32.4902 12.3106 32.6318L11.7413 36.9824L7.76085 39.8887C7.54795 40.045 7.40445 40.2783 7.36335 40.5391L6.63285 45.1309L3.32134 47.0801C3.18174 47.1621 3.06455 47.2764 2.97955 47.4131L0.241245 51.8067C0.100645 52.0323 0.0557452 52.3047 0.116245 52.5626C0.175845 52.8214 0.336945 53.046 0.562545 53.1856L6.34115 56.7728C6.53444 56.8888 6.76325 56.946 6.98735 56.918L12.5273 56.2715C12.8291 56.2363 13.0986 56.0654 13.2597 55.8076L26.5331 34.5342C28.8659 34.6771 31.2227 34.2304 33.3476 33.2529V37.9433C33.3476 38.0859 33.3779 38.2275 33.4374 38.3583L35.2567 42.3515L33.4198 46.915C33.3212 47.1601 33.3231 47.4345 33.4266 47.6777L35.2401 51.9609L33.4618 55.3623C33.3866 55.5049 33.3475 55.6641 33.3475 55.8252V61C33.3475 61.5527 33.7948 62 34.3475 62H41.1571C41.3365 62 41.6238 61.9066 41.7792 61.7822L46.1405 58.3134C46.3788 58.1239 46.5175 57.8359 46.5175 57.5312V32.4746C51.0292 30.0625 53.9101 25.3017 53.9101 20.1719C53.9102 13.3018 48.8995 7.5904 42.3358 6.4487ZM34.8721 2C37.4876 2 39.6808 3.814 40.2651 6.2443C40.1535 6.2417 40.0449 6.2275 39.9326 6.2275C37.5088 6.2275 35.2281 6.8479 33.2389 7.9353C31.9821 7.3624 30.6825 6.9947 29.3771 6.8082C29.734 4.0995 32.0588 2 34.8721 2ZM26.1201 32.4902C25.7314 32.4482 25.3652 32.6289 25.1611 32.955L11.8174 54.3408L8.82034 54.6902L23.4433 31.2539C23.7353 30.7856 23.5927 30.1685 23.124 29.876C22.6543 29.584 22.0381 29.7271 21.7461 30.1953L6.55085 54.5487L2.46885 52.0146L4.54695 48.6796L8.05375 46.6161C8.31155 46.4638 8.48734 46.2059 8.53424 45.911L9.27355 41.2606L13.2667 38.3446C13.4874 38.1835 13.6329 37.9383 13.6681 37.6669L14.2648 33.1073L17.3752 28.1268C17.5793 27.7987 17.5773 27.3827 17.3684 27.0575C14.8938 23.1967 14.8625 18.1923 17.2893 14.308C20.2717 9.5246 26.0268 7.5453 31.2223 9.2848C28.0172 11.8422 25.9553 15.7685 25.9553 20.1718C25.9553 24.7742 28.2806 29.075 32.0181 31.6546C30.158 32.4145 28.1168 32.7141 26.1201 32.4902ZM45.0869 30.9575C44.7392 31.1235 44.5176 31.4746 44.5176 31.8603V57.0488L42.1572 58.9264V32.1768C42.1572 31.6246 41.7099 31.1768 41.1572 31.1768C40.6045 31.1768 40.1572 31.6246 40.1572 32.1768V60H35.3476V56.0713L37.2304 52.4688C37.3691 52.2042 37.3818 51.8917 37.2656 51.6163L35.4297 47.2784L37.2725 42.7003C37.375 42.4464 37.3682 42.1622 37.2549 41.9122L35.3477 37.7267V31.8605C35.3477 31.4752 35.126 31.1242 34.7784 30.9582C30.6339 28.9802 27.9552 24.7463 27.9552 20.1721C27.9552 13.5862 33.3282 8.2278 39.9327 8.2278C40.077 8.2278 40.2172 8.2443 40.3604 8.2494C40.2316 9.2219 39.8509 10.1469 39.2441 10.9253C36.8922 11.263 35.0723 13.2689 35.0723 15.7097C35.0723 18.386 37.253 20.5632 39.9327 20.5632C42.6153 20.5632 44.797 18.386 44.797 15.7097C44.797 13.5826 43.41 11.7904 41.4976 11.1363C41.9474 10.3115 42.2375 9.4077 42.3563 8.4741C47.8029 9.5947 51.9103 14.4139 51.9103 20.1721C51.9102 24.748 49.2324 28.9814 45.0869 30.9575ZM39.9326 12.8555C41.5117 12.8555 42.7969 14.1358 42.7969 15.7095C42.7969 17.2827 41.5117 18.563 39.9326 18.563C38.3555 18.563 37.0722 17.2827 37.0722 15.7095C37.0723 14.1357 38.3555 12.8555 39.9326 12.8555Z" fill="#008393"/>
</svg>
