<svg width="60" height="64" viewBox="0 0 60 64" fill="none" xmlns="http://www.w3.org/2000/svg">
<path d="M53.6546 27.7201C53.6078 27.4908 53.4821 27.2852 53.2994 27.139C53.1167 26.9928 52.8885 26.9154 52.6546 26.9201H44.0246C43.4646 22.7501 40.8246 19.7001 36.4846 18.1301C37.7024 16.7731 38.3911 15.0231 38.4246 13.2001V8.73009C38.4365 6.90639 37.8588 5.12765 36.7776 3.65898C35.6964 2.19031 34.1695 1.11036 32.4246 0.580093C29.5346 -0.419907 26.5846 -0.0799071 25.0846 1.43009C21.8846 2.20009 20.4346 5.83009 20.4346 8.26009V13.2001C20.484 15.034 21.1942 16.7883 22.4346 18.1401C18.1346 19.7801 15.6646 22.7201 15.0646 26.9101H6.37457C6.14062 26.9054 5.91243 26.9828 5.72971 27.129C5.54699 27.2752 5.42132 27.4808 5.37457 27.7101L0.0245683 53.7801C-0.00894239 53.9285 -0.00816244 54.0825 0.0268488 54.2306C0.0618599 54.3786 0.13018 54.5167 0.226608 54.6343C0.323036 54.752 0.445032 54.8461 0.583309 54.9094C0.721587 54.9728 0.872502 55.0038 1.02457 55.0001H15.0846C13.9837 56.7561 13.4013 58.7875 13.4046 60.8601C13.3945 61.0807 13.4577 61.2984 13.5843 61.4793C13.7109 61.6602 13.8939 61.7941 14.1046 61.8601C18.9419 63.3202 23.9719 64.0417 29.0246 64.0001C34.1056 64.0405 39.1633 63.3088 44.0246 61.8301C44.2353 61.7641 44.4182 61.6302 44.5448 61.4493C44.6715 61.2684 44.7347 61.0507 44.7246 60.8301C44.7439 58.7618 44.1526 56.7338 43.0246 55.0001H58.0246C58.1745 55.0031 58.3233 54.9724 58.4598 54.9101C58.5963 54.8479 58.717 54.7557 58.813 54.6405C58.9091 54.5252 58.9779 54.3899 59.0146 54.2444C59.0512 54.0989 59.0546 53.9471 59.0246 53.8001L53.6546 27.7201ZM42.0246 26.9201H33.4646L32.1746 21.0001C33.0346 20.7283 33.8524 20.3379 34.6046 19.8401L34.7846 19.7001C39.0246 20.8601 41.4346 23.2901 42.0246 26.9201ZM22.4646 13.2001V11.2001H23.2346C23.954 11.2481 24.6718 11.0842 25.2991 10.7288C25.9265 10.3733 26.4359 9.84189 26.7646 9.20009C27.2738 9.88576 27.9501 10.4296 28.7291 10.7797C29.5081 11.1298 30.3638 11.2745 31.2146 11.2001H36.4646V13.2001C36.4199 14.2173 36.1222 15.2073 35.5983 16.0803C35.0745 16.9534 34.3411 17.682 33.4646 18.2001C32.2827 19.0012 30.8923 19.4392 29.4646 19.4601C29.0178 19.4557 28.5725 19.4088 28.1346 19.3201C25.0246 18.6401 22.4646 16.0001 22.4646 13.2001ZM29.4646 21.4101C29.6946 21.4101 29.9346 21.4101 30.1646 21.3501L31.3746 26.9101H27.5746L28.6746 21.3701C28.9646 21.3901 29.2146 21.4101 29.4546 21.4101H29.4646ZM22.4646 8.25009C22.4646 6.73009 23.4646 3.71009 25.7946 3.32009C26.0294 3.28903 26.2455 3.17564 26.4046 3.00009C27.2446 2.00009 29.6046 1.73009 31.7846 2.50009C33.1248 2.91724 34.299 3.74716 35.1394 4.87138C35.9799 5.99559 36.4437 7.3566 36.4646 8.76009V9.20009H31.2146C29.1446 9.20009 28.6846 8.64009 27.5546 6.90009C27.4642 6.75927 27.34 6.64336 27.1932 6.563C27.0465 6.48263 26.8819 6.44037 26.7146 6.44009C26.5473 6.44037 26.3827 6.48263 26.2359 6.563C26.0892 6.64336 25.9649 6.75927 25.8746 6.90009L25.4846 7.51009C24.5546 9.00009 24.4346 9.18009 23.2146 9.19009H22.4646V8.25009ZM24.1146 19.6701C24.9238 20.2478 25.8178 20.6965 26.7646 21.0001L25.5846 26.9301H17.0246C17.6746 23.2801 19.9346 21.0001 24.1046 19.6701H24.1146ZM15.4346 60.1401C15.5343 58.0834 16.4013 56.1388 17.8646 54.6901C19.3946 53.3139 21.2438 52.3412 23.2446 51.8601C24.9425 52.9831 26.929 53.5908 28.9646 53.6101C30.9051 53.5917 32.8024 53.0343 34.4446 52.0001L34.7046 51.8201C38.2946 52.7401 42.3546 54.9201 42.7046 60.0901C33.7883 62.5868 24.3599 62.6041 15.4346 60.1401ZM21.3346 40.4701C21.3346 39.0601 22.1646 36.0101 25.0046 35.5701C25.2372 35.5341 25.4496 35.4173 25.6046 35.2401C26.0214 34.8766 26.5071 34.6007 27.0329 34.4288C27.5586 34.257 28.1135 34.1929 28.6646 34.2401C29.7675 34.2462 30.8607 34.4459 31.8946 34.8301C33.3046 35.3601 36.5746 37.0101 36.5746 40.9401V43.8001C31.7246 46.6301 24.3846 45.8001 21.3646 43.8001L21.3346 40.4701ZM28.8446 47.6801C31.4858 47.7074 34.1018 47.1651 36.5146 46.0901C36.3307 46.9838 35.9558 47.8272 35.4155 48.5625C34.8753 49.2978 34.1825 49.9076 33.3846 50.3501C32.0746 51.1638 30.5666 51.603 29.0246 51.6201C25.3646 51.6201 22.0246 49.1001 21.4946 46.2001C23.8145 47.2119 26.3238 47.7165 28.8546 47.6801H28.8446ZM41.3146 53.0001C39.9108 51.7981 38.2779 50.8932 36.5146 50.3401C37.7941 49.0206 38.5296 47.2675 38.5746 45.4301V41.0001C38.5746 37.4001 36.3346 34.4201 32.5746 33.0001C29.3946 31.8101 26.0146 32.1101 24.3346 33.6801C20.8046 34.4301 19.2746 38.0801 19.3346 40.5201V45.4501C19.3792 47.2954 20.1184 49.056 21.4046 50.3801C19.7128 50.9468 18.1471 51.8366 16.7946 53.0001H2.25457L7.19457 28.9201H51.8546L56.7946 53.0001H41.3146Z" fill="#008393"/>
</svg>
