<svg width="60" height="62" viewBox="0 0 60 62" fill="none" xmlns="http://www.w3.org/2000/svg">
<path d="M17.2271 12.0747C19.211 12.0747 20.8248 10.4609 20.8248 8.47752C20.8248 6.49362 19.211 4.87982 17.2271 4.87982C15.2437 4.87982 13.6299 6.49362 13.6299 8.47752C13.6299 10.4609 15.2437 12.0747 17.2271 12.0747ZM17.2271 6.87992C18.108 6.87992 18.8248 7.59672 18.8248 8.47762C18.8248 9.35852 18.108 10.0748 17.2271 10.0748C16.3462 10.0748 15.6299 9.35852 15.6299 8.47762C15.6299 7.59672 16.3462 6.87992 17.2271 6.87992Z" fill="#D63E45"/>
<path d="M17.2271 19.8311C15.2437 19.8311 13.6299 21.4449 13.6299 23.4288C13.6299 25.4122 15.2437 27.026 17.2271 27.026C19.211 27.026 20.8248 25.4122 20.8248 23.4288C20.8247 21.4448 19.2109 19.8311 17.2271 19.8311ZM17.2271 25.0259C16.3462 25.0259 15.6299 24.3096 15.6299 23.4287C15.6299 22.5478 16.3462 21.831 17.2271 21.831C18.108 21.831 18.8248 22.5478 18.8248 23.4287C18.8248 24.3096 18.1079 25.0259 17.2271 25.0259Z" fill="#D63E45"/>
<path d="M56.9912 39.1147H47.2632V38.6054C47.2632 36.4247 45.4693 34.0707 42.5708 34.0707H30.998V31.9057H48.9907C51.0102 31.9057 52.6528 30.2646 52.6528 28.247V18.6137C52.6528 17.5635 52.2026 16.6218 51.4922 15.9534C52.2026 15.2857 52.6528 14.3451 52.6528 13.2959V3.6592C52.6528 1.6416 51.0103 0 48.9907 0H11.0093C8.98982 0 7.34722 1.6416 7.34722 3.6592V13.2959C7.34722 14.3451 7.79742 15.2857 8.50782 15.9534C7.79742 16.6219 7.34722 17.5635 7.34722 18.6137V28.247C7.34722 30.2646 8.98982 31.9057 11.0093 31.9057H28.998V34.0707H18.5791C15.6807 34.0707 13.8867 36.4247 13.8867 38.6054V39.1147H3.00882C1.46882 39.1147 0.21582 40.3676 0.21582 41.9082V54.6313C0.21582 56.1718 1.46872 57.4248 3.00882 57.4248H9.86772L8.83732 60H6.82422C6.27202 60 5.82422 60.4478 5.82422 61C5.82422 61.5522 6.27202 62 6.82422 62H9.51122C9.51212 62 9.51282 62.0005 9.51372 62.0005C9.51482 62.0005 9.51592 62 9.51702 62H17.9601C17.9612 62 17.9623 62.0005 17.9634 62.0005C17.9643 62.0005 17.965 62 17.9659 62H20.6529C21.2051 62 21.6529 61.5522 21.6529 61C21.6529 60.4478 21.2051 60 20.6529 60H18.6395L17.6072 57.4248H24.4683C26.0083 57.4248 27.2613 56.1719 27.2613 54.6313V41.9082C27.2613 40.3677 26.0084 39.1147 24.4683 39.1147H15.8868V38.6054C15.8868 37.3866 16.9161 36.0707 18.5792 36.0707H42.5709C44.234 36.0707 45.2633 37.3866 45.2633 38.6054V39.1147H35.5319C33.9919 39.1147 32.7389 40.3676 32.7389 41.9082V54.6313C32.7389 56.1718 33.9918 57.4248 35.5319 57.4248H42.3908L41.3603 60H39.3472C38.795 60 38.3472 60.4478 38.3472 61C38.3472 61.5522 38.795 62 39.3472 62H42.0342C42.0351 62 42.0358 62.0005 42.0367 62.0005C42.0378 62.0005 42.0389 62 42.04 62H50.4831C50.4842 62 50.4853 62.0005 50.4864 62.0005C50.4873 62.0005 50.488 62 50.4889 62H53.1759C53.7281 62 54.1759 61.5522 54.1759 61C54.1759 60.4478 53.7281 60 53.1759 60H51.1628L50.1324 57.4248H56.9913C58.5313 57.4248 59.7843 56.1719 59.7843 54.6313V41.9082C59.7842 40.3677 58.5313 39.1147 56.9912 39.1147ZM9.34722 13.2959V3.6592C9.34722 2.7441 10.0928 2 11.0093 2H48.9907C49.9072 2 50.6528 2.7441 50.6528 3.6592V13.2959C50.6528 14.2047 49.9161 14.9435 49.0076 14.9529C49.0018 14.9529 48.9965 14.9512 48.9907 14.9512H11.0093C11.0035 14.9512 10.9982 14.9529 10.9924 14.9529C10.0839 14.9435 9.34722 14.2047 9.34722 13.2959ZM9.34722 28.2471V18.6138C9.34722 17.7026 10.0839 16.9622 10.9924 16.9529C10.9982 16.9529 11.0035 16.9546 11.0093 16.9546C11.0153 16.9546 11.0202 16.9513 11.0262 16.9512H48.9738C48.9798 16.9513 48.9847 16.9546 48.9907 16.9546C48.9965 16.9546 49.0018 16.9529 49.0076 16.9529C49.9161 16.9622 50.6528 17.7026 50.6528 18.6138V28.2471C50.6528 29.1617 49.9072 29.9058 48.9907 29.9058H11.0093C10.0928 29.9058 9.34722 29.1616 9.34722 28.2471ZM16.4847 60H10.9912L12.0216 57.4248H15.4524L16.4847 60ZM24.4683 55.4248H3.00882C2.57182 55.4248 2.21582 55.0688 2.21582 54.6313V53.6875H25.2612V54.6313C25.2612 55.0688 24.9053 55.4248 24.4683 55.4248ZM25.2612 41.9082V51.6875H2.21582V41.9082C2.21582 41.4707 2.57182 41.1147 3.00882 41.1147H24.4683C24.9053 41.1147 25.2612 41.4707 25.2612 41.9082ZM35.5317 41.1147H56.9912C57.4282 41.1147 57.7842 41.4707 57.7842 41.9082V51.6875H34.7388V41.9082C34.7388 41.4707 35.0947 41.1147 35.5317 41.1147ZM49.0089 60H43.5141L44.5445 57.4248H47.9785L49.0089 60ZM56.9912 55.4248H35.5317C35.0947 55.4248 34.7387 55.0688 34.7387 54.6313V53.6875H57.7841V54.6313C57.7842 55.0688 57.4282 55.4248 56.9912 55.4248Z" fill="#D63E45"/>
<path d="M34.5811 12.9644C35.1333 12.9644 35.5811 12.5166 35.5811 11.9644V4.99017C35.5811 4.43797 35.1333 3.99017 34.5811 3.99017C34.0289 3.99017 33.5811 4.43797 33.5811 4.99017V11.9643C33.5811 12.5166 34.0288 12.9644 34.5811 12.9644Z" fill="#D63E45"/>
<path d="M39.5664 12.9644C40.1186 12.9644 40.5664 12.5166 40.5664 11.9644V4.99017C40.5664 4.43797 40.1186 3.99017 39.5664 3.99017C39.0142 3.99017 38.5664 4.43797 38.5664 4.99017V11.9643C38.5664 12.5166 39.0142 12.9644 39.5664 12.9644Z" fill="#D63E45"/>
<path d="M44.5488 12.9644C45.101 12.9644 45.5488 12.5166 45.5488 11.9644V4.99017C45.5488 4.43797 45.101 3.99017 44.5488 3.99017C43.9966 3.99017 43.5488 4.43797 43.5488 4.99017V11.9643C43.5488 12.5166 43.9966 12.9644 44.5488 12.9644Z" fill="#D63E45"/>
<path d="M29.752 12.9644C30.3042 12.9644 30.752 12.5166 30.752 11.9644V4.99017C30.752 4.43797 30.3042 3.99017 29.752 3.99017C29.1998 3.99017 28.752 4.43797 28.752 4.99017V11.9643C28.752 12.5166 29.1997 12.9644 29.752 12.9644Z" fill="#D63E45"/>
<path d="M34.5811 27.9155C35.1333 27.9155 35.5811 27.4677 35.5811 26.9155V19.9414C35.5811 19.3892 35.1333 18.9414 34.5811 18.9414C34.0289 18.9414 33.5811 19.3892 33.5811 19.9414V26.9155C33.5811 27.4678 34.0288 27.9155 34.5811 27.9155Z" fill="#D63E45"/>
<path d="M39.5664 27.9155C40.1186 27.9155 40.5664 27.4677 40.5664 26.9155V19.9414C40.5664 19.3892 40.1186 18.9414 39.5664 18.9414C39.0142 18.9414 38.5664 19.3892 38.5664 19.9414V26.9155C38.5664 27.4678 39.0142 27.9155 39.5664 27.9155Z" fill="#D63E45"/>
<path d="M44.5488 27.9155C45.101 27.9155 45.5488 27.4677 45.5488 26.9155V19.9414C45.5488 19.3892 45.101 18.9414 44.5488 18.9414C43.9966 18.9414 43.5488 19.3892 43.5488 19.9414V26.9155C43.5488 27.4678 43.9966 27.9155 44.5488 27.9155Z" fill="#D63E45"/>
<path d="M30.752 26.9155V19.9414C30.752 19.3892 30.3042 18.9414 29.752 18.9414C29.1998 18.9414 28.752 19.3892 28.752 19.9414V26.9155C28.752 27.4677 29.1998 27.9155 29.752 27.9155C30.3042 27.9155 30.752 27.4678 30.752 26.9155Z" fill="#D63E45"/>
</svg>
