<svg width="59" height="65" viewBox="0 0 59 65" fill="none" xmlns="http://www.w3.org/2000/svg">
<path d="M53.6302 28.36C53.5834 28.1307 53.4577 27.9251 53.275 27.7789C53.0923 27.6327 52.8641 27.5553 52.6302 27.56H44.0002C43.4402 23.39 40.8002 20.34 36.4602 18.77C37.678 17.413 38.3666 15.663 38.4002 13.84V9.36998C38.4121 7.54628 37.8344 5.76754 36.7532 4.29887C35.672 2.8302 34.1451 1.75025 32.4002 1.21999C29.5102 0.219986 26.5602 0.559986 25.0602 2.06999C21.8602 2.83999 20.4102 6.46999 20.4102 8.89999V13.84C20.4596 15.6739 21.1698 17.4282 22.4102 18.78C18.1102 20.42 15.6402 23.36 15.0402 27.55H6.35015C6.11621 27.5453 5.88801 27.6227 5.7053 27.7689C5.52258 27.9151 5.3969 28.1207 5.35015 28.35L0.00015419 54.42C-0.0333565 54.5684 -0.0325765 54.7224 0.00243469 54.8705C0.0374459 55.0185 0.105766 55.1566 0.202194 55.2742C0.298622 55.3919 0.420618 55.486 0.558895 55.5493C0.697173 55.6127 0.848088 55.6437 1.00015 55.64H15.0602C13.9593 57.396 13.3769 59.4274 13.3802 61.5C13.3701 61.7206 13.4332 61.9383 13.5599 62.1192C13.6865 62.3001 13.8694 62.434 14.0802 62.5C18.9174 63.9601 23.9475 64.6816 29.0002 64.64C34.0812 64.6804 39.1389 63.9487 44.0002 62.47C44.2109 62.404 44.3938 62.2701 44.5204 62.0892C44.6471 61.9083 44.7103 61.6906 44.7002 61.47C44.7195 59.4017 44.1281 57.3737 43.0002 55.64H58.0002C58.1501 55.643 58.2989 55.6123 58.4354 55.55C58.5718 55.4878 58.6926 55.3956 58.7886 55.2804C58.8847 55.1651 58.9535 55.0298 58.9902 54.8843C59.0268 54.7388 59.0302 54.587 59.0002 54.44L53.6302 28.36ZM42.0002 27.56H33.4402L32.1502 21.64C33.0101 21.3682 33.828 20.9777 34.5802 20.48L34.7602 20.34C39.0002 21.5 41.4102 23.93 42.0002 27.56ZM22.4402 13.84V11.84H23.2102C23.9296 11.888 24.6473 11.7241 25.2747 11.3687C25.902 11.0132 26.4115 10.4818 26.7402 9.83998C27.2493 10.5257 27.9257 11.0695 28.7047 11.4196C29.4837 11.7697 30.3393 11.9144 31.1902 11.84H36.4402V13.84C36.3955 14.8572 36.0977 15.8472 35.5739 16.7202C35.0501 17.5933 34.3167 18.3219 33.4402 18.84C32.2582 19.6411 30.8678 20.0791 29.4402 20.1C28.9934 20.0956 28.548 20.0487 28.1102 19.96C25.0002 19.28 22.4402 16.64 22.4402 13.84ZM29.4402 22.05C29.6702 22.05 29.9102 22.05 30.1402 21.99L31.3502 27.55H27.5502L28.6502 22.01C28.9402 22.03 29.1902 22.05 29.4302 22.05H29.4402ZM22.4402 8.88999C22.4402 7.36999 23.4402 4.34999 25.7702 3.95999C26.005 3.92893 26.2211 3.81553 26.3802 3.63999C27.2202 2.63999 29.5802 2.36999 31.7602 3.13999C33.1004 3.55713 34.2746 4.38706 35.115 5.51127C35.9555 6.63548 36.4193 7.99649 36.4402 9.39999V9.83998H31.1902C29.1202 9.83998 28.6602 9.27999 27.5302 7.53999C27.4398 7.39916 27.3156 7.28325 27.1688 7.20289C27.022 7.12252 26.8575 7.08026 26.6902 7.07999C26.5228 7.08026 26.3583 7.12252 26.2115 7.20289C26.0648 7.28325 25.9405 7.39916 25.8502 7.53999L25.4602 8.14999C24.5302 9.63999 24.4102 9.81998 23.1902 9.82998H22.4402V8.88999ZM24.0902 20.31C24.8994 20.8877 25.7933 21.3364 26.7402 21.64L25.5602 27.57H17.0002C17.6502 23.92 19.9102 21.64 24.0802 20.31H24.0902ZM15.4102 60.78C15.5099 58.7233 16.3769 56.7787 17.8402 55.33C19.3702 53.9538 21.2193 52.9811 23.2202 52.5C24.9181 53.6229 26.9046 54.2307 28.9402 54.25C30.8807 54.2316 32.778 53.6742 34.4202 52.64L34.6802 52.46C38.2702 53.38 42.3302 55.56 42.6802 60.73C33.7639 63.2267 24.3355 63.244 15.4102 60.78ZM21.3102 41.11C21.3102 39.7 22.1402 36.65 24.9802 36.21C25.2128 36.174 25.4252 36.0572 25.5802 35.88C25.997 35.5164 26.4827 35.2405 27.0084 35.0687C27.5342 34.8969 28.0891 34.8327 28.6402 34.88C29.7431 34.886 30.8363 35.0857 31.8702 35.47C33.2802 36 36.5502 37.65 36.5502 41.58V44.44C31.7002 47.27 24.3602 46.44 21.3402 44.44L21.3102 41.11ZM28.8202 48.32C31.4614 48.3473 34.0774 47.8049 36.4902 46.73C36.3063 47.6237 35.9314 48.4671 35.3911 49.2024C34.8509 49.9376 34.1581 50.5474 33.3602 50.99C32.0501 51.8037 30.5422 52.2429 29.0002 52.26C25.3402 52.26 22.0002 49.74 21.4702 46.84C23.7901 47.8518 26.2994 48.3564 28.8302 48.32H28.8202ZM41.2902 53.64C39.8864 52.438 38.2535 51.5331 36.4902 50.98C37.7697 49.6605 38.5052 47.9074 38.5502 46.07V41.64C38.5502 38.04 36.3102 35.06 32.5502 33.64C29.3702 32.45 25.9902 32.75 24.3102 34.32C20.7802 35.07 19.2502 38.72 19.3102 41.16V46.09C19.3548 47.9353 20.094 49.6959 21.3802 51.02C19.6884 51.5866 18.1227 52.4764 16.7702 53.64H2.23015L7.17015 29.56H51.8302L56.7702 53.64H41.2902Z" fill="#D63E45"/>
</svg>
