<svg width="63" height="58" viewBox="0 0 63 58" fill="none" xmlns="http://www.w3.org/2000/svg">
<path d="M55.6406 16.5278H1.5C0.9473 16.5278 0.5 16.08 0.5 15.5278C0.5 14.9756 0.9473 14.5278 1.5 14.5278H55.6406C56.1933 14.5278 56.6406 14.9756 56.6406 15.5278C56.6406 16.08 56.1934 16.5278 55.6406 16.5278Z" fill="#D63E45"/>
<path d="M9.61431 11.4932C7.86431 11.4932 6.44141 10.0699 6.44141 8.31991C6.44141 6.56991 7.86431 5.14661 9.61431 5.14661C11.3643 5.14661 12.7881 6.56991 12.7881 8.31991C12.7881 10.0699 11.3643 11.4932 9.61431 11.4932ZM9.61431 7.14651C8.96781 7.14651 8.44141 7.67291 8.44141 8.31981C8.44141 8.96671 8.96781 9.49311 9.61431 9.49311C10.2618 9.49311 10.7881 8.96671 10.7881 8.31981C10.7881 7.67291 10.2617 7.14651 9.61431 7.14651Z" fill="#D63E45"/>
<path d="M18.0645 11.4932C16.3145 11.4932 14.8916 10.0699 14.8916 8.31991C14.8916 6.56991 16.3145 5.14661 18.0645 5.14661C19.8145 5.14661 21.2383 6.56991 21.2383 8.31991C21.2383 10.0699 19.8145 11.4932 18.0645 11.4932ZM18.0645 7.14651C17.418 7.14651 16.8916 7.67291 16.8916 8.31981C16.8916 8.96671 17.418 9.49311 18.0645 9.49311C18.712 9.49311 19.2383 8.96671 19.2383 8.31981C19.2383 7.67291 18.7119 7.14651 18.0645 7.14651Z" fill="#D63E45"/>
<path d="M47.5254 11.4932H30.6182C28.8682 11.4932 27.4453 10.0699 27.4453 8.31991C27.4453 6.56991 28.8682 5.14661 30.6182 5.14661H47.5254C49.2754 5.14661 50.6992 6.56991 50.6992 8.31991C50.6992 10.0699 49.2754 11.4932 47.5254 11.4932ZM30.6182 7.14651C29.9717 7.14651 29.4453 7.67291 29.4453 8.31981C29.4453 8.96671 29.9717 9.49311 30.6182 9.49311H47.5254C48.1729 9.49311 48.6992 8.96671 48.6992 8.31981C48.6992 7.67291 48.1728 7.14651 47.5254 7.14651H30.6182Z" fill="#D63E45"/>
<path d="M37.128 31.4707C36.5753 31.4707 36.128 31.0229 36.128 30.4707V28.2563C36.128 24.0556 32.71 20.6381 28.5098 20.6381C24.3096 20.6381 20.8926 24.0556 20.8926 28.2563V30.4707C20.8926 31.0229 20.4453 31.4707 19.8926 31.4707C19.3399 31.4707 18.8926 31.0229 18.8926 30.4707V28.2563C18.8926 22.9526 23.2071 18.6381 28.5098 18.6381C33.8135 18.6381 38.128 22.9526 38.128 28.2563V30.4707C38.128 31.0229 37.6808 31.4707 37.128 31.4707Z" fill="#D63E45"/>
<path d="M32.0966 30.2285C31.5439 30.2285 31.0966 29.7807 31.0966 29.2285V27.7431C31.0966 26.3168 29.9364 25.1562 28.5097 25.1562C27.0839 25.1562 25.9238 26.3168 25.9238 27.7431V29.2285C25.9238 29.7807 25.4765 30.2285 24.9238 30.2285C24.3711 30.2285 23.9238 29.7807 23.9238 29.2285V27.7431C23.9238 25.2138 25.9814 23.1562 28.5097 23.1562C31.039 23.1562 33.0966 25.2138 33.0966 27.7431V29.2285C33.0966 29.7808 32.6493 30.2285 32.0966 30.2285Z" fill="#D63E45"/>
<path d="M38.4795 45.0894H18.6602C17.4122 45.0894 16.3975 44.0743 16.3975 42.8262V31.7339C16.3975 30.4859 17.4121 29.4707 18.6602 29.4707H38.4795C39.7275 29.4707 40.7432 30.4858 40.7432 31.7339V42.8262C40.7432 44.0742 39.7275 45.0894 38.4795 45.0894ZM18.6602 31.4707C18.5176 31.4707 18.3975 31.5913 18.3975 31.7339V42.8262C18.3975 42.9688 18.5176 43.0894 18.6602 43.0894H38.4795C38.6221 43.0894 38.7432 42.9688 38.7432 42.8262V31.7339C38.7432 31.5913 38.6221 31.4707 38.4795 31.4707H18.6602Z" fill="#D63E45"/>
<path d="M28.5723 40.0103C28.0196 40.0103 27.5723 39.5625 27.5723 39.0103V35.461C27.5723 34.9088 28.0196 34.461 28.5723 34.461C29.125 34.461 29.5723 34.9088 29.5723 35.461V39.0103C29.5723 39.5625 29.125 40.0103 28.5723 40.0103Z" fill="#D63E45"/>
<path d="M53.2267 57.8916C52.7785 57.8916 52.3312 57.7144 51.7413 57.3603C49.5948 56.0795 47.711 53.9482 46.1417 51.0244C44.6866 48.313 43.9308 45.4819 43.9552 42.8374C43.9708 41.186 44.589 40.7861 45.6798 40.2207C50.0528 37.9551 56.4025 37.9556 60.7755 40.2202C61.8663 40.7861 62.4845 41.186 62.5001 42.8369C62.5216 45.4883 61.7657 48.3188 60.3136 51.0239C58.7423 53.9502 56.8575 56.0825 54.7111 57.3618C54.1212 57.7148 53.6739 57.8911 53.2267 57.8916ZM53.2276 40.5044C50.8731 40.5044 48.5206 41.0015 46.5997 41.9966C46.3722 42.1143 46.0597 42.2759 45.9972 42.3472C45.9982 42.3506 45.9591 42.4541 45.9552 42.8565C45.9337 45.1656 46.6075 47.6627 47.9034 50.0787C49.2999 52.6793 50.9366 54.5518 52.7677 55.6441C52.7687 55.6446 52.7697 55.6451 52.7706 55.6456C53.0968 55.8414 53.2071 55.8824 53.2442 55.8897C53.2462 55.8824 53.3575 55.8414 53.6856 55.6451C55.5176 54.5528 57.1544 52.6803 58.5518 50.0782C59.8448 47.668 60.5186 45.17 60.5 42.8551C60.4961 42.4542 60.457 42.3507 60.4492 42.3341C60.3955 42.276 60.083 42.1144 59.8554 41.9962C57.9356 41.002 55.5812 40.5044 53.2276 40.5044Z" fill="#D63E45"/>
<path d="M47.0566 51.6162H5.6035C2.7891 51.6162 0.5 49.3252 0.5 46.5093V5.21582C0.5 2.40132 2.7891 0.111816 5.6035 0.111816H51.5371C54.3516 0.111816 56.6406 2.40142 56.6406 5.21582V39.6777C56.6406 40.2299 56.1933 40.6777 55.6406 40.6777C55.0879 40.6777 54.6406 40.2299 54.6406 39.6777V5.21582C54.6406 3.50442 53.248 2.11182 51.5371 2.11182H5.6035C3.8926 2.11182 2.5 3.50442 2.5 5.21582V46.5093C2.5 48.2227 3.8926 49.6162 5.6035 49.6162H47.0566C47.6093 49.6162 48.0566 50.064 48.0566 50.6162C48.0566 51.1684 47.6094 51.6162 47.0566 51.6162Z" fill="#D63E45"/>
<path d="M52.7619 50.5928C52.5109 50.5928 52.2599 50.499 52.0656 50.3101L50.3097 48.6055C49.9132 48.2212 49.9034 47.5879 50.2882 47.1914C50.673 46.7954 51.3058 46.7856 51.7023 47.1709L52.7423 48.1802L55.8829 44.9585C56.2686 44.564 56.9024 44.5562 57.297 44.9404C57.6925 45.3261 57.7003 45.9594 57.3146 46.355L53.4777 50.291C53.2824 50.4917 53.0217 50.5928 52.7619 50.5928Z" fill="#D63E45"/>
</svg>
