<svg width="28" height="22" viewBox="0 0 28 22" fill="none" xmlns="http://www.w3.org/2000/svg">
<path d="M12.8881 12.3994L12.125 12.8119L2.75 7.76251V6.37501C2.75 5.87773 2.94754 5.40081 3.29917 5.04918C3.65081 4.69755 4.12772 4.50001 4.625 4.50001H13.7694L15.6406 2.62501H4.625C3.63044 2.62501 2.67661 3.0201 1.97335 3.72336C1.27009 4.42662 0.875 5.38045 0.875 6.37501V17.625C0.875 18.6196 1.27009 19.5734 1.97335 20.2767C2.67661 20.9799 3.63044 21.375 4.625 21.375H19.625C20.6196 21.375 21.5734 20.9799 22.2766 20.2767C22.9799 19.5734 23.375 18.6196 23.375 17.625V14.0963L21.5 15.9638V17.625C21.5 18.1223 21.3025 18.5992 20.9508 18.9508C20.5992 19.3025 20.1223 19.5 19.625 19.5H4.625C4.12772 19.5 3.65081 19.3025 3.29917 18.9508C2.94754 18.5992 2.75 18.1223 2.75 17.625V9.89251L11.6806 14.7C11.8172 14.7735 11.9699 14.812 12.125 14.812C12.2801 14.812 12.4328 14.7735 12.5694 14.7L13.0569 14.4375C12.8556 13.778 12.798 13.083 12.8881 12.3994ZM20.0487 3.51751L14.6637 8.91188C14.5774 9.00154 14.474 9.0731 14.3597 9.12239C14.2454 9.17167 14.1225 9.1977 13.998 9.19896C13.8735 9.20021 13.75 9.17667 13.6348 9.12969C13.5195 9.08272 13.4147 9.01325 13.3266 8.92536C13.2384 8.83746 13.1687 8.73289 13.1214 8.61774C13.0741 8.5026 13.0502 8.37919 13.0511 8.25471C13.052 8.13023 13.0776 8.00718 13.1266 7.89274C13.1756 7.77829 13.2468 7.67474 13.3363 7.58813L18.7212 2.19188C19.6442 1.26868 20.8961 0.749932 22.2015 0.749756C23.507 0.74958 24.759 1.26799 25.6822 2.19094C26.6054 3.1139 27.1241 4.36579 27.1243 5.67122C27.1245 6.97665 26.6061 8.22868 25.6831 9.15188L19.715 15.0956C19.4433 15.3672 19.1207 15.5826 18.7658 15.7296C18.4108 15.8765 18.0304 15.9521 17.6462 15.952C16.8703 15.9518 16.1263 15.6434 15.5778 15.0947C15.0293 14.5459 14.7213 13.8018 14.7214 13.0259C14.7216 12.25 15.03 11.506 15.5787 10.9575L20.8381 5.71126C20.9247 5.62185 21.0283 5.55058 21.1427 5.50162C21.2572 5.45265 21.3802 5.42697 21.5047 5.42607C21.6292 5.42516 21.7526 5.44906 21.8677 5.49636C21.9829 5.54366 22.0875 5.61342 22.1753 5.70157C22.2632 5.78971 22.3327 5.89448 22.3797 6.00976C22.4267 6.12503 22.4502 6.24851 22.449 6.37299C22.4477 6.49746 22.4217 6.62044 22.3724 6.73475C22.3231 6.84905 22.2515 6.9524 22.1619 7.03876L16.9062 12.2831C16.8087 12.3806 16.7314 12.4964 16.6786 12.6238C16.6259 12.7512 16.5987 12.8877 16.5987 13.0256C16.5987 13.1635 16.6259 13.3001 16.6786 13.4275C16.7314 13.5549 16.8087 13.6706 16.9062 13.7681C17.1032 13.9651 17.3703 14.0757 17.6488 14.0757C17.7866 14.0757 17.9232 14.0485 18.0506 13.9958C18.178 13.943 18.2937 13.8656 18.3913 13.7681L24.3594 7.82438C24.9092 7.24868 25.2118 6.48067 25.2026 5.68467C25.1933 4.88867 24.8729 4.1279 24.3099 3.56513C23.7469 3.00235 22.986 2.68227 22.19 2.67338C21.394 2.66448 20.6261 2.96746 20.0506 3.51751H20.0487Z" fill="#008393"/>
</svg>
