<svg width="58" height="64" viewBox="0 0 58 64" fill="none" xmlns="http://www.w3.org/2000/svg">
<path d="M29.1252 26.4565H30.1102C30.3423 26.4565 30.5649 26.3643 30.729 26.2002C30.8931 26.0361 30.9852 25.8136 30.9852 25.5815C30.9852 25.3494 30.8931 25.1269 30.729 24.9628C30.5649 24.7987 30.3423 24.7065 30.1102 24.7065L29.1542 24.7395L29.5112 22.381C29.546 22.1515 29.4881 21.9176 29.3505 21.7308C29.2128 21.544 29.0065 21.4195 28.777 21.3847C28.5475 21.35 28.3136 21.4078 28.1268 21.5455C27.94 21.6832 27.8155 21.8895 27.7807 22.119L27.4237 24.4775C27.3866 24.7224 27.4028 24.9724 27.4711 25.2105C27.5395 25.4485 27.6584 25.669 27.8198 25.8569C27.9812 26.0448 28.1813 26.1956 28.4063 26.2991C28.6313 26.4026 28.8761 26.4563 29.1237 26.4565H29.1252Z" fill="#D63E45"/>
<path d="M28.9369 31.5385C29.691 31.5669 30.4422 31.4312 31.1387 31.141C31.8353 30.8508 32.4606 30.4129 32.9714 29.8575C33.0482 29.7693 33.1066 29.6667 33.1431 29.5555C33.1796 29.4444 33.1934 29.3271 33.1838 29.2106C33.1742 29.0941 33.1413 28.9806 33.0871 28.877C33.0329 28.7734 32.9585 28.6817 32.8683 28.6073C32.778 28.5329 32.6738 28.4774 32.5617 28.444C32.4496 28.4106 32.332 28.4 32.2157 28.4128C32.0995 28.4257 31.987 28.4617 31.8849 28.5187C31.7829 28.5758 31.6932 28.6527 31.6214 28.745C31.2728 29.0983 30.8535 29.3739 30.391 29.5537C29.9284 29.7335 29.4331 29.8136 28.9374 29.7885C28.4416 29.8135 27.9462 29.7335 27.4835 29.5535C27.0209 29.3736 26.6015 29.0979 26.2529 28.7445C26.181 28.6522 26.0914 28.5753 25.9893 28.5182C25.8873 28.4612 25.7748 28.4252 25.6585 28.4123C25.5423 28.3995 25.4247 28.4101 25.3126 28.4435C25.2005 28.4769 25.0963 28.5324 25.006 28.6068C24.9158 28.6812 24.8414 28.7729 24.7872 28.8765C24.733 28.9801 24.7001 29.0936 24.6905 29.2101C24.6808 29.3266 24.6947 29.4439 24.7312 29.555C24.7677 29.6662 24.8261 29.7688 24.9029 29.857C25.4136 30.4125 26.0387 30.8505 26.7352 31.1408C27.4317 31.4311 28.1829 31.5668 28.9369 31.5385Z" fill="#D63E45"/>
<path d="M33.6875 5.625H24.3125C24.1976 5.62493 24.0838 5.64752 23.9776 5.69147C23.8714 5.73542 23.7749 5.79987 23.6936 5.88114C23.6124 5.9624 23.5479 6.05888 23.504 6.16507C23.46 6.27126 23.4374 6.38507 23.4375 6.5V11.625C23.4374 11.7399 23.46 11.8537 23.504 11.9599C23.5479 12.0661 23.6124 12.1626 23.6936 12.2439C23.7749 12.3251 23.8714 12.3896 23.9776 12.4335C24.0838 12.4775 24.1976 12.5001 24.3125 12.5H33.6875C33.8024 12.5001 33.9162 12.4775 34.0224 12.4335C34.1286 12.3896 34.2251 12.3251 34.3064 12.2439C34.3876 12.1626 34.4521 12.0661 34.496 11.9599C34.54 11.8537 34.5626 11.7399 34.5625 11.625V6.5C34.5626 6.38507 34.54 6.27126 34.496 6.16507C34.4521 6.05888 34.3876 5.9624 34.3064 5.88114C34.2251 5.79987 34.1286 5.73542 34.0224 5.69147C33.9162 5.64752 33.8024 5.62493 33.6875 5.625ZM32.8125 10.75H25.1875V7.375H32.8125V10.75Z" fill="#D63E45"/>
<path d="M48.8573 43.641C46.7643 43.1025 44.6073 43.041 42.4798 42.852C41.6418 42.7885 40.8503 42.7285 40.0458 42.625C38.4113 42.4345 37.1153 41.725 36.9613 40.225L36.4748 36.42C38.046 35.1538 39.2689 33.5085 40.0283 31.639C40.5421 30.2448 40.9223 28.805 41.1638 27.339C41.1883 27.2155 41.2138 27.095 41.2388 26.9725C41.468 27.0129 41.7001 27.0341 41.9328 27.036C42.8711 27.0372 43.7839 26.7312 44.532 26.1649C45.28 25.5985 45.8222 24.8029 46.0756 23.8995C46.329 22.9961 46.2797 22.0345 45.9353 21.1618C45.5909 20.289 44.9703 19.5529 44.1683 19.066C44.659 18.7209 45.0271 18.2285 45.2189 17.6601C45.4108 17.0917 45.4166 16.477 45.2354 15.9051C45.0542 15.3333 44.6955 14.834 44.2113 14.4798C43.7272 14.1256 43.1427 13.935 42.5428 13.9355H42.4668V6.65898C42.4645 5.53155 42.0725 4.43958 41.3572 3.56814C40.6418 2.69671 39.6472 2.09941 38.5418 1.87748L29.1703 0.0149785C29.0578 -0.00751563 28.9419 -0.00751563 28.8293 0.0149785L19.4578 1.87748C18.3523 2.09922 17.3575 2.69645 16.642 3.56792C15.9266 4.43938 15.5345 5.53145 15.5323 6.65898V13.9375H15.4568C14.863 13.9368 14.2841 14.1236 13.8027 14.4711C13.3212 14.8186 12.9617 15.3092 12.7753 15.873C12.5889 16.4368 12.5852 17.0451 12.7647 17.6111C12.9441 18.1771 13.2976 18.6721 13.7748 19.0255C12.9595 19.502 12.3237 20.2336 11.9656 21.1073C11.6075 21.9811 11.547 22.9485 11.7934 23.8601C12.0399 24.7717 12.5795 25.5768 13.3291 26.1512C14.0787 26.7255 14.9965 27.0372 15.9408 27.038C16.2149 27.0365 16.4882 27.0083 16.7568 26.954C16.7828 27.0835 16.8098 27.2105 16.8358 27.341C17.0776 28.807 17.458 30.2468 17.9718 31.641C18.7312 33.5101 19.954 35.155 21.5248 36.421L21.0453 40.1735C20.9368 40.6082 20.7521 41.0202 20.4998 41.3905V41.3905C20.2898 41.7004 20.0189 41.9643 19.7034 42.166C19.388 42.3677 19.0348 42.5029 18.6653 42.5635C17.3728 42.6895 16.0653 42.7825 14.7198 42.876C12.8409 42.9444 10.9734 43.2001 9.14531 43.6395C6.57676 44.3463 4.31071 45.8757 2.69424 47.9933C1.07776 50.1109 0.199976 52.6999 0.195313 55.364V63.122C0.195247 63.2369 0.217835 63.3507 0.261784 63.4569C0.305734 63.5631 0.370183 63.6596 0.451448 63.7408C0.532712 63.8221 0.629197 63.8866 0.735387 63.9305C0.841577 63.9744 0.955387 63.997 1.07031 63.997H56.9293C57.0442 63.997 57.1581 63.9744 57.2642 63.9305C57.3704 63.8866 57.4669 63.8221 57.5482 63.7408C57.6294 63.6596 57.6939 63.5631 57.7378 63.4569C57.7818 63.3507 57.8044 63.2369 57.8043 63.122V55.364C57.7995 52.7006 56.922 50.1121 55.3061 47.9949C53.6903 45.8777 51.4251 44.3483 48.8573 43.641V43.641ZM43.8748 44.721C45.132 44.794 46.384 44.9386 47.6248 45.154V53.4375H43.8748V44.721ZM20.2763 43.85C20.6998 43.6332 21.0856 43.3496 21.4188 43.01L27.4828 46.455L24.4328 49.058L20.2763 43.85ZM30.5168 46.455L36.5133 43.05C36.8825 43.3701 37.3013 43.628 37.7533 43.8135L33.5673 49.06L30.5168 46.455ZM41.9328 25.288C41.8211 25.2879 41.7095 25.28 41.5988 25.2645C41.8958 23.854 42.4733 21.6695 42.4648 20.24C43.0877 20.3649 43.6415 20.7179 44.0178 21.2298C44.3941 21.7416 44.5657 22.3755 44.4992 23.0073C44.4326 23.6391 44.1326 24.2233 43.6579 24.6455C43.1833 25.0677 42.5681 25.2976 41.9328 25.29V25.288ZM17.2828 6.65898C17.2842 5.93617 17.5356 5.2361 17.9944 4.67754C18.4532 4.11897 19.0911 3.73632 19.7998 3.59448L28.9998 1.76548L38.1998 3.59448C38.9083 3.73661 39.5459 4.11938 40.0045 4.6779C40.463 5.23642 40.7144 5.93633 40.7158 6.65898V13.9375H17.2823L17.2828 6.65898ZM15.4568 15.6875H42.5428C42.8279 15.6875 43.1014 15.8007 43.303 16.0023C43.5046 16.2039 43.6178 16.4774 43.6178 16.7625C43.6178 17.0476 43.5046 17.321 43.303 17.5226C43.1014 17.7242 42.8279 17.8375 42.5428 17.8375H15.4568C15.1717 17.8375 14.8983 17.7242 14.6967 17.5226C14.4951 17.321 14.3818 17.0476 14.3818 16.7625C14.3818 16.4774 14.4951 16.2039 14.6967 16.0023C14.8983 15.8007 15.1717 15.6875 15.4568 15.6875V15.6875ZM15.9408 25.2875C15.2956 25.2938 14.672 25.0552 14.1957 24.6199C13.7195 24.1847 13.4259 23.585 13.3742 22.9419C13.3225 22.2987 13.5166 21.6599 13.9172 21.1541C14.3179 20.6484 14.8954 20.3133 15.5333 20.2165C15.5478 21.854 16.0693 23.6445 16.3958 25.246C16.2458 25.274 16.0935 25.2881 15.9408 25.288V25.2875ZM19.5933 30.9815C19.1238 29.6894 18.7753 28.3565 18.5523 27C18.1523 24.595 17.2243 22.0395 17.2823 19.5845H21.4073C21.3516 19.8862 21.363 20.1965 21.4406 20.4933C21.5182 20.7902 21.6602 21.0663 21.8565 21.3021C22.0528 21.5379 22.2985 21.7277 22.5764 21.8579C22.8542 21.9881 23.1572 22.0557 23.4641 22.0557C23.7709 22.0557 24.0739 21.9881 24.3518 21.8579C24.6296 21.7277 24.8753 21.5379 25.0716 21.3021C25.2679 21.0663 25.4099 20.7902 25.4875 20.4933C25.5651 20.1965 25.5765 19.8862 25.5208 19.5845H32.4788C32.4231 19.8862 32.4345 20.1965 32.5121 20.4933C32.5897 20.7902 32.7317 21.0663 32.928 21.3021C33.1243 21.5379 33.37 21.7277 33.6479 21.8579C33.9257 21.9881 34.2287 22.0557 34.5356 22.0557C34.8424 22.0557 35.1454 21.9881 35.4233 21.8579C35.7011 21.7277 35.9468 21.5379 36.1431 21.3021C36.3394 21.0663 36.4814 20.7902 36.559 20.4933C36.6366 20.1965 36.648 19.8862 36.5923 19.5845H40.7168C40.7773 22.044 39.8453 24.5925 39.4468 27C39.2243 28.3556 38.876 29.6875 38.4063 30.9785C37.7137 32.6836 36.5694 34.1677 35.0963 35.271C33.3361 36.5872 31.1972 37.2985 28.9993 37.2985C26.8014 37.2985 24.6625 36.5872 22.9023 35.271C21.4304 34.1682 20.2865 32.6855 19.5933 30.982V30.9815ZM25.2218 38.4355C26.1733 38.7491 27.1597 38.945 28.1588 39.019C30.487 39.1787 32.8114 38.659 34.8498 37.523L35.2233 40.4455C35.2752 40.8395 35.3833 41.2241 35.5443 41.5875L28.9998 45.306L22.4048 41.56C22.57 41.2035 22.6941 40.8295 22.7748 40.445L23.1478 37.523C23.8084 37.8927 24.5029 38.1982 25.2218 38.4355ZM17.9998 44.373C18.1498 44.373 18.2938 44.367 18.4383 44.3555L23.6278 50.8585C23.7018 50.9488 23.7929 51.0236 23.8959 51.0785C23.9989 51.1334 24.1117 51.1674 24.2279 51.1785C24.3441 51.1896 24.4614 51.1776 24.5729 51.1432C24.6845 51.1088 24.7881 51.0526 24.8778 50.978L28.9998 47.463L33.1193 50.978C33.209 51.0526 33.3127 51.1088 33.4242 51.1432C33.5357 51.1776 33.653 51.1896 33.7692 51.1785C33.8854 51.1674 33.9982 51.1334 34.1012 51.0785C34.2042 51.0236 34.2954 50.9488 34.3693 50.8585L39.5858 44.3245C39.6628 44.3375 39.7358 44.3485 39.8093 44.359C40.5958 44.459 41.3703 44.5215 42.1248 44.579V53.4375H15.8748V44.55C16.5998 44.5 17.3118 44.441 17.9998 44.373ZM10.3748 45.1445C11.6124 44.9006 12.8654 44.7427 14.1248 44.672V53.4375H10.3748V45.1445ZM1.94531 55.364C1.94988 53.261 2.59021 51.2085 3.78226 49.476C4.97431 47.7435 6.66235 46.4119 8.62481 45.656V62.247H1.94531V55.364ZM14.3748 62.247V59.1875H43.6248V62.247H14.3748ZM45.3748 62.247V58.3125C45.3749 58.1975 45.3523 58.0837 45.3083 57.9775C45.2644 57.8714 45.1999 57.7749 45.1187 57.6936C45.0374 57.6123 44.9409 57.5479 44.8347 57.5039C44.7286 57.46 44.6147 57.4374 44.4998 57.4375H13.4998C13.3849 57.4374 13.2711 57.46 13.1649 57.5039C13.0587 57.5479 12.9622 57.6123 12.8809 57.6936C12.7997 57.7749 12.7352 57.8714 12.6913 57.9775C12.6473 58.0837 12.6247 58.1975 12.6248 58.3125V62.247H10.3748V55.1875H47.6248V62.247H45.3748ZM56.0543 62.247H49.3748V45.6565C51.3372 46.4123 53.0253 47.7438 54.2173 49.4762C55.4094 51.2087 56.0497 53.261 56.0543 55.364V62.247Z" fill="#D63E45"/>
</svg>
