<svg width="64" height="62" viewBox="0 0 64 62" fill="none" xmlns="http://www.w3.org/2000/svg">
<path fill-rule="evenodd" clip-rule="evenodd" d="M63.77 49.82C63.06 47.82 60.77 46.32 57.1 47.2C58.6544 44.8742 59.5682 42.1796 59.7491 39.3881C59.93 36.5965 59.3716 33.8065 58.1303 31.2996C56.889 28.7926 55.0086 26.6573 52.6788 25.1088C50.349 23.5604 47.6521 22.6537 44.86 22.48V13.83L53.01 13.73C54.1261 13.7457 55.2337 13.5338 56.2652 13.1075C57.2968 12.6811 58.2307 12.0491 59.01 11.25C61.09 9 62.16 5.49 62.06 1C62.06 0.734784 61.9546 0.48043 61.7671 0.292893C61.5796 0.105357 61.3252 0 61.06 0L54.69 0C51.74 0 47.58 0.28 45 2.84C43.8824 4.0289 43.1806 5.54828 43 7.17C42.7865 6.88637 42.5561 6.61588 42.31 6.36C39.31 3.25 34.31 2.65 30.72 2.62H22.92C22.6548 2.62 22.4004 2.72536 22.2129 2.91289C22.0254 3.10043 21.92 3.35478 21.92 3.62C21.8 9.07 23.08 13.36 25.65 16.02C26.576 16.9761 27.686 17.7348 28.9131 18.2504C30.1402 18.766 31.459 19.0278 32.79 19.02L42.88 19.16V22.51C40.6827 22.6377 38.536 23.2213 36.5765 24.2237C34.617 25.2262 32.8876 26.6255 31.4984 28.3327C30.1091 30.0398 29.0904 32.0175 28.5071 34.1398C27.9237 36.2621 27.7885 38.4826 28.11 40.66C26.4156 40.4917 24.7051 40.7141 23.11 41.31L12.5 44.41C12.222 43.8097 11.7772 43.302 11.2187 42.9474C10.6602 42.5928 10.0115 42.4063 9.35 42.41H3.45C2.54438 42.4125 1.67584 42.7699 1.03081 43.4056C0.385787 44.0413 0.015701 44.9045 0 45.81L0 57.27C-3.82536e-06 58.1859 0.363158 59.0645 1.00987 59.7131C1.65659 60.3617 2.53408 60.7274 3.45 60.73H9.35C10.0519 60.727 10.7362 60.5101 11.3115 60.108C11.8868 59.706 12.3259 59.1381 12.57 58.48L44.36 61.32H44.45C44.566 61.3199 44.681 61.2996 44.79 61.26L60.84 55.4C61.3993 55.2267 61.9188 54.9448 62.3689 54.5704C62.8191 54.196 63.1909 53.7364 63.4631 53.2181C63.7352 52.6997 63.9025 52.1327 63.9551 51.5496C64.0078 50.9665 63.9449 50.3787 63.77 49.82ZM44.86 9C44.7903 8.14875 44.8963 7.29226 45.1716 6.48373C45.4468 5.6752 45.8854 4.9319 46.46 4.3C48.44 2.25 52 2 54.58 2H60.06C60 5.5 59.13 8.2 57.52 9.86C56.9335 10.4629 56.2301 10.9397 55.4529 11.2612C54.6757 11.5828 53.841 11.7423 53 11.73L44.88 11.83L44.86 9ZM10.8 57.27C10.8 57.6555 10.6476 58.0253 10.3759 58.2989C10.1043 58.5724 9.73548 58.7274 9.35 58.73H3.45C3.06452 58.7274 2.69573 58.5724 2.42408 58.2989C2.15244 58.0253 1.99999 57.6555 2 57.27V45.81C2.00262 45.4262 2.15623 45.059 2.42759 44.7876C2.69895 44.5162 3.06625 44.3626 3.45 44.36H9.35C9.73376 44.3626 10.101 44.5162 10.3724 44.7876C10.6438 45.059 10.7974 45.4262 10.8 45.81V57.27ZM42.8 17.12L32.8 16.98C31.7343 16.999 30.6761 16.7994 29.6906 16.3935C28.7051 15.9876 27.8132 15.384 27.07 14.62C25.07 12.5 23.94 9.06 23.89 4.62H30.78C34.01 4.62 38.35 5.17 40.85 7.75C41.5792 8.55806 42.1333 9.50826 42.4775 10.5408C42.8217 11.5734 42.9485 12.666 42.85 13.75L42.8 17.12ZM43.8 24.42C46.5415 24.4102 49.2248 25.2107 51.5127 26.721C53.8007 28.2313 55.5914 30.384 56.6599 32.9088C57.7283 35.4335 58.0269 38.2177 57.5181 40.9116C57.0092 43.6054 55.7157 46.0889 53.8 48.05L42.23 51C40.73 50.75 38.57 50.28 35.43 49.58C37.29 48.86 38.59 47.68 38.91 46.36C39.23 45.04 38.63 43.48 36.07 42.81L34.79 42.42C32.86 41.84 31.42 41.42 30.22 41.1C29.7937 39.0778 29.8264 36.9857 30.3157 34.9778C30.8049 32.9699 31.7383 31.0973 33.047 29.4978C34.3558 27.8983 36.0066 26.6128 37.8779 25.7357C39.7492 24.8587 41.7934 24.4125 43.86 24.43L43.8 24.42ZM60.1 53.52L44.32 59.31L12.8 56.49V46.4L23.64 43.23C27.13 42.17 27.8 42.38 34.22 44.32L35.53 44.72C36.02 44.85 37.13 45.22 36.97 45.87C36.64 47.22 33.19 49.05 28.54 48C28.2748 47.9417 27.9973 47.9911 27.7685 48.1373C27.5397 48.2836 27.3783 48.5148 27.32 48.78C27.2617 49.0452 27.3111 49.3228 27.4573 49.5515C27.6036 49.7803 27.8348 49.9417 28.1 50L31.24 50.71C36.72 51.95 40.03 52.71 42.12 53.04C42.252 53.0669 42.388 53.0669 42.52 53.04L56.68 49.4C59.85 48.33 61.47 49.32 61.88 50.49C61.9693 50.8019 61.9955 51.1285 61.9571 51.4506C61.9186 51.7728 61.8164 52.084 61.6562 52.3661C61.496 52.6483 61.2812 52.8956 61.0243 53.0938C60.7674 53.2919 60.4736 53.4368 60.16 53.52H60.1Z" fill="#008393"/>
<path fill-rule="evenodd" clip-rule="evenodd" d="M41.9951 33C41.9951 31.8954 42.8905 31 43.9951 31H45.9951C48.2043 31 49.9951 32.7909 49.9951 35V36C49.9951 38.2091 48.2043 40 45.9951 40H43.9951V41H46.9951C47.5474 41 47.9951 41.4477 47.9951 42C47.9951 42.5523 47.5474 43 46.9951 43H43.9951V45C43.9951 45.5523 43.5474 46 42.9951 46C42.4428 46 41.9951 45.5523 41.9951 45V43H40.9951C40.4428 43 39.9951 42.5523 39.9951 42C39.9951 41.4477 40.4428 41 40.9951 41H41.9951V40H40.9951C40.4428 40 39.9951 39.5523 39.9951 39C39.9951 38.4477 40.4428 38 40.9951 38H41.9951V37V33ZM43.9951 37V38H45.9951C47.0997 38 47.9951 37.1046 47.9951 36V35C47.9951 33.8954 47.0997 33 45.9951 33H44.9951C44.4428 33 43.9951 33.4477 43.9951 34V37Z" fill="#008393"/>
</svg>
