<svg width="62" height="58" viewBox="0 0 62 58" fill="none" xmlns="http://www.w3.org/2000/svg">
<path d="M50.713 50.6924C50.462 50.6924 50.211 50.5986 50.0177 50.4107L47.5304 48.0015C47.1329 47.6172 47.1232 46.9844 47.507 46.5874C47.8918 46.1899 48.5265 46.1816 48.9211 46.5649L50.6926 48.2807L55.425 43.4262C55.8098 43.0312 56.4445 43.0234 56.8391 43.4086C57.2346 43.7939 57.2424 44.4272 56.8567 44.8227L51.429 50.3906C51.2335 50.5913 50.9728 50.6924 50.713 50.6924Z" fill="#D63E45"/>
<path d="M27.6484 7.18256H39.6455C40.1982 7.18256 40.6455 6.73476 40.6455 6.18256C40.6455 5.63036 40.1982 5.18256 39.6455 5.18256H27.6484C27.0957 5.18256 26.6484 5.63036 26.6484 6.18256C26.6484 6.73476 27.0957 7.18256 27.6484 7.18256Z" fill="#D63E45"/>
<path d="M55.0908 37.1466V21.4521C55.0908 18.8442 52.9687 16.7221 50.3603 16.7221H47.709V5.45358C47.709 2.84518 45.586 0.723083 42.9756 0.723083H4.7305C2.1221 0.723083 0 2.84518 0 5.45358V29.6382C0 32.2486 2.1221 34.3721 4.7305 34.3721H7.3819V45.6372C7.3819 48.2471 9.5049 50.3706 12.1153 50.3706H41.8703C43.2993 54.3878 47.1288 57.2769 51.6299 57.2769C57.3477 57.2769 62 52.6265 62 46.9102C62 42.4069 59.1096 38.5759 55.0908 37.1466ZM53.0908 21.4521V25.644H9.3818V21.4521C9.3818 19.9467 10.6084 18.7221 12.1152 18.7221H50.3603C51.8662 18.7222 53.0908 19.9468 53.0908 21.4521ZM4.7305 2.72308H42.9756C44.4824 2.72308 45.709 3.94818 45.709 5.45358V9.64498H2V5.45358C2 3.94818 3.2246 2.72308 4.7305 2.72308ZM4.7305 32.3721C3.2246 32.3721 2 31.1455 2 29.6382V11.645H45.709V16.7221H12.1152C9.5048 16.7221 7.3818 18.8442 7.3818 21.4521V32.372H4.7305V32.3721ZM41.3716 48.3231C41.3725 48.3398 41.3629 48.3535 41.3653 48.3706H12.1153C10.6085 48.3706 9.3819 47.1445 9.3819 45.6372V27.644H53.0909V36.6425C53.0738 36.6401 53.0564 36.6484 53.0392 36.6473C52.577 36.5841 52.109 36.54 51.6299 36.54C45.9141 36.54 41.2637 41.1919 41.2637 46.9101C41.2637 47.3906 41.308 47.8599 41.3716 48.3231ZM51.6299 55.2769C47.0166 55.2769 43.2637 51.5235 43.2637 46.9102C43.2637 42.295 47.0166 38.5401 51.6299 38.5401C56.2451 38.54 60 42.2949 60 46.9102C60 51.5234 56.2451 55.2769 51.6299 55.2769Z" fill="#D63E45"/>
<path d="M34.0293 22.1812C34.0293 22.7334 34.4766 23.1812 35.0293 23.1812H47.0313C47.584 23.1812 48.0313 22.7334 48.0313 22.1812C48.0313 21.629 47.584 21.1812 47.0313 21.1812H35.0293C34.4766 21.1812 34.0293 21.6289 34.0293 22.1812Z" fill="#D63E45"/>
<path d="M8.32725 7.18256H8.33015C8.88285 7.18256 9.32915 6.73476 9.32915 6.18256C9.32915 5.63036 8.87995 5.18256 8.32715 5.18256C7.77435 5.18256 7.32715 5.63036 7.32715 6.18256C7.32715 6.73476 7.77455 7.18256 8.32725 7.18256Z" fill="#D63E45"/>
<path d="M25.3721 21.1812C24.8194 21.1812 24.3721 21.629 24.3721 22.1812C24.3721 22.7334 24.8194 23.1812 25.3721 23.1812H25.376C25.9287 23.1812 26.374 22.7334 26.374 22.1812C26.374 21.629 25.9248 21.1812 25.3721 21.1812Z" fill="#D63E45"/>
<path d="M20.5439 21.1812C19.9912 21.1812 19.5439 21.629 19.5439 22.1812C19.5439 22.7334 19.9912 23.1812 20.5439 23.1812H20.5468C21.0995 23.1812 21.5458 22.7334 21.5458 22.1812C21.5458 21.629 21.0967 21.1812 20.5439 21.1812Z" fill="#D63E45"/>
<path d="M15.7148 21.1812C15.1621 21.1812 14.7148 21.629 14.7148 22.1812C14.7148 22.7334 15.1621 23.1812 15.7148 23.1812H15.7187C16.2714 23.1812 16.7167 22.7334 16.7167 22.1812C16.7167 21.629 16.2676 21.1812 15.7148 21.1812Z" fill="#D63E45"/>
<path d="M13.3272 7.18256H13.3301C13.8828 7.18256 14.3291 6.73476 14.3291 6.18256C14.3291 5.63036 13.8799 5.18256 13.3271 5.18256C12.7743 5.18256 12.3271 5.63036 12.3271 6.18256C12.3271 6.73476 12.7745 7.18256 13.3272 7.18256Z" fill="#D63E45"/>
<path d="M18.3272 7.18256H18.3301C18.8828 7.18256 19.3291 6.73476 19.3291 6.18256C19.3291 5.63036 18.8799 5.18256 18.3271 5.18256C17.7743 5.18256 17.3271 5.63036 17.3271 6.18256C17.3271 6.73476 17.7745 7.18256 18.3272 7.18256Z" fill="#D63E45"/>
</svg>
