<svg width="61" height="62" viewBox="0 0 61 62" fill="none" xmlns="http://www.w3.org/2000/svg">
<path d="M17.7271 12.0747C19.711 12.0747 21.3248 10.4609 21.3248 8.47752C21.3248 6.49362 19.711 4.87982 17.7271 4.87982C15.7437 4.87982 14.1299 6.49362 14.1299 8.47752C14.1299 10.4609 15.7437 12.0747 17.7271 12.0747ZM17.7271 6.87992C18.608 6.87992 19.3248 7.59672 19.3248 8.47762C19.3248 9.35852 18.608 10.0748 17.7271 10.0748C16.8462 10.0748 16.1299 9.35852 16.1299 8.47762C16.1299 7.59672 16.8462 6.87992 17.7271 6.87992Z" fill="#D63E45"/>
<path d="M17.7271 19.8311C15.7437 19.8311 14.1299 21.4449 14.1299 23.4288C14.1299 25.4122 15.7437 27.026 17.7271 27.026C19.711 27.026 21.3248 25.4122 21.3248 23.4288C21.3247 21.4448 19.7109 19.8311 17.7271 19.8311ZM17.7271 25.0259C16.8462 25.0259 16.1299 24.3096 16.1299 23.4287C16.1299 22.5478 16.8462 21.831 17.7271 21.831C18.608 21.831 19.3248 22.5478 19.3248 23.4287C19.3248 24.3096 18.6079 25.0259 17.7271 25.0259Z" fill="#D63E45"/>
<path d="M57.4912 39.1147H47.7632V38.6054C47.7632 36.4247 45.9693 34.0707 43.0708 34.0707H31.498V31.9057H49.4907C51.5102 31.9057 53.1528 30.2646 53.1528 28.247V18.6137C53.1528 17.5635 52.7026 16.6218 51.9922 15.9534C52.7026 15.2857 53.1528 14.3451 53.1528 13.2959V3.6592C53.1528 1.6416 51.5103 0 49.4907 0H11.5093C9.48982 0 7.84722 1.6416 7.84722 3.6592V13.2959C7.84722 14.3451 8.29742 15.2857 9.00782 15.9534C8.29742 16.6219 7.84722 17.5635 7.84722 18.6137V28.247C7.84722 30.2646 9.48982 31.9057 11.5093 31.9057H29.498V34.0707H19.0791C16.1807 34.0707 14.3867 36.4247 14.3867 38.6054V39.1147H3.50882C1.96882 39.1147 0.71582 40.3676 0.71582 41.9082V54.6313C0.71582 56.1718 1.96872 57.4248 3.50882 57.4248H10.3677L9.33732 60H7.32422C6.77202 60 6.32422 60.4478 6.32422 61C6.32422 61.5522 6.77202 62 7.32422 62H10.0112C10.0121 62 10.0128 62.0005 10.0137 62.0005C10.0148 62.0005 10.0159 62 10.017 62H18.4601C18.4612 62 18.4623 62.0005 18.4634 62.0005C18.4643 62.0005 18.465 62 18.4659 62H21.1529C21.7051 62 22.1529 61.5522 22.1529 61C22.1529 60.4478 21.7051 60 21.1529 60H19.1395L18.1072 57.4248H24.9683C26.5083 57.4248 27.7613 56.1719 27.7613 54.6313V41.9082C27.7613 40.3677 26.5084 39.1147 24.9683 39.1147H16.3868V38.6054C16.3868 37.3866 17.4161 36.0707 19.0792 36.0707H43.0709C44.734 36.0707 45.7633 37.3866 45.7633 38.6054V39.1147H36.0319C34.4919 39.1147 33.2389 40.3676 33.2389 41.9082V54.6313C33.2389 56.1718 34.4918 57.4248 36.0319 57.4248H42.8908L41.8603 60H39.8472C39.295 60 38.8472 60.4478 38.8472 61C38.8472 61.5522 39.295 62 39.8472 62H42.5342C42.5351 62 42.5358 62.0005 42.5367 62.0005C42.5378 62.0005 42.5389 62 42.54 62H50.9831C50.9842 62 50.9853 62.0005 50.9864 62.0005C50.9873 62.0005 50.988 62 50.9889 62H53.6759C54.2281 62 54.6759 61.5522 54.6759 61C54.6759 60.4478 54.2281 60 53.6759 60H51.6628L50.6324 57.4248H57.4913C59.0313 57.4248 60.2843 56.1719 60.2843 54.6313V41.9082C60.2842 40.3677 59.0313 39.1147 57.4912 39.1147ZM9.84722 13.2959V3.6592C9.84722 2.7441 10.5928 2 11.5093 2H49.4907C50.4072 2 51.1528 2.7441 51.1528 3.6592V13.2959C51.1528 14.2047 50.4161 14.9435 49.5076 14.9529C49.5018 14.9529 49.4965 14.9512 49.4907 14.9512H11.5093C11.5035 14.9512 11.4982 14.9529 11.4924 14.9529C10.5839 14.9435 9.84722 14.2047 9.84722 13.2959ZM9.84722 28.2471V18.6138C9.84722 17.7026 10.5839 16.9622 11.4924 16.9529C11.4982 16.9529 11.5035 16.9546 11.5093 16.9546C11.5153 16.9546 11.5202 16.9513 11.5262 16.9512H49.4738C49.4798 16.9513 49.4847 16.9546 49.4907 16.9546C49.4965 16.9546 49.5018 16.9529 49.5076 16.9529C50.4161 16.9622 51.1528 17.7026 51.1528 18.6138V28.2471C51.1528 29.1617 50.4072 29.9058 49.4907 29.9058H11.5093C10.5928 29.9058 9.84722 29.1616 9.84722 28.2471ZM16.9847 60H11.4912L12.5216 57.4248H15.9524L16.9847 60ZM24.9683 55.4248H3.50882C3.07182 55.4248 2.71582 55.0688 2.71582 54.6313V53.6875H25.7612V54.6313C25.7612 55.0688 25.4053 55.4248 24.9683 55.4248ZM25.7612 41.9082V51.6875H2.71582V41.9082C2.71582 41.4707 3.07182 41.1147 3.50882 41.1147H24.9683C25.4053 41.1147 25.7612 41.4707 25.7612 41.9082ZM36.0317 41.1147H57.4912C57.9282 41.1147 58.2842 41.4707 58.2842 41.9082V51.6875H35.2388V41.9082C35.2388 41.4707 35.5947 41.1147 36.0317 41.1147ZM49.5089 60H44.0141L45.0445 57.4248H48.4785L49.5089 60ZM57.4912 55.4248H36.0317C35.5947 55.4248 35.2387 55.0688 35.2387 54.6313V53.6875H58.2841V54.6313C58.2842 55.0688 57.9282 55.4248 57.4912 55.4248Z" fill="#D63E45"/>
<path d="M35.0811 12.9644C35.6333 12.9644 36.0811 12.5166 36.0811 11.9644V4.99017C36.0811 4.43797 35.6333 3.99017 35.0811 3.99017C34.5289 3.99017 34.0811 4.43797 34.0811 4.99017V11.9643C34.0811 12.5166 34.5288 12.9644 35.0811 12.9644Z" fill="#D63E45"/>
<path d="M40.0664 12.9644C40.6186 12.9644 41.0664 12.5166 41.0664 11.9644V4.99017C41.0664 4.43797 40.6186 3.99017 40.0664 3.99017C39.5142 3.99017 39.0664 4.43797 39.0664 4.99017V11.9643C39.0664 12.5166 39.5142 12.9644 40.0664 12.9644Z" fill="#D63E45"/>
<path d="M45.0488 12.9644C45.601 12.9644 46.0488 12.5166 46.0488 11.9644V4.99017C46.0488 4.43797 45.601 3.99017 45.0488 3.99017C44.4966 3.99017 44.0488 4.43797 44.0488 4.99017V11.9643C44.0488 12.5166 44.4966 12.9644 45.0488 12.9644Z" fill="#D63E45"/>
<path d="M30.252 12.9644C30.8042 12.9644 31.252 12.5166 31.252 11.9644V4.99017C31.252 4.43797 30.8042 3.99017 30.252 3.99017C29.6998 3.99017 29.252 4.43797 29.252 4.99017V11.9643C29.252 12.5166 29.6997 12.9644 30.252 12.9644Z" fill="#D63E45"/>
<path d="M35.0811 27.9155C35.6333 27.9155 36.0811 27.4677 36.0811 26.9155V19.9414C36.0811 19.3892 35.6333 18.9414 35.0811 18.9414C34.5289 18.9414 34.0811 19.3892 34.0811 19.9414V26.9155C34.0811 27.4678 34.5288 27.9155 35.0811 27.9155Z" fill="#D63E45"/>
<path d="M40.0664 27.9155C40.6186 27.9155 41.0664 27.4677 41.0664 26.9155V19.9414C41.0664 19.3892 40.6186 18.9414 40.0664 18.9414C39.5142 18.9414 39.0664 19.3892 39.0664 19.9414V26.9155C39.0664 27.4678 39.5142 27.9155 40.0664 27.9155Z" fill="#D63E45"/>
<path d="M45.0488 27.9155C45.601 27.9155 46.0488 27.4677 46.0488 26.9155V19.9414C46.0488 19.3892 45.601 18.9414 45.0488 18.9414C44.4966 18.9414 44.0488 19.3892 44.0488 19.9414V26.9155C44.0488 27.4678 44.4966 27.9155 45.0488 27.9155Z" fill="#D63E45"/>
<path d="M31.252 26.9155V19.9414C31.252 19.3892 30.8042 18.9414 30.252 18.9414C29.6998 18.9414 29.252 19.3892 29.252 19.9414V26.9155C29.252 27.4677 29.6998 27.9155 30.252 27.9155C30.8042 27.9155 31.252 27.4678 31.252 26.9155Z" fill="#D63E45"/>
</svg>
