<svg width="1866" height="594" viewBox="0 0 1866 594" fill="none" xmlns="http://www.w3.org/2000/svg">
<path fill-rule="evenodd" clip-rule="evenodd" d="M0 264L23.8333 319C45.8333 374 91.6667 484 137.5 517C183.333 550 229.167 506 275 473C320.833 440 366.667 418 412.5 418C458.333 418 504.167 440 550 407C595.833 374 641.667 286 687.5 253C733.333 220 779.167 242 825 275C870.833 308 916.667 352 962.5 319C1008.33 286 1054.17 176 1100 110C1145.83 44 1191.67 22 1237.5 44C1283.33 66 1329.17 132 1375 198C1420.83 264 1466.67 330 1512.5 396C1558.33 462 1604.17 528 1650 484C1695.83 440 1741.67 286 1787.5 253C1833.33 220 1879.17 308 1925 385C1970.83 462 2016.67 528 2062.5 462C2108.33 396 2154.17 198 2178 99L2200 0V594H2178C2154.17 594 2108.33 594 2062.5 594C2016.67 594 1970.83 594 1925 594C1879.17 594 1833.33 594 1787.5 594C1741.67 594 1695.83 594 1650 594C1604.17 594 1558.33 594 1512.5 594C1466.67 594 1420.83 594 1375 594C1329.17 594 1283.33 594 1237.5 594C1191.67 594 1145.83 594 1100 594C1054.17 594 1008.33 594 962.5 594C916.667 594 870.833 594 825 594C779.167 594 733.333 594 687.5 594C641.667 594 595.833 594 550 594C504.167 594 458.333 594 412.5 594C366.667 594 320.833 594 275 594C229.167 594 183.333 594 137.5 594C91.6667 594 45.8333 594 23.8333 594H0V264Z" fill="#CFEDF1"/>
</svg>
