<svg width="62" height="62" viewBox="0 0 62 62" fill="none" xmlns="http://www.w3.org/2000/svg">
<path d="M54.6357 5.47949H45.9531C45.4004 5.47949 44.9531 5.92729 44.9531 6.47949C44.9531 7.03169 45.4004 7.47949 45.9531 7.47949H54.6357C55.1884 7.47949 55.6357 7.03169 55.6357 6.47949C55.6357 5.92729 55.1885 5.47949 54.6357 5.47949Z" fill="#D63E45"/>
<path d="M41.8633 5.47949H41.8604C41.3077 5.47949 40.8624 5.92729 40.8624 6.47949C40.8624 7.03169 41.3106 7.47949 41.8634 7.47949C42.4162 7.47949 42.8634 7.03169 42.8634 6.47949C42.8634 5.92729 42.416 5.47949 41.8633 5.47949Z" fill="#D63E45"/>
<path d="M60.5391 52.1397V42.5342C60.5391 41.0654 59.3418 39.8701 57.8711 39.8701H51.1533V35.8388C51.1533 34.2763 50.2129 33.3437 48.6377 33.3437H44.4542C45.006 32.3916 45.3272 31.29 45.3272 30.1127C45.3272 28.1269 44.406 26.285 42.8965 25.0727H54.791C56.3672 25.0727 57.3076 24.1396 57.3076 22.5771V12.2549H59.498C60.7793 12.2549 61.8212 11.2129 61.8212 9.93209V3.02689C61.8212 1.74559 60.7792 0.703694 59.498 0.703694H38.0361C36.7548 0.703694 35.7129 1.74569 35.7129 3.02689V9.93219C35.7129 11.213 36.7549 12.255 38.0361 12.255H55.3076V22.5773C55.3076 23.0045 55.2724 23.0729 54.791 23.0729H42.4467C42.2058 21.0357 40.4881 19.4445 38.3868 19.4445C37.9415 19.4445 37.503 19.5163 37.085 19.6559C35.5254 17.5954 33.0635 16.3468 30.4659 16.3468C26.429 16.3468 23.063 19.2475 22.3272 23.0729H9.207C8.7265 23.0729 8.6914 23.0045 8.6914 22.5773V21.3778C12.1656 21.2207 15.3857 20.2366 15.3857 18.2463V3.15769C15.3857 0.979495 11.5214 0.00439453 7.6914 0.00439453C3.8633 0.00439453 0 0.979495 0 3.15769V18.2461C0 20.2364 3.219 21.2204 6.6914 21.3776V22.5772C6.6914 24.1397 7.6318 25.0728 9.207 25.0728H18.0263C16.5518 26.2601 15.6045 28.0769 15.6045 30.1128C15.6045 31.29 15.9257 32.3916 16.4775 33.3438H13.1182C11.542 33.3438 10.6016 34.2764 10.6016 35.8389V38.1993H3.3291C1.7402 38.1993 0.4482 39.4913 0.4482 41.0802V54.4454C0.4482 56.0362 1.7402 57.3302 3.3291 57.3302H10.3101L9.2411 59.9962H7.1709C6.6182 59.9962 6.1709 60.4435 6.1709 60.9962C6.1709 61.5489 6.6182 61.9962 7.1709 61.9962H21.291C21.8437 61.9962 22.291 61.5489 22.291 60.9962C22.291 60.4435 21.8437 59.9962 21.291 59.9962H19.2208L18.1518 57.3302H25.1318C26.7207 57.3302 28.0136 56.0363 28.0136 54.4454V41.0801C28.0136 39.4912 26.7206 38.1992 25.1318 38.1992H12.6016V35.8388C12.6016 35.412 12.6368 35.3437 13.1182 35.3437H18.282C19.3495 36.1201 20.6582 36.5839 22.0762 36.5839H38.8555C40.2735 36.5839 41.5822 36.1201 42.6497 35.3437H48.6377C49.1211 35.3437 49.1533 35.4062 49.1533 35.8388V39.8701H40.7676C39.2969 39.8701 38.1006 41.0654 38.1006 42.5342V52.1397C37.2416 52.524 36.6397 53.3831 36.6397 54.3838V55.9238C36.6397 57.2822 37.7432 58.3877 39.1006 58.3877H59.5391C60.8965 58.3877 62 57.2822 62 55.9238V54.3838C62 53.3831 61.3981 52.524 60.5391 52.1397ZM37.7129 9.93209V3.02689C37.7129 2.85159 37.8613 2.70369 38.0361 2.70369H59.498C59.6728 2.70369 59.8212 2.85159 59.8212 3.02689V9.93219C59.8212 10.107 59.6728 10.255 59.498 10.255H38.0361C37.8613 10.2549 37.7129 10.1069 37.7129 9.93209ZM2 18.174V15.4494C3.4779 16.076 5.588 16.3726 7.6914 16.3726C9.7961 16.3726 11.9073 16.076 13.3857 15.4492V18.1736C13.0946 18.5599 11.163 19.4029 7.6914 19.4029C4.2208 19.4028 2.2911 18.5598 2 18.174ZM13.3857 8.11589C13.0936 8.50219 11.162 9.34519 7.6914 9.34519C4.2217 9.34519 2.2911 8.50219 2 8.11589V5.39069C3.4779 6.01809 5.588 6.31489 7.6914 6.31489C9.7961 6.31489 11.9073 6.01799 13.3857 5.39049V8.11589ZM7.6914 11.3452C9.7961 11.3452 11.9073 11.0483 13.3857 10.4209V13.1451C13.0916 13.5308 11.1591 14.3725 7.6914 14.3725C4.2256 14.3725 2.2931 13.5308 2 13.1451V10.4211C3.4779 11.0484 5.588 11.3452 7.6914 11.3452ZM7.6914 2.00439C10.9414 2.00439 12.8477 2.74759 13.3144 3.15869C12.8496 3.57029 10.9443 4.31499 7.6914 4.31499C4.4385 4.31499 2.5352 3.57029 2.0713 3.15869C2.5361 2.74759 4.4414 2.00439 7.6914 2.00439ZM17.067 59.9961H11.395L12.464 57.3301H15.9979L17.067 59.9961ZM25.1318 55.3301H3.3291C2.8437 55.3301 2.4482 54.9336 2.4482 54.4453V53.7295H26.0136V54.4453C26.0137 54.9336 25.6182 55.3301 25.1318 55.3301ZM26.0137 41.0801V51.7295H2.4482V41.0801C2.4482 40.5947 2.8437 40.1992 3.3291 40.1992H25.1318C25.6094 40.1992 26.0137 40.6025 26.0137 41.0801ZM22.0762 34.584C19.6104 34.584 17.6045 32.5781 17.6045 30.1128C17.6045 27.647 19.6104 25.6411 22.0762 25.6411H23.1719C23.7246 25.6411 24.1719 25.1933 24.1719 24.6411C24.1719 21.1704 26.9951 18.3467 30.4658 18.3467C32.666 18.3467 34.7383 19.5293 35.875 21.4326C36.0127 21.6636 36.2373 21.8291 36.499 21.8921C36.7617 21.9556 37.0361 21.9102 37.2646 21.7671C37.6015 21.5562 37.9892 21.4443 38.3867 21.4443C39.5488 21.4443 40.4951 22.3901 40.4951 23.5522C40.4951 23.9228 40.3955 24.2876 40.208 24.6079C40.0644 24.853 40.0322 25.1484 40.1191 25.4189C40.206 25.6899 40.4043 25.9106 40.664 26.0263C42.2822 26.748 43.3271 28.352 43.3271 30.1127C43.3271 32.578 41.3212 34.5839 38.8554 34.5839L22.0762 34.584ZM40.7676 41.8701H57.8711C58.2393 41.8701 58.5391 42.168 58.5391 42.5342V51.9229H40.1006V42.5342C40.1006 42.168 40.3994 41.8701 40.7676 41.8701ZM60 55.9238C60 56.1748 59.7891 56.3877 59.5391 56.3877H39.1006C38.8506 56.3877 38.6397 56.1748 38.6397 55.9238V54.3838C38.6397 54.1338 38.8506 53.9229 39.1006 53.9229H59.5391C59.7891 53.9229 60 54.1338 60 54.3838V55.9238Z" fill="#D63E45"/>
</svg>
