<svg width="54" height="64" viewBox="0 0 54 64" fill="none" xmlns="http://www.w3.org/2000/svg">
<path fill-rule="evenodd" clip-rule="evenodd" d="M53 5.2H46.42V1C46.42 0.734787 46.3146 0.480433 46.1271 0.292896C45.9396 0.10536 45.6852 2.95996e-06 45.42 2.95996e-06H15C14.8733 -0.000305188 14.7478 0.0234492 14.63 0.070003L14.5 0.150003C14.4436 0.178219 14.3901 0.211701 14.34 0.250003L0.34 12.6C0.268273 12.6705 0.20759 12.7514 0.16 12.84C0.132045 12.8912 0.108623 12.9447 0.09 13C0.0326953 13.1257 0.00205131 13.2619 0 13.4H0V56C0 56.2652 0.105357 56.5196 0.292893 56.7071C0.48043 56.8946 0.734784 57 1 57H6.09V63C6.09 63.2652 6.19536 63.5196 6.38289 63.7071C6.57043 63.8946 6.82478 64 7.09 64H53C53.2652 64 53.5196 63.8946 53.7071 63.7071C53.8946 63.5196 54 63.2652 54 63V6.2C54 5.93479 53.8946 5.68043 53.7071 5.4929C53.5196 5.30536 53.2652 5.2 53 5.2ZM14 3.2V12.35H3.64L14 3.2ZM2 55V14.35H15C15.2652 14.35 15.5196 14.2446 15.7071 14.0571C15.8946 13.8696 16 13.6152 16 13.35V2H44.42V55H2ZM52 62H8.09V57H45.42C45.6852 57 45.9396 56.8946 46.1271 56.7071C46.3146 56.5196 46.42 56.2652 46.42 56V7.2H52V62Z" fill="#D63E45"/>
<path fill-rule="evenodd" clip-rule="evenodd" d="M22.0696 36H11.3496C11.0844 36 10.83 36.1054 10.6425 36.2929C10.455 36.4804 10.3496 36.7348 10.3496 37C10.3496 37.2652 10.455 37.5196 10.6425 37.7071C10.83 37.8946 11.0844 38 11.3496 38H22.0696C22.3348 38 22.5892 37.8946 22.7767 37.7071C22.9643 37.5196 23.0696 37.2652 23.0696 37C23.0696 36.7348 22.9643 36.4804 22.7767 36.2929C22.5892 36.1054 22.3348 36 22.0696 36Z" fill="#D63E45"/>
<path fill-rule="evenodd" clip-rule="evenodd" d="M22.0696 43.6H11.3496C11.0844 43.6 10.83 43.7053 10.6425 43.8929C10.455 44.0804 10.3496 44.3348 10.3496 44.6C10.3496 44.8652 10.455 45.1195 10.6425 45.3071C10.83 45.4946 11.0844 45.6 11.3496 45.6H22.0696C22.3348 45.6 22.5892 45.4946 22.7767 45.3071C22.9643 45.1195 23.0696 44.8652 23.0696 44.6C23.0696 44.3348 22.9643 44.0804 22.7767 43.8929C22.5892 43.7053 22.3348 43.6 22.0696 43.6Z" fill="#D63E45"/>
<path fill-rule="evenodd" clip-rule="evenodd" d="M36.8896 20.3H11.3496C11.0844 20.3 10.83 20.4053 10.6425 20.5929C10.455 20.7804 10.3496 21.0348 10.3496 21.3C10.3496 21.5652 10.455 21.8196 10.6425 22.0071C10.83 22.1946 11.0844 22.3 11.3496 22.3H36.8896C37.1548 22.3 37.4092 22.1946 37.5967 22.0071C37.7843 21.8196 37.8896 21.5652 37.8896 21.3C37.8896 21.0348 37.7843 20.7804 37.5967 20.5929C37.4092 20.4053 37.1548 20.3 36.8896 20.3Z" fill="#D63E45"/>
<path fill-rule="evenodd" clip-rule="evenodd" d="M36.8896 28H11.3496C11.0844 28 10.83 28.1054 10.6425 28.2929C10.455 28.4804 10.3496 28.7348 10.3496 29C10.3496 29.2652 10.455 29.5196 10.6425 29.7071C10.83 29.8946 11.0844 30 11.3496 30H36.8896C37.1548 30 37.4092 29.8946 37.5967 29.7071C37.7843 29.5196 37.8896 29.2652 37.8896 29C37.8896 28.7348 37.7843 28.4804 37.5967 28.2929C37.4092 28.1054 37.1548 28 36.8896 28Z" fill="#D63E45"/>
<path fill-rule="evenodd" clip-rule="evenodd" d="M33.4401 39.5C33.0901 39.4 32.7201 39.35 32.3601 39.27C32.0001 39.19 31.1701 38.97 30.9201 38.5C30.8602 38.3787 30.8294 38.2452 30.8301 38.11C30.8203 37.9462 30.8485 37.7824 30.9128 37.6314C30.977 37.4805 31.0753 37.3465 31.2001 37.24C31.4156 37.1134 31.656 37.0354 31.9047 37.0112C32.1534 36.987 32.4043 37.0173 32.6401 37.1C33.03 37.1944 33.395 37.3717 33.7101 37.62C33.8691 37.7885 34.0816 37.8965 34.3115 37.9257C34.5413 37.9549 34.7741 37.9034 34.9701 37.78C35.0962 37.6879 35.1989 37.5676 35.2701 37.4286C35.3413 37.2897 35.379 37.1361 35.3801 36.98C35.3743 36.7711 35.3241 36.5658 35.2327 36.3778C35.1413 36.1898 35.0109 36.0235 34.8501 35.89C34.4253 35.5244 33.9225 35.261 33.3801 35.12L33.0001 35V33.77C33.0068 33.6464 32.984 33.523 32.9336 33.41C32.8832 33.2969 32.8066 33.1975 32.7101 33.12C32.2101 32.73 31.0901 32.88 31.0901 33.67V35L30.7601 35.1C30.4082 35.2061 30.0823 35.3846 29.8034 35.6239C29.5244 35.8633 29.2985 36.1583 29.1401 36.49C28.7377 37.1994 28.5895 38.0249 28.7201 38.83C28.7524 39.1431 28.8534 39.4453 29.0159 39.715C29.1784 39.9846 29.3983 40.2151 29.6601 40.39C30.1438 40.6835 30.6752 40.89 31.2301 41C31.6279 41.0875 32.0139 41.2218 32.3801 41.4C32.566 41.4969 32.7404 41.6143 32.9001 41.75C33.0996 41.8846 33.2551 42.0748 33.3476 42.297C33.44 42.5192 33.4652 42.7636 33.4201 43C33.3228 43.2408 33.1595 43.4492 32.949 43.6014C32.7385 43.7535 32.4893 43.8431 32.2301 43.86C31.8931 43.8867 31.5547 43.8306 31.2444 43.6963C30.9341 43.5621 30.6614 43.3539 30.4501 43.09C30.2496 42.7887 29.9482 42.5689 29.6001 42.47C29.3414 42.4157 29.0718 42.466 28.8501 42.61C28.7318 42.6903 28.6309 42.7937 28.5535 42.914C28.4762 43.0343 28.424 43.169 28.4001 43.31C28.3736 43.4863 28.3839 43.6661 28.4303 43.8383C28.4768 44.0104 28.5585 44.171 28.6701 44.31C29.1932 45.025 29.9446 45.54 30.8001 45.77L31.1401 45.86V46.9C31.1302 47.059 31.1641 47.2177 31.2381 47.3588C31.3122 47.4998 31.4236 47.6179 31.5601 47.7C31.7045 47.7845 31.8678 47.8315 32.035 47.8366C32.2023 47.8417 32.3681 47.8047 32.5174 47.7291C32.6666 47.6534 32.7945 47.5416 32.8894 47.4037C32.9842 47.2659 33.0429 47.1064 33.0601 46.94V45.8L33.3901 45.7C34.018 45.4787 34.5743 45.0917 35.0001 44.58C35.301 44.2608 35.5236 43.876 35.6503 43.456C35.777 43.036 35.8043 42.5923 35.7301 42.16C35.666 41.5357 35.4122 40.946 35.0027 40.4704C34.5933 39.9948 34.0479 39.6561 33.4401 39.5Z" fill="#D63E45"/>
</svg>
