<svg width="33" height="62" viewBox="0 0 33 62" fill="none" xmlns="http://www.w3.org/2000/svg">
<path d="M1.70711 0.292893C1.31658 -0.0976311 0.683417 -0.0976311 0.292893 0.292893C-0.0976311 0.683417 -0.0976311 1.31658 0.292893 1.70711L1.70711 0.292893ZM31 31L31.7071 31.7071L32.4142 31L31.7071 30.2929L31 31ZM0.292893 60.2929C-0.0976311 60.6834 -0.0976311 61.3166 0.292893 61.7071C0.683417 62.0976 1.31658 62.0976 1.70711 61.7071L0.292893 60.2929ZM0.292893 1.70711L30.2929 31.7071L31.7071 30.2929L1.70711 0.292893L0.292893 1.70711ZM30.2929 30.2929L0.292893 60.2929L1.70711 61.7071L31.7071 31.7071L30.2929 30.2929Z" fill="#61BEC4"/>
</svg>
