<svg width="33" height="62" viewBox="0 0 33 62" fill="none" xmlns="http://www.w3.org/2000/svg">
<path d="M31.2929 0.292893C31.6834 -0.0976311 32.3166 -0.0976311 32.7071 0.292893C33.0976 0.683417 33.0976 1.31658 32.7071 1.70711L31.2929 0.292893ZM2 31L1.29289 31.7071L0.585787 31L1.29289 30.2929L2 31ZM32.7071 60.2929C33.0976 60.6834 33.0976 61.3166 32.7071 61.7071C32.3166 62.0976 31.6834 62.0976 31.2929 61.7071L32.7071 60.2929ZM32.7071 1.70711L2.70711 31.7071L1.29289 30.2929L31.2929 0.292893L32.7071 1.70711ZM2.70711 30.2929L32.7071 60.2929L31.2929 61.7071L1.29289 31.7071L2.70711 30.2929Z" fill="#61BEC4"/>
</svg>
