<svg width="52" height="62" viewBox="0 0 52 62" fill="none" xmlns="http://www.w3.org/2000/svg">
<path d="M49.5 52.2654V30.5537C49.5 28.3224 47.7686 26.5067 45.5819 26.3303C45.7733 25.9097 45.8862 25.4464 45.8862 24.9551V16.4854C45.8862 15.5747 45.5176 14.7497 44.9239 14.147C45.5177 13.5436 45.8862 12.7179 45.8862 11.8067V3.3369C45.8862 1.4971 44.3877 0 42.5454 0H9.45118C7.61088 0 6.11378 1.4971 6.11378 3.3369V11.8066C6.11378 12.7178 6.48208 13.5435 7.07518 14.1469C6.48208 14.7497 6.11378 15.5746 6.11378 16.4853V24.955C6.11378 25.4463 6.22658 25.9096 6.41778 26.3302C4.22928 26.5067 2.49658 28.3223 2.49658 30.5536V52.2656C1.28628 52.6841 0.40918 53.8238 0.40918 55.1756V58.909C0.40918 60.6133 1.79388 62 3.49658 62H48.5C50.2041 62 51.5908 60.6133 51.5908 58.9092V55.1758C51.5908 53.8235 50.7121 52.6837 49.5 52.2654ZM47.5 30.5537V52.085H45.5063V31.4229C45.5063 30.8702 45.0585 30.4229 44.5063 30.4229H39.2325L37.5681 28.2959H45.2421C46.4873 28.2959 47.5 29.3086 47.5 30.5537ZM21.4907 54.085H30.5058V55.5723C30.5058 55.7559 30.3525 55.9102 30.1713 55.9102H21.8285C21.6454 55.9102 21.4906 55.7559 21.4906 55.5723V54.085H21.4907ZM8.60988 52.085V32.4229H14.7373V35.7061H13.6396C12.9497 35.7061 12.3774 36.0245 12.1083 36.5577C11.8402 37.089 11.9237 37.7364 12.349 38.3116L16.4828 43.5977C16.9667 44.1651 17.5863 44.4776 18.2265 44.4776C18.227 44.4776 18.228 44.4766 18.2289 44.4766C18.869 44.4766 19.4872 44.1631 19.9955 43.5645L24.1151 38.293C24.5262 37.7412 24.6122 37.0938 24.3446 36.5616C24.076 36.0255 23.5023 35.7061 22.8104 35.7061H21.7162V32.4229H27.562C27.5874 32.5195 27.6089 32.6172 27.6547 32.7081C27.9237 33.2403 28.4965 33.5587 29.186 33.5587H30.2837V42.4073C30.2837 43.586 31.1724 44.4757 32.3511 44.4757H35.1914C36.3721 44.4757 37.2627 43.5861 37.2627 42.4073V33.5587H38.3569C39.0488 33.5587 39.622 33.2394 39.8911 32.7042C39.9361 32.6146 39.9567 32.5181 39.9817 32.4229H43.5063V52.085H8.60988ZM9.45118 26.2959C8.71388 26.2959 8.11378 25.6943 8.11378 24.9551V16.4854C8.11378 15.7481 8.71388 15.1475 9.45118 15.1475H42.5454C43.2847 15.1475 43.8862 15.7481 43.8862 16.4854V24.9551C43.8862 25.6944 43.2846 26.2959 42.5454 26.2959H36.0032L35.5157 25.6729C35.0338 25.1055 34.4161 24.793 33.776 24.7911C33.775 24.7911 33.774 24.7911 33.7731 24.7911C33.133 24.7911 32.5133 25.1036 32.0016 25.7042L31.5387 26.296H21.6359C21.4014 25.41 20.6283 24.7901 19.6456 24.7901H16.8053C15.8243 24.7901 15.0521 25.4099 14.8179 26.296H9.45118V26.2959ZM31.2837 31.5586L29.9614 31.5576L33.5493 26.9697C33.6704 26.8281 33.7568 26.7929 33.772 26.791C33.7881 26.793 33.8726 26.8281 33.9658 26.9365L37.5801 31.5586H36.2627C35.7105 31.5586 35.2627 32.0059 35.2627 32.5586V42.4072L35.1914 42.4756L32.2837 42.4072V32.5586C32.2837 32.0059 31.8359 31.5586 31.2837 31.5586ZM28.3107 30.4229H21.7163V28.2959H29.9743L28.3107 30.4229ZM16.7373 36.7061L16.8052 26.7901L19.7022 26.7862C19.7061 26.7921 19.7164 26.8165 19.7164 26.8575V36.7061C19.7164 37.2588 20.1642 37.7061 20.7164 37.7061L22.0352 37.7071L18.4454 42.3009C18.3267 42.4405 18.2418 42.4757 18.2271 42.4777C18.2105 42.4757 18.1246 42.4406 18.0308 42.3322L14.4161 37.7062H15.7374C16.2896 37.7061 16.7373 37.2588 16.7373 36.7061ZM8.11378 3.3369C8.11378 2.5996 8.71388 2 9.45118 2H42.5454C43.2847 2 43.8862 2.5996 43.8862 3.3369V11.8066C43.8862 12.5459 43.2846 13.1474 42.5454 13.1474H9.45118C8.71388 13.1474 8.11378 12.5458 8.11378 11.8066V3.3369ZM6.75778 28.2959H14.7373V30.4229H7.60988C7.05768 30.4229 6.60988 30.8702 6.60988 31.4229V52.085H4.49658V30.5537C4.49658 29.3086 5.51068 28.2959 6.75778 28.2959ZM49.5908 58.9092C49.5908 59.5107 49.1016 60 48.5 60H3.49658C2.90718 60 2.40918 59.5 2.40918 58.9092V55.1758C2.40918 54.5742 2.89698 54.085 3.49658 54.085H19.4907V55.5723C19.4907 56.8614 20.5395 57.9102 21.8286 57.9102H30.1714C31.4585 57.9102 32.5059 56.8614 32.5059 55.5723V54.085H48.5C49.1016 54.085 49.5908 54.5743 49.5908 55.1758V58.9092Z" fill="#D63E45"/>
<path d="M33.1143 23.1729C33.6665 23.1729 34.1143 22.7256 34.1143 22.1729V19.2676C34.1143 18.7149 33.6665 18.2676 33.1143 18.2676C32.5621 18.2676 32.1143 18.7149 32.1143 19.2676V22.1729C32.1143 22.7256 32.562 23.1729 33.1143 23.1729Z" fill="#D63E45"/>
<path d="M17.2607 20.7217C17.2607 18.8379 15.7299 17.3057 13.8481 17.3057C11.9648 17.3057 10.4326 18.8379 10.4326 20.7217C10.4326 22.6035 11.9648 24.1338 13.8481 24.1338C15.73 24.1338 17.2607 22.6035 17.2607 20.7217ZM12.4326 20.7217C12.4326 19.9404 13.0674 19.3057 13.8481 19.3057C14.6269 19.3057 15.2607 19.9405 15.2607 20.7217C15.2607 21.5 14.6269 22.1338 13.8481 22.1338C13.0674 22.1338 12.4326 21.5 12.4326 20.7217Z" fill="#D63E45"/>
<path d="M13.8481 10.9863C15.7299 10.9863 17.2607 9.456 17.2607 7.5742C17.2607 5.6904 15.7299 4.1582 13.8481 4.1582C11.9648 4.1582 10.4326 5.6904 10.4326 7.5742C10.4326 9.4561 11.9648 10.9863 13.8481 10.9863ZM13.8481 6.1582C14.6269 6.1582 15.2607 6.793 15.2607 7.5742C15.2607 8.3525 14.6269 8.9863 13.8481 8.9863C13.0673 8.9863 12.4326 8.3525 12.4326 7.5742C12.4326 6.793 13.0674 6.1582 13.8481 6.1582Z" fill="#D63E45"/>
<path d="M27.1055 23.1729C27.6577 23.1729 28.1055 22.7256 28.1055 22.1729V19.2676C28.1055 18.7149 27.6577 18.2676 27.1055 18.2676C26.5533 18.2676 26.1055 18.7149 26.1055 19.2676V22.1729C26.1055 22.7256 26.5532 23.1729 27.1055 23.1729Z" fill="#D63E45"/>
<path d="M39.1235 23.1729C39.6757 23.1729 40.1235 22.7256 40.1235 22.1729V19.2676C40.1235 18.7149 39.6757 18.2676 39.1235 18.2676C38.5713 18.2676 38.1235 18.7149 38.1235 19.2676V22.1729C38.1235 22.7256 38.5713 23.1729 39.1235 23.1729Z" fill="#D63E45"/>
<path d="M33.1143 10.0244C33.6665 10.0244 34.1143 9.57708 34.1143 9.02438V6.11908C34.1143 5.56638 33.6665 5.11908 33.1143 5.11908C32.5621 5.11908 32.1143 5.56638 32.1143 6.11908V9.02438C32.1143 9.57708 32.562 10.0244 33.1143 10.0244Z" fill="#D63E45"/>
<path d="M27.1055 10.0244C27.6577 10.0244 28.1055 9.57708 28.1055 9.02438V6.11908C28.1055 5.56638 27.6577 5.11908 27.1055 5.11908C26.5533 5.11908 26.1055 5.56638 26.1055 6.11908V9.02438C26.1055 9.57708 26.5532 10.0244 27.1055 10.0244Z" fill="#D63E45"/>
<path d="M39.1235 10.0244C39.6757 10.0244 40.1235 9.57708 40.1235 9.02438V6.11908C40.1235 5.56638 39.6757 5.11908 39.1235 5.11908C38.5713 5.11908 38.1235 5.56638 38.1235 6.11908V9.02438C38.1235 9.57708 38.5713 10.0244 39.1235 10.0244Z" fill="#D63E45"/>
</svg>
