<svg width="64" height="64" viewBox="0 0 64 64" fill="none" xmlns="http://www.w3.org/2000/svg">
<path d="M42.9 24.6755C43.0639 24.5114 43.156 24.289 43.156 24.057C43.156 23.8251 43.0639 23.6026 42.9 23.4385L40.5615 21.1C40.3943 20.9418 40.1729 20.8536 39.9427 20.8536C39.7126 20.8536 39.4911 20.9418 39.324 21.1L21.1 39.3245C21.0187 39.4057 20.9542 39.5021 20.9102 39.6082C20.8662 39.7144 20.8435 39.8281 20.8435 39.943C20.8435 40.0579 20.8662 40.1717 20.9102 40.2778C20.9542 40.3839 21.0187 40.4803 21.1 40.5615L23.438 42.9C23.5192 42.9813 23.6157 43.0458 23.7218 43.0899C23.828 43.1339 23.9418 43.1565 24.0567 43.1565C24.1717 43.1565 24.2855 43.1339 24.3916 43.0899C24.4978 43.0458 24.5943 42.9813 24.6755 42.9L42.9 24.6755ZM22.955 39.943L39.943 22.955L41.043 24.055L24.057 41.045L22.955 39.943Z" fill="#D63E45"/>
<path d="M62.5046 49.859L42.6296 29.984L46.6081 26.0055C48.7587 26.6327 51.0382 26.6716 53.209 26.118C55.3797 25.5645 57.3623 24.4389 58.9501 22.8585C58.9676 22.8436 58.9842 22.8277 59.0001 22.811L62.2501 19.561C63.3664 18.4416 63.9933 16.9252 63.9933 15.3443C63.9933 13.7633 63.3664 12.2469 62.2501 11.1275L60.9326 9.81002C60.7684 9.64603 60.5459 9.55392 60.3138 9.55392C60.0818 9.55392 59.8592 9.64603 59.6951 9.81002L52.6721 16.8375L48.4471 15.553L47.1626 11.3285L54.1901 4.30002C54.2714 4.21881 54.3359 4.12235 54.3799 4.01618C54.4239 3.91001 54.4466 3.79621 54.4466 3.68127C54.4466 3.56634 54.4239 3.45254 54.3799 3.34637C54.3359 3.2402 54.2714 3.14374 54.1901 3.06252L52.8726 1.74602C52.3189 1.19217 51.6615 0.752815 50.938 0.453061C50.2145 0.153307 49.439 -0.000976563 48.6558 -0.000976562C47.8727 -0.000976563 47.0972 0.153307 46.3737 0.453061C45.6501 0.752815 44.9928 1.19217 44.4391 1.74602L41.1891 4.99602C41.173 5.01182 41.1578 5.02852 41.1436 5.04602C39.5617 6.63366 38.4349 8.61677 37.8808 10.7884C37.3267 12.96 37.3657 15.2406 37.9936 17.392L29.9501 25.438L12.3696 7.85902L12.5936 5.00902C12.6074 4.83236 12.5674 4.65564 12.4786 4.50225C12.3899 4.34886 12.2566 4.22604 12.0966 4.15002L3.53806 0.0845252C3.37481 0.00706019 3.19159 -0.0179935 3.01353 0.0128013C2.83548 0.0435962 2.67131 0.128731 2.54356 0.256525L0.25656 2.54352C0.128766 2.67128 0.0436313 2.83544 0.0128365 3.0135C-0.0179584 3.19155 0.00709534 3.37477 0.0845603 3.53802L4.15006 12.0965C4.22635 12.2564 4.34923 12.3894 4.50255 12.4781C4.65587 12.5668 4.83245 12.6071 5.00906 12.5935L7.85906 12.3695L25.4381 29.95L17.3921 37.9945C15.2404 37.3667 12.9596 37.3278 10.7878 37.8819C8.61592 38.436 6.63255 39.5627 5.04456 41.1445C5.02704 41.1582 5.01034 41.1729 4.99456 41.1885L1.74456 44.4385C1.1907 44.9922 0.751351 45.6496 0.451596 46.3731C0.151842 47.0966 -0.00244141 47.8721 -0.00244141 48.6553C-0.00244141 49.4384 0.151842 50.2139 0.451596 50.9374C0.751351 51.6609 1.1907 52.3183 1.74456 52.872L3.06156 54.189C3.14274 54.2703 3.23915 54.3348 3.34528 54.3788C3.4514 54.4228 3.56517 54.4455 3.68006 54.4455C3.79495 54.4455 3.90872 54.4228 4.01485 54.3788C4.12097 54.3348 4.21738 54.2703 4.29856 54.189L11.3286 47.1625L15.5531 48.447L16.8376 52.6715L9.81056 59.7C9.72926 59.7812 9.66475 59.8776 9.62074 59.9837C9.57673 60.0899 9.55408 60.2036 9.55408 60.3185C9.55408 60.4334 9.57673 60.5472 9.62074 60.6533C9.66475 60.7594 9.72926 60.8558 9.81056 60.937L11.1276 62.254C11.6813 62.8079 12.3386 63.2472 13.0622 63.547C13.7857 63.8467 14.5612 64.001 15.3443 64.001C16.1275 64.001 16.903 63.8467 17.6265 63.547C18.35 63.2472 19.0074 62.8079 19.5611 62.254L22.8111 59.004C22.8266 58.989 22.8411 58.973 22.8551 58.957C24.4375 57.3689 25.5646 55.3851 26.1187 53.2127C26.6728 51.0403 26.6336 48.7591 26.0051 46.607L29.9836 42.6285L49.8586 62.503C50.3327 62.9773 50.8956 63.3535 51.5151 63.6102C52.1347 63.8669 52.7987 63.999 53.4693 63.999C54.1399 63.999 54.804 63.8669 55.4235 63.6102C56.043 63.3535 56.6059 62.9773 57.0801 62.503L62.5041 57.0795C63.4601 56.1213 63.997 54.823 63.9971 53.4694C63.9972 52.1158 63.4604 50.8174 62.5046 49.859ZM8.81156 10.8465C8.64729 10.6826 8.42466 10.5905 8.19256 10.5905C8.17006 10.5905 8.14706 10.5905 8.12406 10.5905L5.47406 10.799L1.93056 3.34452L3.34456 1.93052L10.8001 5.47352L10.5916 8.12352C10.5816 8.24963 10.5992 8.37639 10.6429 8.49507C10.6867 8.61375 10.7556 8.72155 10.8451 8.81102L28.7111 26.6755L26.6756 28.711L8.81156 10.8465ZM24.1831 46.6415C24.8324 48.5541 24.9319 50.6105 24.4703 52.5769C24.0088 54.5433 23.0046 56.3406 21.5721 57.7645C21.5571 57.779 21.5431 57.7945 21.5296 57.81L18.3236 61.016C17.5333 61.8061 16.4616 62.25 15.3441 62.25C14.2266 62.25 13.1548 61.8061 12.3646 61.016L11.6646 60.316L18.4441 53.5365C18.5562 53.4245 18.6357 53.2841 18.6742 53.1303C18.7127 52.9765 18.7087 52.8152 18.6626 52.6635L17.0916 47.491C17.0497 47.3536 16.9746 47.2286 16.8731 47.127C16.7715 47.0254 16.6465 46.9504 16.5091 46.9085L11.3351 45.3355C11.1834 45.2896 11.0221 45.2856 10.8684 45.3241C10.7146 45.3626 10.5742 45.442 10.4621 45.554L3.68256 52.3335L2.98256 51.6335C2.19243 50.8433 1.74856 49.7715 1.74856 48.654C1.74856 47.5365 2.19243 46.4648 2.98256 45.6745L6.18806 42.469C6.20406 42.4555 6.21906 42.4415 6.23406 42.4265C7.65786 40.9938 9.45521 39.9896 11.4216 39.528C13.388 39.0664 15.4445 39.166 17.3571 39.8155C17.5114 39.867 17.6771 39.8746 17.8355 39.8373C17.9939 39.8001 18.1388 39.7195 18.2541 39.6045L39.6041 18.2545C39.7192 18.1395 39.8 17.9945 39.8373 17.8361C39.8746 17.6776 39.8669 17.5119 39.8151 17.3575C39.1656 15.445 39.0659 13.3885 39.5275 11.4221C39.9891 9.45568 40.9934 7.65833 42.4261 6.23452C42.4416 6.21952 42.4566 6.20352 42.4701 6.18752L45.6741 2.98303C46.4643 2.1929 47.5361 1.74902 48.6536 1.74902C49.7711 1.74902 50.8428 2.1929 51.6331 2.98303L52.3331 3.68302L45.5541 10.462C45.4419 10.5741 45.3624 10.7145 45.3239 10.8683C45.2854 11.022 45.2894 11.1834 45.3356 11.335L46.9081 16.509C46.95 16.6465 47.0252 16.7715 47.1268 16.8731C47.2285 16.9746 47.3536 17.0497 47.4911 17.0915L52.6651 18.6645C52.8167 18.7108 52.9781 18.7148 53.1319 18.6763C53.2857 18.6379 53.4261 18.5582 53.5381 18.446L60.3176 11.6665L61.0176 12.3665C61.8065 13.1574 62.2495 14.2289 62.2495 15.346C62.2495 16.4631 61.8065 17.5346 61.0176 18.3255L57.8176 21.5255C57.8006 21.54 57.7836 21.5555 57.7676 21.5715C56.3439 23.0044 54.5465 24.0087 52.5801 24.4703C50.6136 24.9319 48.5571 24.8322 46.6446 24.1825C46.4903 24.1309 46.3247 24.1233 46.1663 24.1606C46.008 24.1979 45.8631 24.2785 45.7481 24.3935L24.3981 45.7435C24.282 45.8582 24.2004 46.0031 24.1624 46.1618C24.1244 46.3205 24.1315 46.4867 24.1831 46.6415ZM61.2671 55.8415L55.8431 61.2655C55.2135 61.8949 54.3598 62.2485 53.4696 62.2485C52.5794 62.2485 51.7256 61.8949 51.0961 61.2655L31.2216 41.392L41.3921 31.2215L61.2671 51.096C61.8955 51.7261 62.2484 52.5796 62.2484 53.4695C62.2484 54.3594 61.8955 55.213 61.2671 55.843V55.8415Z" fill="#D63E45"/>
<path d="M42.0106 35.022C41.9294 34.9407 41.833 34.8762 41.7269 34.8322C41.6207 34.7882 41.507 34.7656 41.3921 34.7656C41.2772 34.7656 41.1634 34.7882 41.0573 34.8322C40.9512 34.8762 40.8547 34.9407 40.7736 35.022L35.0236 40.772C34.9423 40.8532 34.8778 40.9496 34.8338 41.0558C34.7897 41.1619 34.7671 41.2756 34.7671 41.3905C34.7671 41.5054 34.7897 41.6192 34.8338 41.7253C34.8778 41.8315 34.9423 41.9279 35.0236 42.009L52.6936 59.679C52.9016 59.8846 53.1824 59.9994 53.4748 59.9985C53.7673 59.9975 54.0474 59.8809 54.2541 59.674L59.6761 54.25C59.8835 54.0425 60 53.761 60 53.4675C60 53.1741 59.8835 52.8926 59.6761 52.685L42.0106 35.022ZM53.4696 57.9835L36.8781 41.392L41.3921 36.878L57.9836 53.47L53.4696 57.9835Z" fill="#D63E45"/>
</svg>
