<svg width="58" height="64" viewBox="0 0 58 64" fill="none" xmlns="http://www.w3.org/2000/svg">
<path d="M29.1255 26.4565H30.1105C30.3426 26.4565 30.5651 26.3643 30.7292 26.2002C30.8933 26.0361 30.9855 25.8136 30.9855 25.5815C30.9855 25.3494 30.8933 25.1269 30.7292 24.9628C30.5651 24.7987 30.3426 24.7065 30.1105 24.7065L29.1545 24.7395L29.5115 22.381C29.5462 22.1515 29.4884 21.9176 29.3507 21.7308C29.213 21.544 29.0067 21.4195 28.7772 21.3847C28.5478 21.35 28.3139 21.4078 28.127 21.5455C27.9402 21.6832 27.8157 21.8895 27.781 22.119L27.424 24.4775C27.3869 24.7224 27.403 24.9724 27.4714 25.2105C27.5397 25.4485 27.6587 25.669 27.8201 25.8569C27.9815 26.0448 28.1815 26.1956 28.4066 26.2991C28.6316 26.4026 28.8763 26.4563 29.124 26.4565H29.1255Z" fill="#D63E45"/>
<path d="M28.9371 31.5385C29.6912 31.5669 30.4424 31.4312 31.139 31.141C31.8355 30.8508 32.4608 30.4129 32.9716 29.8575C33.0485 29.7693 33.1069 29.6667 33.1434 29.5555C33.1798 29.4444 33.1937 29.3271 33.1841 29.2106C33.1745 29.0941 33.1416 28.9806 33.0874 28.877C33.0332 28.7734 32.9587 28.6817 32.8685 28.6073C32.7782 28.5329 32.674 28.4774 32.5619 28.444C32.4499 28.4106 32.3322 28.4 32.216 28.4128C32.0998 28.4257 31.9873 28.4617 31.8852 28.5187C31.7831 28.5758 31.6935 28.6527 31.6216 28.745C31.2731 29.0983 30.8538 29.3739 30.3912 29.5537C29.9287 29.7335 29.4333 29.8136 28.9376 29.7885C28.4419 29.8135 27.9464 29.7335 27.4838 29.5535C27.0211 29.3736 26.6017 29.0979 26.2531 28.7445C26.1813 28.6522 26.0917 28.5753 25.9896 28.5182C25.8875 28.4612 25.775 28.4252 25.6588 28.4123C25.5425 28.3995 25.4249 28.4101 25.3128 28.4435C25.2008 28.4769 25.0965 28.5324 25.0063 28.6068C24.916 28.6812 24.8416 28.7729 24.7874 28.8765C24.7332 28.9801 24.7003 29.0936 24.6907 29.2101C24.6811 29.3266 24.6949 29.4439 24.7314 29.555C24.7679 29.6662 24.8263 29.7688 24.9031 29.857C25.4138 30.4125 26.039 30.8505 26.7355 31.1408C27.4319 31.4311 28.1831 31.5668 28.9371 31.5385Z" fill="#D63E45"/>
<path d="M33.6875 5.625H24.3125C24.1976 5.62493 24.0838 5.64752 23.9776 5.69147C23.8714 5.73542 23.7749 5.79987 23.6936 5.88114C23.6124 5.9624 23.5479 6.05888 23.504 6.16507C23.46 6.27126 23.4374 6.38507 23.4375 6.5V11.625C23.4374 11.7399 23.46 11.8537 23.504 11.9599C23.5479 12.0661 23.6124 12.1626 23.6936 12.2439C23.7749 12.3251 23.8714 12.3896 23.9776 12.4335C24.0838 12.4775 24.1976 12.5001 24.3125 12.5H33.6875C33.8024 12.5001 33.9162 12.4775 34.0224 12.4335C34.1286 12.3896 34.2251 12.3251 34.3064 12.2439C34.3876 12.1626 34.4521 12.0661 34.496 11.9599C34.54 11.8537 34.5626 11.7399 34.5625 11.625V6.5C34.5626 6.38507 34.54 6.27126 34.496 6.16507C34.4521 6.05888 34.3876 5.9624 34.3064 5.88114C34.2251 5.79987 34.1286 5.73542 34.0224 5.69147C33.9162 5.64752 33.8024 5.62493 33.6875 5.625ZM32.8125 10.75H25.1875V7.375H32.8125V10.75Z" fill="#D63E45"/>
<path d="M48.8576 43.641C46.7646 43.1025 44.6076 43.041 42.4801 42.852C41.6421 42.7885 40.8506 42.7285 40.0461 42.625C38.4116 42.4345 37.1156 41.725 36.9616 40.225L36.4751 36.42C38.0462 35.1538 39.2691 33.5084 40.0286 31.639C40.5423 30.2448 40.9225 28.805 41.1641 27.339C41.1886 27.2155 41.2141 27.095 41.2391 26.9725C41.4682 27.0129 41.7004 27.0341 41.9331 27.036C42.8713 27.0372 43.7842 26.7312 44.5322 26.1649C45.2803 25.5985 45.8224 24.8029 46.0758 23.8995C46.3292 22.9961 46.2799 22.0345 45.9356 21.1618C45.5912 20.289 44.9706 19.5529 44.1686 19.066C44.6593 18.7209 45.0273 18.2285 45.2192 17.6601C45.4111 17.0917 45.4168 16.477 45.2356 15.9051C45.0545 15.3333 44.6957 14.834 44.2116 14.4798C43.7274 14.1256 43.1429 13.935 42.5431 13.9355H42.4671V6.65898C42.4648 5.53155 42.0727 4.43958 41.3574 3.56814C40.6421 2.69671 39.6474 2.09941 38.5421 1.87748L29.1706 0.0149785C29.058 -0.00751563 28.9421 -0.00751563 28.8296 0.0149785L19.4581 1.87748C18.3525 2.09922 17.3577 2.69645 16.6423 3.56792C15.9268 4.43938 15.5348 5.53145 15.5326 6.65898V13.9375H15.4571C14.8633 13.9368 14.2844 14.1236 13.8029 14.4711C13.3214 14.8186 12.9619 15.3092 12.7755 15.873C12.5892 16.4368 12.5854 17.0451 12.7649 17.6111C12.9444 18.1771 13.2979 18.6721 13.7751 19.0255C12.9598 19.5019 12.324 20.2336 11.9659 21.1073C11.6078 21.9811 11.5473 22.9485 11.7937 23.8601C12.0401 24.7717 12.5798 25.5768 13.3294 26.1512C14.0789 26.7255 14.9967 27.0372 15.9411 27.038C16.2151 27.0364 16.4884 27.0083 16.7571 26.954C16.7831 27.0835 16.8101 27.2105 16.8361 27.341C17.0778 28.807 17.4582 30.2468 17.9721 31.641C18.7315 33.5101 19.9542 35.155 21.5251 36.421L21.0456 40.1735C20.937 40.6082 20.7524 41.0202 20.5001 41.3905C20.2901 41.7004 20.0191 41.9643 19.7037 42.166C19.3883 42.3677 19.035 42.5029 18.6656 42.5635C17.3731 42.6895 16.0656 42.7825 14.7201 42.876C12.8411 42.9444 10.9737 43.2001 9.14556 43.6395C6.577 44.3463 4.31096 45.8757 2.69448 47.9933C1.07801 50.1109 0.20022 52.6999 0.195557 55.364V63.122C0.195491 63.2369 0.218079 63.3507 0.262028 63.4569C0.305978 63.5631 0.370427 63.6596 0.451692 63.7408C0.532956 63.8221 0.629442 63.8865 0.735631 63.9305C0.841821 63.9744 0.955632 63.997 1.07056 63.997H56.9296C57.0445 63.997 57.1583 63.9744 57.2645 63.9305C57.3707 63.8865 57.4672 63.8221 57.5484 63.7408C57.6297 63.6596 57.6941 63.5631 57.7381 63.4569C57.782 63.3507 57.8046 63.2369 57.8046 63.122V55.364C57.7997 52.7006 56.9222 50.1121 55.3064 47.9949C53.6905 45.8777 51.4253 44.3483 48.8576 43.641ZM43.8751 44.721C45.1323 44.794 46.3843 44.9386 47.6251 45.154V53.4375H43.8751V44.721ZM20.2766 43.85C20.7001 43.6332 21.0859 43.3496 21.4191 43.01L27.4831 46.455L24.4331 49.058L20.2766 43.85ZM30.5171 46.455L36.5136 43.05C36.8827 43.3701 37.3015 43.628 37.7536 43.8135L33.5676 49.06L30.5171 46.455ZM41.9331 25.288C41.8213 25.2879 41.7097 25.28 41.5991 25.2645C41.8961 23.854 42.4736 21.6695 42.4651 20.24C43.0879 20.3649 43.6417 20.7179 44.018 21.2298C44.3943 21.7416 44.566 22.3755 44.4994 23.0073C44.4329 23.6391 44.1329 24.2233 43.6582 24.6455C43.1835 25.0677 42.5683 25.2976 41.9331 25.29V25.288ZM17.2831 6.65898C17.2845 5.93616 17.5359 5.2361 17.9947 4.67754C18.4534 4.11897 19.0913 3.73632 19.8001 3.59448L29.0001 1.76548L38.2001 3.59448C38.9086 3.73661 39.5462 4.11938 40.0047 4.6779C40.4633 5.23642 40.7146 5.93633 40.7161 6.65898V13.9375H17.2826L17.2831 6.65898ZM15.4571 15.6875H42.5431C42.8282 15.6875 43.1016 15.8007 43.3032 16.0023C43.5048 16.2039 43.6181 16.4774 43.6181 16.7625C43.6181 17.0476 43.5048 17.321 43.3032 17.5226C43.1016 17.7242 42.8282 17.8375 42.5431 17.8375H15.4571C15.172 17.8375 14.8985 17.7242 14.6969 17.5226C14.4953 17.321 14.3821 17.0476 14.3821 16.7625C14.3821 16.4774 14.4953 16.2039 14.6969 16.0023C14.8985 15.8007 15.172 15.6875 15.4571 15.6875ZM15.9411 25.2875C15.2959 25.2938 14.6723 25.0552 14.196 24.6199C13.7197 24.1847 13.4261 23.585 13.3744 22.9419C13.3228 22.2987 13.5168 21.6599 13.9175 21.1541C14.3181 20.6484 14.8956 20.3133 15.5336 20.2165C15.5481 21.854 16.0696 23.6445 16.3961 25.246C16.246 25.274 16.0937 25.2881 15.9411 25.288V25.2875ZM19.5936 30.9815C19.1241 29.6894 18.7756 28.3565 18.5526 27C18.1526 24.595 17.2246 22.0395 17.2826 19.5845H21.4076C21.3519 19.8862 21.3632 20.1965 21.4409 20.4933C21.5185 20.7902 21.6605 21.0663 21.8568 21.3021C22.053 21.5379 22.2988 21.7277 22.5766 21.8579C22.8544 21.9881 23.1575 22.0557 23.4643 22.0557C23.7711 22.0557 24.0742 21.9881 24.352 21.8579C24.6298 21.7277 24.8756 21.5379 25.0719 21.3021C25.2681 21.0663 25.4101 20.7902 25.4878 20.4933C25.5654 20.1965 25.5768 19.8862 25.5211 19.5845H32.4791C32.4234 19.8862 32.4347 20.1965 32.5124 20.4933C32.59 20.7902 32.732 21.0663 32.9283 21.3021C33.1245 21.5379 33.3703 21.7277 33.6481 21.8579C33.9259 21.9881 34.229 22.0557 34.5358 22.0557C34.8426 22.0557 35.1457 21.9881 35.4235 21.8579C35.7013 21.7277 35.9471 21.5379 36.1434 21.3021C36.3396 21.0663 36.4816 20.7902 36.5593 20.4933C36.6369 20.1965 36.6483 19.8862 36.5926 19.5845H40.7171C40.7776 22.044 39.8456 24.5925 39.4471 27C39.2246 28.3556 38.8762 29.6875 38.4066 30.9785C37.714 32.6836 36.5696 34.1677 35.0966 35.271C33.3364 36.5872 31.1975 37.2985 28.9996 37.2985C26.8017 37.2985 24.6628 36.5872 22.9026 35.271C21.4306 34.1682 20.2867 32.6855 19.5936 30.982V30.9815ZM25.2221 38.4355C26.1736 38.7491 27.1599 38.945 28.1591 39.019C30.4872 39.1787 32.8116 38.659 34.8501 37.523L35.2236 40.4455C35.2754 40.8395 35.3835 41.2241 35.5446 41.5875L29.0001 45.306L22.4051 41.56C22.5702 41.2035 22.6944 40.8295 22.7751 40.445L23.1481 37.523C23.8087 37.8927 24.5032 38.1982 25.2221 38.4355ZM18.0001 44.373C18.1501 44.373 18.2941 44.367 18.4386 44.3555L23.6281 50.8585C23.702 50.9488 23.7931 51.0236 23.8961 51.0785C23.9991 51.1334 24.112 51.1674 24.2282 51.1785C24.3444 51.1896 24.4616 51.1776 24.5732 51.1432C24.6847 51.1088 24.7883 51.0526 24.8781 50.978L29.0001 47.463L33.1196 50.978C33.2093 51.0526 33.3129 51.1088 33.4245 51.1432C33.536 51.1776 33.6532 51.1896 33.7694 51.1785C33.8856 51.1674 33.9985 51.1334 34.1015 51.0785C34.2045 51.0236 34.2956 50.9488 34.3696 50.8585L39.5861 44.3245C39.6631 44.3375 39.7361 44.3485 39.8096 44.359C40.5961 44.459 41.3706 44.5215 42.1251 44.579V53.4375H15.8751V44.55C16.6001 44.5 17.3121 44.441 18.0001 44.373ZM10.3751 45.1445C11.6126 44.9006 12.8656 44.7427 14.1251 44.672V53.4375H10.3751V45.1445ZM1.94556 55.364C1.95012 53.261 2.59046 51.2085 3.7825 49.476C4.97455 47.7435 6.6626 46.4119 8.62506 45.656V62.247H1.94556V55.364ZM14.3751 62.247V59.1875H43.6251V62.247H14.3751ZM45.3751 62.247V58.3125C45.3751 58.1975 45.3525 58.0837 45.3086 57.9775C45.2646 57.8714 45.2002 57.7749 45.1189 57.6936C45.0377 57.6123 44.9412 57.5479 44.835 57.5039C44.7288 57.46 44.615 57.4374 44.5001 57.4375H13.5001C13.3851 57.4374 13.2713 57.46 13.1651 57.5039C13.0589 57.5479 12.9625 57.6123 12.8812 57.6936C12.7999 57.7749 12.7355 57.8714 12.6915 57.9775C12.6476 58.0837 12.625 58.1975 12.6251 58.3125V62.247H10.3751V55.1875H47.6251V62.247H45.3751ZM56.0546 62.247H49.3751V45.6565C51.3375 46.4123 53.0255 47.7438 54.2176 49.4762C55.4096 51.2087 56.05 53.261 56.0546 55.364V62.247Z" fill="#D63E45"/>
</svg>
