<svg width="63" height="58" viewBox="0 0 63 58" fill="none" xmlns="http://www.w3.org/2000/svg">
<path d="M57.917 0.36377H5.083C2.5562 0.36377 0.5 2.41987 0.5 4.94677V41.8726C0.5 44.3995 2.5562 46.4556 5.083 46.4556H21.9307L21.0775 50.5764C17.8838 51.5876 15.6773 53.2217 15.6773 55.5616V56.212C15.6773 57.024 16.4546 57.6363 17.4849 57.6363H43.6744C44.7047 57.6363 45.482 57.024 45.482 56.212V55.5616C45.482 53.2218 43.2756 51.5878 40.0821 50.5766L39.2316 46.4557H57.917C60.4439 46.4557 62.5 44.3995 62.5 41.8727V4.94677C62.5 2.41987 60.4438 0.36377 57.917 0.36377ZM5.083 2.36377H57.917C59.3413 2.36377 60.5 3.52247 60.5 4.94677V36.5606H2.5V4.94677C2.5 3.52247 3.6587 2.36377 5.083 2.36377ZM43.4819 55.5615V55.6362H17.6772V55.5615C17.6772 53.1777 23.3447 51.31 30.5795 51.31C34.0649 51.31 37.4325 51.7695 39.8192 52.5707C41.187 53.0303 43.4819 54.0293 43.4819 55.5615ZM37.9241 50.0167C35.6687 49.5436 33.1239 49.31 30.5796 49.31C28.0357 49.31 25.4913 49.5435 23.2362 50.0165L23.9732 46.4555H37.1891L37.9241 50.0167ZM57.917 44.4556H5.083C3.6587 44.4556 2.5 43.2969 2.5 41.8726V38.5606H60.5V41.8726C60.5 43.2969 59.3413 44.4556 57.917 44.4556Z" fill="#D63E45"/>
<path d="M45.7035 40.291H45.7001C45.1479 40.291 44.7021 40.7388 44.7021 41.291C44.7021 41.8432 45.1513 42.291 45.7036 42.291C46.2559 42.291 46.7036 41.8432 46.7036 41.291C46.7036 40.7388 46.2558 40.291 45.7035 40.291Z" fill="#D63E45"/>
<path d="M47.2891 15.9208C47.4844 16.1161 47.7403 16.2138 47.9961 16.2138C48.2519 16.2138 48.5078 16.1161 48.7031 15.9208L55.9341 8.68945C56.3247 8.29885 56.3247 7.66605 55.9341 7.27535C55.5435 6.88465 54.9107 6.88475 54.52 7.27535L47.289 14.5067C46.8984 14.8974 46.8984 15.5302 47.2891 15.9208Z" fill="#D63E45"/>
<path d="M52.8526 15.4077C52.4644 15.8008 52.4683 16.4341 52.8614 16.8218C53.0562 17.0142 53.3101 17.1104 53.564 17.1104C53.8218 17.1104 54.0801 17.0113 54.2754 16.813C54.5391 16.5464 56.9199 14.1651 56.9199 14.1651L55.5058 12.751C55.506 12.751 53.1163 15.1401 52.8526 15.4077Z" fill="#D63E45"/>
<path d="M47.0108 10.7383C47.2667 10.7383 47.5225 10.6406 47.7178 10.4453L50.3667 7.79638C50.7573 7.40578 50.7573 6.77298 50.3667 6.38228C49.9761 5.99158 49.3433 5.99168 48.9526 6.38228L46.3037 9.03118C45.9131 9.42178 45.9131 10.0546 46.3037 10.4453C46.4991 10.6406 46.755 10.7383 47.0108 10.7383Z" fill="#D63E45"/>
<path d="M50.7035 40.291H50.7001C50.1479 40.291 49.7021 40.7388 49.7021 41.291C49.7021 41.8432 50.1513 42.291 50.7036 42.291C51.2559 42.291 51.7036 41.8432 51.7036 41.291C51.7036 40.7388 51.2558 40.291 50.7035 40.291Z" fill="#D63E45"/>
<path d="M55.7035 40.291H55.7001C55.1479 40.291 54.7021 40.7388 54.7021 41.291C54.7021 41.8432 55.1513 42.291 55.7036 42.291C56.2559 42.291 56.7036 41.8432 56.7036 41.291C56.7036 40.7388 56.2558 40.291 55.7035 40.291Z" fill="#D63E45"/>
</svg>
