<svg width="62" height="62" viewBox="0 0 62 62" fill="none" xmlns="http://www.w3.org/2000/svg">
<path d="M7.4598 11.749C7.493 11.749 7.5272 11.747 7.5604 11.7441C8.1102 11.6904 8.5116 11.1865 8.4579 10.6367C8.4052 10.0879 7.9276 9.6924 7.3661 9.7383C6.8163 9.791 6.414 10.2803 6.4677 10.8301L6.4706 10.8604C6.5203 11.376 6.9519 11.749 7.4598 11.749Z" fill="#D63E45"/>
<path d="M11.7168 11.749C11.7607 11.749 11.8057 11.7461 11.8506 11.7402C12.3985 11.6699 12.7832 11.1533 12.7129 10.6054C12.6416 10.0585 12.1436 9.67669 11.5928 9.74109C11.0449 9.81239 10.6582 10.3134 10.7285 10.8612L10.7324 10.8915C10.7979 11.3945 11.2236 11.749 11.7168 11.749Z" fill="#D63E45"/>
<path d="M7.35632 35.9736C6.80752 36.0322 6.41002 36.5254 6.46862 37.0742L6.47152 37.1015C6.52622 37.6132 6.95692 37.9814 7.45982 37.9814C7.49592 37.9814 7.53302 37.9794 7.57112 37.9755C8.11992 37.9169 8.51542 37.4101 8.45682 36.8612C8.39832 36.3135 7.91102 35.916 7.35632 35.9736Z" fill="#D63E45"/>
<path d="M11.579 35.9775C11.0321 36.0556 10.6522 36.5625 10.7304 37.1093L10.7343 37.1366C10.8056 37.6337 11.2294 37.9813 11.7167 37.9813C11.7655 37.9813 11.8144 37.9784 11.8642 37.9715C12.4111 37.8934 12.789 37.3729 12.7109 36.826C12.6328 36.2791 12.1239 35.8994 11.579 35.9775Z" fill="#D63E45"/>
<path d="M59.374 21.334C60.8222 21.334 62 20.1582 62 18.7119V2.75778C62 1.31148 60.8223 0.135681 59.374 0.135681H2.626C1.1777 0.135681 0 1.31148 0 2.75778V18.7119C0 20.1582 1.1777 21.334 2.626 21.334H2.6699V26.3604H2.626C1.1777 26.3604 0 27.5361 0 28.9824V44.9404C0 46.3867 1.1777 47.5625 2.626 47.5625H30V53.8152C28.5454 54.1825 27.4055 55.3201 27.0368 56.7715H13.9531C13.4004 56.7715 12.9531 57.2188 12.9531 57.7715C12.9531 58.3242 13.4004 58.7715 13.9531 58.7715H27.0368C27.4871 60.5437 29.0858 61.8643 30.9999 61.8643C32.914 61.8643 34.5128 60.5437 34.963 58.7715H48.0438C48.5965 58.7715 49.0438 58.3242 49.0438 57.7715C49.0438 57.2188 48.5965 56.7715 48.0438 56.7715H34.9632C34.5945 55.3201 33.4546 54.1825 32 53.8152V47.5625H59.374C60.8222 47.5625 62 46.3867 62 44.9404V28.9824C62 27.5361 60.8223 26.3603 59.374 26.3603H59.3261V21.334H59.374ZM33.1016 57.7715C33.1016 58.9258 32.1592 59.8643 31 59.8643C29.8408 59.8643 28.8984 58.9258 28.8984 57.7715C28.8984 56.6172 29.8408 55.6777 31 55.6777C32.1592 55.6777 33.1016 56.6172 33.1016 57.7715ZM2 18.7119V2.75778C2 2.41498 2.2813 2.13568 2.626 2.13568H59.374C59.7188 2.13568 60 2.41498 60 2.75778V18.7119C60 19.0488 59.7129 19.334 59.374 19.334H46.3115V11.9141C46.3115 11.5039 46.0605 11.1348 45.6787 10.9844L31.3672 5.32708C31.1328 5.23328 30.8672 5.23328 30.6328 5.32708L16.3213 10.9843C15.9395 11.1347 15.6885 11.5038 15.6885 11.914V19.3339H2.626C2.2813 19.334 2 19.0547 2 18.7119ZM17.6885 27.249V12.5938L31 7.33198L44.3115 12.5937V27.249C43.667 32.7529 39.1904 37.4189 31 41.123C22.8096 37.4189 18.333 32.7529 17.6885 27.249ZM4.6699 21.334H15.6885V26.3604H4.6699V21.334ZM60 28.9824V44.9404C60 45.2773 59.7129 45.5625 59.374 45.5625H2.626C2.2813 45.5625 2 45.2832 2 44.9404V28.9824C2 28.6396 2.2813 28.3603 2.626 28.3603H15.8417C16.9295 34.3149 21.8811 39.2821 30.5957 43.1337C30.7246 43.1903 30.8623 43.2187 31 43.2187C31.1377 43.2187 31.2754 43.1904 31.4043 43.1337C40.119 39.2821 45.0706 34.3149 46.1583 28.3603H59.374C59.7129 28.3604 60 28.6455 60 28.9824ZM57.3262 26.3604H46.3115V21.334H57.3261L57.3262 26.3604Z" fill="#D63E45"/>
</svg>
