<svg width="62" height="56" viewBox="0 0 62 56" fill="none" xmlns="http://www.w3.org/2000/svg">
<path d="M21.67 42.8657C19.8653 42.8657 18.3975 44.331 18.3975 46.1318C18.3975 47.9331 19.8653 49.3984 21.67 49.3984C23.4737 49.3984 24.9415 47.9331 24.9415 46.1318C24.9415 44.3311 23.4737 42.8657 21.67 42.8657ZM21.67 47.3984C20.9688 47.3984 20.3975 46.83 20.3975 46.1318C20.3975 45.4336 20.9688 44.8657 21.67 44.8657C22.3712 44.8657 22.9415 45.4336 22.9415 46.1318C22.9415 46.83 22.3712 47.3984 21.67 47.3984Z" fill="#D63E45"/>
<path d="M61.8994 15.9272C61.7832 15.6884 61.5762 15.5058 61.3252 15.4194L17.9863 0.497099C17.3535 0.277899 16.6728 0.317899 16.0674 0.611799C15.4639 0.905699 15.0117 1.4155 14.794 2.0469L11.1563 12.5508C10.7061 13.857 11.4024 15.2866 12.71 15.7368L13.3372 15.9527L11.6524 20.8251C11.3711 21.6425 11.4258 22.5224 11.8077 23.3026C12.1886 24.0814 12.8477 24.6639 13.6622 24.9422L19.3487 26.9004L18.5743 29.1365C18.0264 30.7346 18.88 32.4837 20.4786 33.0354L22.4874 33.7265L20.8715 38.3904C18.0934 38.6735 15.7498 40.4216 14.6117 42.8416H10.0079V39.8274C10.0079 38.0584 8.5665 36.6189 6.794 36.6189H1.8525C0.8311 36.6191 0 37.4507 0 38.4727V53.7881C0 54.8101 0.8311 55.6411 1.8525 55.6411H6.7939C8.5664 55.6411 10.0078 54.2021 10.0078 52.4331V49.4189H14.6109C15.8562 52.0675 18.548 53.9106 21.6699 53.9106C25.9707 53.9106 29.4697 50.4209 29.4697 46.1318C29.4697 43.9442 28.557 41.968 27.0956 40.5529L28.7177 35.8702L31.3486 36.7754C31.6748 36.8887 32.0127 36.9448 32.3496 36.9448C32.8086 36.9448 33.2656 36.8403 33.6924 36.6333C34.4326 36.2744 34.9863 35.6519 35.2529 34.8813L36.0276 32.6441L44.3789 35.52C44.7275 35.6406 45.083 35.6972 45.4336 35.6972C46.7793 35.6972 48.041 34.8549 48.5068 33.516L48.8678 32.473L50.8877 33.1688C51.1797 33.2694 51.4785 33.3172 51.7715 33.3172C52.9004 33.3172 53.957 32.6107 54.3447 31.4891L55.6045 27.8514C56.0908 26.4383 55.3369 24.889 53.9199 24.3963L51.9031 23.7019L52.3442 22.4272L60.167 20.447C60.4941 20.3645 60.7568 20.1233 60.8672 19.8049L61.9453 16.6916C62.0322 16.4409 62.0156 16.166 61.8994 15.9272ZM8.0078 52.4331C8.0078 53.0991 7.4629 53.6411 6.7939 53.6411H2V38.6191H6.7939C7.4628 38.6191 8.0078 39.1611 8.0078 39.8276V52.4331ZM10.0078 47.4189V44.8418H13.9864C13.9156 45.2624 13.8701 45.6915 13.8701 46.1318C13.8701 46.5711 13.9156 46.9992 13.9861 47.4189H10.0078ZM27.4697 46.1318C27.4697 49.3183 24.8681 51.9106 21.6699 51.9106C18.4717 51.9106 15.8701 49.3183 15.8701 46.1318C15.8701 42.9438 18.4717 40.3501 21.6699 40.3501C24.8681 40.3501 27.4697 42.9438 27.4697 46.1318ZM25.4103 39.3062C24.661 38.8958 23.835 38.6124 22.9626 38.4662L24.3792 34.3777L26.826 35.2195L25.4103 39.3062ZM33.3623 34.2275C33.2705 34.4931 33.0781 34.7085 32.8193 34.8339C32.5586 34.9599 32.2685 34.9775 32.0009 34.8847L21.1298 31.1445C20.5732 30.9521 20.2753 30.3427 20.4657 29.7885L21.2402 27.5519L34.136 31.9927L33.3623 34.2275ZM45.0293 33.6294L14.3115 23.0508C14.001 22.9448 13.75 22.7222 13.6045 22.4238C13.458 22.124 13.4365 21.7876 13.543 21.477L15.2284 16.604L28.7979 21.2764C28.9717 21.3374 29.1622 21.3472 29.3428 21.3067L40.4209 18.8091L50.3024 22.21L46.6172 32.8608C46.3926 33.5083 45.6826 33.8511 45.0293 33.6294ZM53.2666 26.2861C53.6416 26.417 53.8418 26.8271 53.7139 27.1987L52.4541 30.8349C52.3281 31.2016 51.9092 31.4033 51.5381 31.2778L49.5217 30.5835L51.2493 25.5914L53.2666 26.2861ZM59.1533 18.6411L51.6191 20.5483L40.8027 16.8256C40.6982 16.789 40.5879 16.7709 40.4775 16.7709C40.4043 16.7709 40.33 16.7792 40.2578 16.7953L29.1797 19.293L13.3613 13.8462C13.0967 13.7549 12.956 13.4663 13.0468 13.2036L16.6845 2.6997C16.7441 2.5288 16.871 2.4453 16.9423 2.4106C17.0136 2.375 17.1591 2.3276 17.3339 2.3872L59.7275 16.9839L59.1533 18.6411Z" fill="#D63E45"/>
</svg>
