<svg width="65" height="64" viewBox="0 0 65 64" fill="none" xmlns="http://www.w3.org/2000/svg">
<path d="M64.1301 41C64.1014 40.8278 64.0282 40.6662 63.9176 40.5311C63.8071 40.396 63.6632 40.2922 63.5001 40.23L52.5801 36.12C52.3514 36.0331 52.0988 36.0331 51.8701 36.12L46.8701 38.02C44.3212 35.8016 41.3226 34.1607 38.0801 33.21C39.3799 31.9777 40.4228 30.5002 41.1488 28.8629C41.8748 27.2255 42.2695 25.4606 42.3101 23.67V15.37C42.3101 8.70998 38.3101 3.36998 31.7101 1.01998C26.5801 -0.790017 21.4001 -0.140017 18.9301 2.56998C13.2101 3.77998 10.6401 10.34 10.7101 14.49L10.7701 18.13V23.67C10.8141 25.4634 11.2123 27.2303 11.9417 28.8693C12.6711 30.5082 13.7172 31.9868 15.0201 33.22C5.50008 36.42 0.700076 42.72 0.500076 52.41C0.488027 52.6268 0.54689 52.8417 0.667766 53.0221C0.788642 53.2025 0.964962 53.3387 1.17008 53.41C8.21203 55.7533 15.5531 57.0768 22.9701 57.34H23.1601H23.2301C24.3967 57.3867 25.5634 57.41 26.7301 57.41C27.9201 57.41 29.1101 57.41 30.2901 57.32H30.4001H30.5601C34.6429 57.1472 38.7073 56.6726 42.7201 55.9C43.7073 57.5045 44.9349 58.948 46.3601 60.18C48.0318 61.5255 49.8581 62.6669 51.8001 63.58C51.9276 63.6365 52.0656 63.6657 52.2051 63.6657C52.3446 63.6657 52.4825 63.6365 52.6101 63.58C54.5519 62.6665 56.378 61.5251 58.0501 60.18C63.3201 55.6 65.4201 49 64.1301 41ZM19.6201 4.46998C19.8605 4.42843 20.0775 4.30039 20.2301 4.10998C22.0101 1.87998 26.6601 1.35998 31.0501 2.89998C33.2201 3.65998 40.3101 6.80998 40.3101 15.37V17.12H28.8401C24.5601 17.12 23.5201 15.77 21.3801 12.45C21.2849 12.3052 21.1538 12.1875 20.9996 12.1087C20.8453 12.0298 20.6732 11.9923 20.5001 12C20.3328 12.0003 20.1682 12.0425 20.0214 12.1229C19.8747 12.2033 19.7504 12.3192 19.6601 12.46L18.9201 13.63C17.2001 16.39 16.7401 17.13 14.0501 17.13H12.7501V14.47C12.6501 11.39 14.6301 5.31998 19.6201 4.46998ZM12.7601 23.67V19.12H14.0801C17.8101 19.12 18.8301 17.6 20.5601 14.83C22.4601 17.58 24.2401 19.12 28.8401 19.12H40.3101V23.68C40.3101 27.45 38.1201 31.17 34.4601 33.61C32.1127 35.208 29.3398 36.0649 26.5001 36.07C19.3301 36 12.7601 30.11 12.7601 23.67ZM16.7601 34.76C18.2218 35.8447 19.8495 36.6856 21.5801 37.25L23.0701 41.25L20.2101 51C20.1377 51.2106 20.1377 51.4394 20.2101 51.65L21.6201 55.21C15.1235 54.878 8.69701 53.7083 2.50008 51.73C2.95008 43 7.63008 37.48 16.7901 34.76H16.7601ZM23.8201 55.34L22.2001 51.26L25.0901 41.55C25.158 41.3455 25.158 41.1245 25.0901 40.92L23.9501 37.82C24.7989 37.9691 25.6583 38.0493 26.5201 38.06H26.6201C27.5875 38.0531 28.552 37.9526 29.5001 37.76L28.5001 40.97C28.4506 41.1466 28.4506 41.3334 28.5001 41.51L31.0401 51.05L29.6301 55.32C27.7167 55.4 25.7867 55.4067 23.8401 55.34H23.8201ZM31.8201 55.24L33.0801 51.42C33.1354 51.234 33.1354 51.036 33.0801 50.85L30.5301 41.29L31.7601 37.16C33.0973 36.6904 34.3705 36.0555 35.5501 35.27L36.2401 34.78C39.311 35.5357 42.1939 36.9142 44.7101 38.83L40.9201 40.27C40.7557 40.333 40.6109 40.4384 40.5003 40.5753C40.3896 40.7123 40.3171 40.876 40.2901 41.05C39.4468 45.4284 39.9452 49.9595 41.7201 54.05C38.4477 54.6502 35.1414 55.0476 31.8201 55.24ZM56.7501 58.64C55.3403 59.76 53.819 60.7318 52.2101 61.54C50.6013 60.7316 49.0799 59.7598 47.6701 58.64C46.2114 57.3898 44.9829 55.8939 44.0401 54.22C42.1401 50.82 41.5201 46.71 42.1901 41.94L47.0201 40.11L52.2001 38.11L62.2001 41.91C63.2501 49 61.4001 54.62 56.7601 58.64H56.7501Z" fill="#D63E45"/>
<path d="M56.5001 45.7L51.3001 52L48.9501 49.73C48.7592 49.5457 48.5028 49.4448 48.2374 49.4494C47.9721 49.4541 47.7194 49.564 47.5351 49.755C47.3508 49.946 47.2499 50.2023 47.2546 50.4677C47.2592 50.733 47.3692 50.9857 47.5601 51.17L50.6901 54.17C50.8755 54.3487 51.1226 54.449 51.3801 54.45H51.4301C51.5668 54.4418 51.7003 54.4056 51.8225 54.3437C51.9446 54.2818 52.0527 54.1954 52.1401 54.09L58.0501 47C58.2225 46.7945 58.3062 46.5289 58.2827 46.2616C58.2593 45.9944 58.1306 45.7474 57.9251 45.575C57.7196 45.4026 57.454 45.3189 57.1867 45.3424C56.9195 45.3658 56.6725 45.4945 56.5001 45.7Z" fill="#D63E45"/>
</svg>
