<svg width="36" height="32" viewBox="0 0 36 32" fill="none" xmlns="http://www.w3.org/2000/svg">
<rect x="0.560547" width="35.4394" height="32" rx="10" fill="#D63E45"/>
<path d="M8.59027 15.242C8.55351 15.0946 8.55081 14.9408 8.58237 14.7922C8.61393 14.6436 8.67893 14.5042 8.77243 14.3845C8.86592 14.2648 8.98546 14.1679 9.12197 14.1013C9.25848 14.0347 9.40837 14 9.56027 14H27.0003C27.1522 14 27.3021 14.0347 27.4386 14.1013C27.5751 14.1679 27.6946 14.2648 27.7881 14.3845C27.8816 14.5042 27.9466 14.6436 27.9782 14.7922C28.0097 14.9408 28.007 15.0946 27.9703 15.242L26.1593 22.485C26.0511 22.9177 25.8014 23.3018 25.4499 23.5763C25.0984 23.8508 24.6653 23.9999 24.2193 24H12.3413C11.8953 23.9999 11.4621 23.8508 11.1106 23.5763C10.7591 23.3018 10.5094 22.9177 10.4013 22.485L8.59027 15.243V15.242Z" stroke="white" stroke-width="2" stroke-linejoin="round"/>
<path d="M24.2803 14L20.2803 8M15.2803 18V20V18ZM21.2803 18V20V18ZM12.2803 14L16.2803 8L12.2803 14Z" stroke="white" stroke-width="2" stroke-linecap="round"/>
</svg>
