<svg width="62" height="60" viewBox="0 0 62 60" fill="none" xmlns="http://www.w3.org/2000/svg">
<path d="M59.249 50.1835V20.9395C59.249 18.2217 57.0381 16.0108 54.3203 16.0108H40.8665C40.8666 15.9994 40.8682 15.9885 40.8682 15.9771V10.5909C40.8682 6.00404 38.9834 3.55874 37.4024 2.31504C35.1075 0.509343 31.7842 -0.0960574 28.5147 0.696843C23.8379 1.82814 21.1553 5.43464 21.1553 10.5908V15.977C21.1553 15.9884 21.1569 15.9993 21.157 16.0107H7.6768C4.959 16.0107 2.7481 18.2216 2.7481 20.9394V50.1837C1.2027 50.382 0 51.6929 0 53.293V56.4961C0 58.2305 1.4111 59.6416 3.1455 59.6416H58.8545C60.5889 59.6416 62 58.2305 62 56.4961V53.293C62 51.6919 60.7958 50.3804 59.249 50.1835ZM54.3203 18.0107C55.9355 18.0107 57.249 19.3247 57.249 20.9394V50.1435H54.831V21.8257C54.831 21.2735 54.3837 20.8257 53.831 20.8257H39.583C40.0751 19.9593 40.4433 19.0144 40.6547 18.0108H54.3203V18.0107ZM49.8135 50.1436V41.4043C49.8135 34.0713 44.3233 27.7798 37.1553 26.6919V23.6719C37.4832 23.4095 37.7933 23.1271 38.0852 22.8257H52.8311V50.1436H49.8135ZM41.959 44.5313C41.4063 44.5313 40.959 44.9786 40.959 45.5313V50.1436H35.6424L33.7014 38.6589L34.8029 35.9292L35.2051 36.2402C35.6428 36.5806 36.3069 36.4814 36.6289 36.0322L40.9342 30.0368C45.0237 32.2231 47.8135 36.5451 47.8135 41.4043V50.1436H42.959V45.5313C42.959 44.9785 42.5117 44.5313 41.959 44.5313ZM20.0615 44.5313C19.5088 44.5313 19.0615 44.9786 19.0615 45.5313V50.1436H14.21V41.4043C14.21 36.5449 17.0001 32.2226 21.0899 30.0364L25.3917 36.0322C25.5778 36.2918 25.8855 36.4492 26.2042 36.4492C26.4239 36.4492 26.6397 36.3769 26.8155 36.2402L27.2021 35.9414L28.2986 38.6587L26.3549 50.1435H21.0616V45.5312C21.0615 44.9785 20.6143 44.5313 20.0615 44.5313ZM9.166 50.1436V22.8257H23.9383C24.2302 23.1271 24.5402 23.4095 24.8682 23.6719V26.6919C17.7002 27.7798 12.21 34.0713 12.21 41.4043V50.1436H9.166ZM26.9168 33.6342L26.4121 34.0244L22.9678 29.2231C23.8024 28.9368 24.6735 28.7343 25.5752 28.627L29.3985 31.7158L26.9762 33.5884C26.9573 33.605 26.9343 33.6163 26.9168 33.6342ZM30.1774 39.5469H31.8225L33.6134 50.1436H28.384L30.1774 39.5469ZM31.9932 37.5469H30.0069L28.8465 34.6705L31.0116 32.9971L33.1588 34.6577L31.9932 37.5469ZM32.624 31.7168L36.4483 28.627C37.35 28.7342 38.2211 28.9368 39.0557 29.2231L35.6084 34.0244L32.624 31.7168ZM35.1553 27.1013L31.0117 30.4483L26.8681 27.1013V24.9082C28.1298 25.4962 29.5305 25.834 31.0117 25.834C32.4929 25.834 33.8935 25.4962 35.1553 24.9082V27.1013ZM38.8682 15.9771C38.8682 20.3096 35.3438 23.834 31.0118 23.834C28.7638 23.834 26.7389 22.8798 25.3054 21.3612C25.2306 21.2217 25.1238 21.1092 24.9945 21.0192C23.8483 19.6535 23.1553 17.8954 23.1553 15.977V12.5477C25.4932 12.5779 26.6233 12.338 27.5127 10.1044C29.3574 11.8437 32.4531 12.5751 37.7188 12.5751C38.0904 12.5751 38.4748 12.5708 38.8682 12.5636V15.9771ZM38.7307 52.1436C38.6386 52.9929 37.9252 53.6582 37.0518 53.6582H24.9443C24.0709 53.6582 23.3584 52.9929 23.2664 52.1436H38.7307ZM28.9854 2.64064C31.6631 1.99174 34.3487 2.45704 36.1661 3.88724C37.9542 5.29354 38.8624 7.53954 38.8682 10.564C31.2862 10.7061 29.0752 9.49034 28.0215 7.49524C27.8477 7.16514 27.5059 6.96254 27.1377 6.96254C27.0996 6.96254 27.0596 6.96494 27.0205 6.96934C26.6103 7.01764 26.2725 7.31314 26.1689 7.71344C25.4404 10.5484 25.3496 10.5806 23.1552 10.5493C23.1689 6.35504 25.2383 3.54744 28.9854 2.64064ZM7.6768 18.0107H21.3688C21.5802 19.0143 21.9484 19.9592 22.4405 20.8256H8.166C7.6133 20.8256 7.166 21.2734 7.166 21.8256V50.1435H4.748V20.9395C4.748 19.3247 6.0615 18.0107 7.6768 18.0107ZM60 56.4961C60 57.1279 59.4863 57.6416 58.8545 57.6416H3.1455C2.5137 57.6416 2 57.1279 2 56.4961V53.293C2 52.6592 2.5137 52.1436 3.1455 52.1436H21.2664C21.3634 54.0959 22.9684 55.6582 24.9443 55.6582H37.0517C39.0285 55.6582 40.6336 54.0958 40.7306 52.1436H58.8544C59.4862 52.1436 59.9999 52.6592 59.9999 53.293V56.4961H60Z" fill="#008393"/>
<path d="M48.167 53.7794C47.6904 54.0597 47.5322 54.673 47.8115 55.1485L47.8213 55.1651C48.0068 55.4796 48.335 55.6524 48.6738 55.6524C48.8476 55.6524 49.0244 55.6065 49.1855 55.5118C49.6621 55.2315 49.8154 54.6104 49.5361 54.1348C49.2559 53.6583 48.6445 53.4981 48.167 53.7794Z" fill="#008393"/>
<path d="M51.791 53.7794C51.3144 54.0597 51.1562 54.673 51.4355 55.1485L51.4453 55.1651C51.6308 55.4796 51.959 55.6524 52.2978 55.6524C52.4716 55.6524 52.6484 55.6065 52.8095 55.5118C53.2861 55.2315 53.4394 54.6104 53.1601 54.1348C52.8799 53.6583 52.2676 53.4981 51.791 53.7794Z" fill="#008393"/>
</svg>
