<svg width="1440" height="601" viewBox="0 0 1440 601" fill="none" xmlns="http://www.w3.org/2000/svg">
<path d="M2077.78 521.637L2106 555.091V622H2077.78H1944.39H1782.79H1621.18H1457.01H1295.41H1133.8H972.197H810.592H648.987H484.816H323.211H161.605H0V477.031C53.8684 376.668 107.737 198.245 161.605 164.79C215.474 131.336 269.342 242.85 323.211 265.153C377.079 287.456 430.948 220.548 484.816 254.002C538.685 287.456 595.118 421.274 648.987 432.425C702.855 443.577 756.724 332.062 810.592 343.214C864.46 354.365 918.329 488.183 972.197 488.183C1026.07 488.183 1079.93 354.365 1133.8 265.153C1187.67 175.942 1241.54 131.336 1295.41 164.79C1349.28 198.245 1403.14 309.759 1457.01 298.608C1510.88 287.456 1564.75 153.639 1621.18 75.5786C1675.05 -2.48164 1728.92 -24.7845 1782.79 30.9727C1836.66 86.73 1890.53 220.548 1944.39 320.911C1998.26 421.274 2052.13 488.183 2077.78 521.637Z" fill="#CFEDF1"/>
</svg>
