<svg width="62" height="64" viewBox="0 0 62 64" fill="none" xmlns="http://www.w3.org/2000/svg">
<path fill-rule="evenodd" clip-rule="evenodd" d="M47.34 36.77H47.08V4.13001C47.08 3.58681 46.9729 3.04894 46.7647 2.54722C46.5565 2.04549 46.2514 1.58976 45.8668 1.20612C45.4823 0.822483 45.0258 0.518478 44.5236 0.311515C44.0213 0.104552 43.4832 -0.00130315 42.94 1.21076e-05H13.94H13.71H13.61C13.508 0.0409032 13.4134 0.0983403 13.33 0.170012L0.28 11.82C0.188547 11.9054 0.113923 12.0071 0.06 12.12V12.21C0.0247308 12.3063 0.004494 12.4075 0 12.51C0 12.51 0 12.51 0 12.57V55.19C0 56.2854 0.435124 57.3358 1.20965 58.1104C1.98417 58.8849 3.03466 59.32 4.13 59.32H37.13C38.6277 61.0391 40.5332 62.3544 42.6716 63.1451C44.81 63.9359 47.1129 64.1767 49.3686 63.8456C51.6244 63.5145 53.7609 62.6219 55.5818 61.2499C57.4028 59.878 58.8499 58.0705 59.7903 55.9935C60.7307 53.9166 61.1342 51.6366 60.9639 49.363C60.7935 47.0895 60.0547 44.8951 58.8153 42.9814C57.5759 41.0678 55.8757 39.4962 53.8706 38.4108C51.8655 37.3255 49.6199 36.7613 47.34 36.77ZM4.71 10.57L13 3.23001V9.44001C13 10.0049 12.7756 10.5467 12.3761 10.9461C11.9767 11.3456 11.4349 11.57 10.87 11.57H3.58L4.71 10.57ZM4.07 57.31C3.50682 57.31 2.96655 57.087 2.56739 56.6897C2.16822 56.2924 1.94264 55.7532 1.94 55.19V13.57H10.88C11.9753 13.57 13.0258 13.1349 13.8004 12.3604C14.5749 11.5858 15.01 10.5354 15.01 9.44001V2.00001H42.94C43.5049 2.00001 44.0467 2.22442 44.4461 2.62387C44.8456 3.02333 45.07 3.5651 45.07 4.13001V37C43.1993 37.292 41.4108 37.9734 39.82 39V19C39.82 18.7348 39.7146 18.4804 39.5271 18.2929C39.3396 18.1054 39.0852 18 38.82 18H7.94C7.67478 18 7.42043 18.1054 7.23289 18.2929C7.04536 18.4804 6.94 18.7348 6.94 19V49.83C6.94 50.0952 7.04536 50.3496 7.23289 50.5371C7.42043 50.7247 7.67478 50.83 7.94 50.83H33.74C33.8111 53.1152 34.4615 55.3449 35.63 57.31H4.07ZM33.83 48.83H29.53V43.42H35.66C34.6677 45.0714 34.0403 46.916 33.82 48.83H33.83ZM19.25 48.83V43.42H27.54V48.83H19.25ZM8.94 48.83V43.42H17.24V48.83H8.94ZM37.11 41.42H29.53V36H37.82V40.68C37.58 40.91 37.35 41.17 37.12 41.42H37.11ZM27.53 28.58V34H19.24V28.58H27.53ZM37.82 28.58V34H29.53V28.58H37.82ZM17.24 34H8.94V28.58H17.24V34ZM8.94 36H17.24V41.44H8.94V36ZM19.24 36H27.53V41.44H19.24V36ZM37.82 26.59H8.94V20H37.82V26.59ZM47.34 62C45.0433 62.002 42.7977 61.3228 40.8871 60.0482C38.9765 58.7737 37.4869 56.9612 36.6066 54.8399C35.7264 52.7186 35.495 50.3839 35.9419 48.1311C36.3887 45.8784 37.4937 43.8087 39.117 42.184C40.7402 40.5594 42.8089 39.4526 45.0613 39.0038C47.3137 38.555 49.6486 38.7844 51.7706 39.6628C53.8927 40.5413 55.7065 42.0293 56.9827 43.9388C58.2588 45.8483 58.94 48.0933 58.94 50.39C58.9347 53.4658 57.7112 56.4143 55.5372 58.5902C53.3632 60.766 50.4158 61.9921 47.34 62Z" fill="#D63E45"/>
<path fill-rule="evenodd" clip-rule="evenodd" d="M44 45C44 43.8954 44.8954 43 46 43H48C50.2091 43 52 44.7909 52 47V48C52 50.2091 50.2091 52 48 52H46V53H49C49.5523 53 50 53.4477 50 54C50 54.5523 49.5523 55 49 55H46V57C46 57.5523 45.5523 58 45 58C44.4477 58 44 57.5523 44 57V55H43C42.4477 55 42 54.5523 42 54C42 53.4477 42.4477 53 43 53H44V52H43C42.4477 52 42 51.5523 42 51C42 50.4477 42.4477 50 43 50H44V49V45ZM46 49V50H48C49.1046 50 50 49.1046 50 48V47C50 45.8954 49.1046 45 48 45H47C46.4477 45 46 45.4477 46 46V49Z" fill="#D63E45"/>
</svg>
