<svg width="62" height="50" viewBox="0 0 62 50" fill="none" xmlns="http://www.w3.org/2000/svg">
<path d="M21.2769 19.2744H12.4419C11.8897 19.2744 11.4419 19.7222 11.4419 20.2744C11.4419 20.8266 11.8897 21.2744 12.4419 21.2744H21.2769C21.8291 21.2744 22.2769 20.8266 22.2769 20.2744C22.2769 19.7222 21.8291 19.2744 21.2769 19.2744Z" fill="#D63E45"/>
<path d="M21.2769 14.3828H12.4419C11.8897 14.3828 11.4419 14.8306 11.4419 15.3828C11.4419 15.935 11.8897 16.3828 12.4419 16.3828H21.2769C21.8291 16.3828 22.2769 15.935 22.2769 15.3828C22.2769 14.8306 21.8291 14.3828 21.2769 14.3828Z" fill="#D63E45"/>
<path d="M21.2769 24.166H12.4419C11.8897 24.166 11.4419 24.6138 11.4419 25.166C11.4419 25.7182 11.8897 26.166 12.4419 26.166H21.2769C21.8291 26.166 22.2769 25.7182 22.2769 25.166C22.2769 24.6138 21.8291 24.166 21.2769 24.166Z" fill="#D63E45"/>
<path d="M40.2961 20.338C40.4629 25.0043 44.301 28.7519 49.0078 28.7519C53.8193 28.7519 57.7344 24.8369 57.7344 20.0248C57.7344 19.9525 57.7253 19.8826 57.7234 19.8107C57.7239 19.7763 57.7213 19.744 57.7183 19.7097C57.5505 15.0457 53.713 11.3006 49.0078 11.3006C49.0076 11.3006 49.0073 11.3006 49.0071 11.3006C49.007 11.3006 49.007 11.3007 49.0068 11.3007C44.1947 11.3012 40.2802 15.2145 40.2802 20.0248C40.2802 20.0993 40.2895 20.1716 40.2914 20.2457C40.2911 20.2772 40.2936 20.3067 40.2961 20.338ZM42.3134 20.6811C43.7855 19.3759 45.925 19.188 47.5752 20.1888C46.8187 21.2666 46.4071 22.5448 46.4071 23.8882C46.4071 24.7717 46.5855 25.6272 46.9212 26.4168C44.4305 25.6017 42.5754 23.3729 42.3134 20.6811ZM49.4553 26.7293C48.788 25.9289 48.4072 24.9421 48.4072 23.8882C48.4072 22.9938 48.6686 22.1395 49.1556 21.4123C50.2138 22.1259 51.4532 22.5122 52.75 22.5122C52.8154 22.5122 52.8809 22.5112 52.9463 22.5093C53.8295 22.4831 54.6791 22.2795 55.4578 21.9209C54.6774 24.5711 52.3076 26.5402 49.4553 26.7293ZM55.7014 19.3738C54.9204 20.067 53.9434 20.4787 52.8867 20.5103C52.0256 20.5358 51.1766 20.3061 50.4413 19.8603C51.1967 18.7836 51.6085 17.5061 51.6085 16.1631C51.6085 15.28 51.4302 14.4251 51.095 13.6363C53.5861 14.4518 55.4412 16.6816 55.7014 19.3738ZM48.5601 13.3234C49.2268 14.1224 49.6083 15.1087 49.6083 16.1631C49.6083 17.0584 49.3458 17.9132 48.8581 18.6402C46.9688 17.3734 44.5687 17.2127 42.5545 18.139C43.3322 15.4855 45.704 13.5128 48.5601 13.3234Z" fill="#D63E45"/>
<path d="M32.4385 16.4351C31.8863 16.4351 31.4385 16.8829 31.4385 17.4351V22.6177C31.4385 23.1699 31.8863 23.6177 32.4385 23.6177C32.9912 23.6177 33.4385 23.1699 33.4385 22.6177V17.4351C33.4385 16.8828 32.9912 16.4351 32.4385 16.4351Z" fill="#D63E45"/>
<path d="M36.3174 16.4351C35.7647 16.4351 35.3174 16.8829 35.3174 17.4351V22.6177C35.3174 23.1699 35.7647 23.6177 36.3174 23.6177C36.8701 23.6177 37.3174 23.1699 37.3174 22.6177V17.4351C37.3174 16.8828 36.8701 16.4351 36.3174 16.4351Z" fill="#D63E45"/>
<path d="M62 20.0352C62 13.0088 56.2822 7.29199 49.2539 7.29199H39.2217H8.3691V5.42869C8.3691 2.75339 6.1928 0.577087 3.5175 0.577087H1C0.4478 0.577087 0 1.02489 0 1.57709C0 2.12929 0.4478 2.57709 1 2.57709H3.5176C5.0899 2.57709 6.3692 3.85639 6.3692 5.42869V10.0351H3.4971C2.2647 10.0351 1.2622 11.0375 1.2622 12.27V22.0874C1.2622 23.3198 2.2646 24.3223 3.4971 24.3223H6.3692V27.1109H3.4971C2.2647 27.1109 1.2622 28.1148 1.2622 29.3492V34.2135C1.2622 35.4459 2.2646 36.4484 3.4971 36.4484H6.3692V48.423C6.3692 48.9752 6.817 49.423 7.3692 49.423C7.9214 49.423 8.3692 48.9752 8.3692 48.423V40.4542H12.2935V42.9977C12.2935 44.445 13.4712 45.6227 14.9185 45.6227H37.5108C38.9581 45.6227 40.1358 44.445 40.1358 42.9977V40.4542H43.1778V42.9977C43.1778 44.445 44.3555 45.6227 45.8028 45.6227H52.8897C54.337 45.6227 55.5147 44.445 55.5147 42.9977V40.4542H58.0245C60.2013 40.4542 61.9727 38.6842 61.9727 36.5089V20.575C61.9803 20.3947 62 20.2173 62 20.0352ZM60 20.0352C60 20.082 59.9936 20.1271 59.993 20.1737C59.9893 20.2084 59.9727 20.2387 59.9727 20.2744V20.5747C59.6889 26.2487 54.9976 30.7812 49.2539 30.7812H39.2217C33.2959 30.7812 28.4751 25.9604 28.4751 20.0351C28.4751 14.1113 33.2959 9.29189 39.2217 9.29189H49.2539C55.1797 9.29199 60 14.1113 60 20.0352ZM3.4971 22.3223C3.3697 22.3223 3.2622 22.2149 3.2622 22.0874V12.27C3.2622 12.1426 3.3696 12.0351 3.4971 12.0351H6.3692V22.3222H3.4971V22.3223ZM3.4971 34.4482C3.3697 34.4482 3.2622 34.3408 3.2622 34.2133V29.349C3.2622 29.222 3.3721 29.1107 3.4971 29.1107H6.3692V34.4481H3.4971V34.4482ZM8.3691 35.4482V32.7812H21.4106C24.8476 32.7812 27.0385 34.0405 29.4941 37.4277L30.2385 38.4541H8.3691V35.4482ZM32.9678 40.4541V43.6226H29.7989V40.4541H32.9678ZM22.6304 40.4541V43.6226H19.4619V40.4541H22.6304ZM24.6304 40.4541H27.7989V43.6226H24.6304V40.4541ZM14.2935 42.9976V40.4541H17.462V43.6226H14.9185C14.5796 43.6226 14.2935 43.3364 14.2935 42.9976ZM38.1357 42.9976C38.1357 43.3365 37.8496 43.6226 37.5107 43.6226H34.9677V40.4541H38.1357V42.9976ZM45.1777 42.9976V40.4541H48.3457V43.6226H45.8027C45.4639 43.6226 45.1777 43.3364 45.1777 42.9976ZM53.5146 42.9976C53.5146 43.3365 53.2285 43.6226 52.8896 43.6226H50.3457V40.4541H53.5146V42.9976ZM59.9727 36.5088C59.9727 37.5816 59.0987 38.4541 58.0245 38.4541H32.7092L31.1133 36.2539C28.2949 32.3667 25.4839 30.7812 21.4107 30.7812H8.3691V28.1108V23.3222V11.0352V9.29199H32.395C28.8428 11.5562 26.4751 15.5204 26.4751 20.0352C26.4751 27.0635 32.1934 32.7813 39.2217 32.7813H49.2539C53.7513 32.7813 57.7032 30.4339 59.9727 26.9062V36.5088Z" fill="#D63E45"/>
</svg>
