<svg width="64" height="64" viewBox="0 0 64 64" fill="none" xmlns="http://www.w3.org/2000/svg">
<path d="M42.8993 24.6755C43.0632 24.5114 43.1553 24.289 43.1553 24.057C43.1553 23.8251 43.0632 23.6026 42.8993 23.4385L40.5607 21.1C40.3936 20.9418 40.1722 20.8536 39.942 20.8536C39.7118 20.8536 39.4904 20.9418 39.3232 21.1L21.0993 39.3245C21.0179 39.4057 20.9534 39.5021 20.9094 39.6082C20.8654 39.7144 20.8428 39.8281 20.8428 39.943C20.8428 40.0579 20.8654 40.1717 20.9094 40.2778C20.9534 40.3839 21.0179 40.4803 21.0993 40.5615L23.4372 42.9C23.5185 42.9813 23.6149 43.0458 23.7211 43.0899C23.8273 43.1339 23.9411 43.1565 24.056 43.1565C24.1709 43.1565 24.2847 43.1339 24.3909 43.0899C24.4971 43.0458 24.5935 42.9813 24.6748 42.9L42.8993 24.6755ZM22.9543 39.943L39.9422 22.955L41.0422 24.055L24.0562 41.045L22.9543 39.943Z" fill="#D63E45"/>
<path d="M62.5041 49.859L42.6291 29.984L46.6076 26.0055C48.7582 26.6327 51.0377 26.6716 53.2085 26.118C55.3792 25.5645 57.3618 24.4389 58.9496 22.8585C58.9671 22.8436 58.9838 22.8277 58.9996 22.811L62.2496 19.561C63.3659 18.4416 63.9929 16.9252 63.9929 15.3443C63.9929 13.7633 63.3659 12.2469 62.2496 11.1275L60.9321 9.81002C60.7679 9.64603 60.5454 9.55392 60.3133 9.55392C60.0813 9.55392 59.8587 9.64603 59.6946 9.81002L52.6716 16.8375L48.4466 15.553L47.1621 11.3285L54.1896 4.30002C54.2709 4.21881 54.3354 4.12235 54.3794 4.01618C54.4234 3.91001 54.4461 3.79621 54.4461 3.68127C54.4461 3.56634 54.4234 3.45254 54.3794 3.34637C54.3354 3.2402 54.2709 3.14374 54.1896 3.06252L52.8721 1.74602C52.3184 1.19217 51.661 0.752815 50.9375 0.453061C50.214 0.153307 49.4385 -0.000976563 48.6553 -0.000976562C47.8722 -0.000976563 47.0967 0.153307 46.3732 0.453061C45.6496 0.752815 44.9923 1.19217 44.4386 1.74602L41.1886 4.99602C41.1725 5.01182 41.1573 5.02852 41.1431 5.04602C39.5612 6.63366 38.4344 8.61677 37.8803 10.7884C37.3262 12.96 37.3652 15.2406 37.9931 17.392L29.9496 25.438L12.3691 7.85902L12.5931 5.00902C12.607 4.83236 12.5669 4.65564 12.4781 4.50225C12.3894 4.34886 12.2562 4.22604 12.0961 4.15002L3.53757 0.0845252C3.37432 0.00706019 3.1911 -0.0179935 3.01304 0.0128013C2.83499 0.0435962 2.67082 0.128731 2.54307 0.256525L0.256072 2.54352C0.128278 2.67128 0.043143 2.83544 0.0123482 3.0135C-0.0184466 3.19155 0.00660706 3.37477 0.084072 3.53802L4.14957 12.0965C4.22586 12.2564 4.34875 12.3894 4.50206 12.4781C4.65538 12.5668 4.83196 12.6071 5.00857 12.5935L7.85857 12.3695L25.4376 29.95L17.3916 37.9945C15.2399 37.3667 12.9591 37.3278 10.7873 37.8819C8.61543 38.436 6.63206 39.5627 5.04407 41.1445C5.02655 41.1582 5.00986 41.1729 4.99407 41.1885L1.74407 44.4385C1.19022 44.9922 0.750862 45.6496 0.451108 46.3731C0.151354 47.0966 -0.00292969 47.8721 -0.00292969 48.6553C-0.00292969 49.4384 0.151354 50.2139 0.451108 50.9374C0.750862 51.6609 1.19022 52.3183 1.74407 52.872L3.06107 54.189C3.14225 54.2703 3.23866 54.3348 3.34479 54.3788C3.45092 54.4228 3.56468 54.4455 3.67957 54.4455C3.79446 54.4455 3.90823 54.4228 4.01436 54.3788C4.12049 54.3348 4.2169 54.2703 4.29807 54.189L11.3281 47.1625L15.5526 48.447L16.8371 52.6715L9.81007 59.7C9.72877 59.7812 9.66426 59.8776 9.62026 59.9837C9.57625 60.0899 9.55359 60.2036 9.55359 60.3185C9.55359 60.4334 9.57625 60.5472 9.62026 60.6533C9.66426 60.7594 9.72877 60.8558 9.81007 60.937L11.1271 62.254C11.6808 62.8079 12.3381 63.2472 13.0617 63.547C13.7852 63.8467 14.5607 64.001 15.3438 64.001C16.127 64.001 16.9025 63.8467 17.626 63.547C18.3495 63.2472 19.0069 62.8079 19.5606 62.254L22.8106 59.004C22.8261 58.989 22.8406 58.973 22.8546 58.957C24.437 57.3689 25.5641 55.3851 26.1182 53.2127C26.6723 51.0403 26.6331 48.7591 26.0046 46.607L29.9831 42.6285L49.8581 62.503C50.3322 62.9773 50.8951 63.3535 51.5146 63.6102C52.1342 63.8669 52.7982 63.999 53.4688 63.999C54.1394 63.999 54.8035 63.8669 55.423 63.6102C56.0426 63.3535 56.6055 62.9773 57.0796 62.503L62.5036 57.0795C63.4596 56.1213 63.9965 54.823 63.9966 53.4694C63.9967 52.1158 63.46 50.8174 62.5041 49.859ZM8.81107 10.8465C8.6468 10.6826 8.42417 10.5905 8.19207 10.5905C8.16957 10.5905 8.14657 10.5905 8.12357 10.5905L5.47357 10.799L1.93007 3.34452L3.34407 1.93052L10.7996 5.47352L10.5911 8.12352C10.5812 8.24963 10.5987 8.37639 10.6424 8.49507C10.6862 8.61375 10.7552 8.72155 10.8446 8.81102L28.7106 26.6755L26.6751 28.711L8.81107 10.8465ZM24.1826 46.6415C24.8319 48.5541 24.9314 50.6105 24.4699 52.5769C24.0083 54.5433 23.0041 56.3406 21.5716 57.7645C21.5566 57.779 21.5426 57.7945 21.5291 57.81L18.3231 61.016C17.5328 61.8061 16.4611 62.25 15.3436 62.25C14.2261 62.25 13.1543 61.8061 12.3641 61.016L11.6641 60.316L18.4436 53.5365C18.5557 53.4245 18.6353 53.2841 18.6737 53.1303C18.7122 52.9765 18.7082 52.8152 18.6621 52.6635L17.0911 47.491C17.0492 47.3536 16.9741 47.2286 16.8726 47.127C16.771 47.0254 16.646 46.9504 16.5086 46.9085L11.3346 45.3355C11.1829 45.2896 11.0216 45.2856 10.8679 45.3241C10.7141 45.3626 10.5737 45.442 10.4616 45.554L3.68207 52.3335L2.98207 51.6335C2.19195 50.8433 1.74807 49.7715 1.74807 48.654C1.74807 47.5365 2.19195 46.4648 2.98207 45.6745L6.18757 42.469C6.20357 42.4555 6.21857 42.4415 6.23357 42.4265C7.65737 40.9938 9.45473 39.9896 11.4211 39.528C13.3875 39.0664 15.444 39.166 17.3566 39.8155C17.5109 39.867 17.6766 39.8746 17.835 39.8373C17.9934 39.8001 18.1384 39.7195 18.2536 39.6045L39.6036 18.2545C39.7188 18.1395 39.7995 17.9945 39.8368 17.8361C39.8741 17.6776 39.8664 17.5119 39.8146 17.3575C39.1651 15.445 39.0654 13.3885 39.527 11.4221C39.9886 9.45568 40.9929 7.65833 42.4256 6.23452C42.4411 6.21952 42.4561 6.20352 42.4696 6.18752L45.6736 2.98303C46.4638 2.1929 47.5356 1.74902 48.6531 1.74902C49.7706 1.74902 50.8423 2.1929 51.6326 2.98303L52.3326 3.68302L45.5536 10.462C45.4415 10.5741 45.3619 10.7145 45.3234 10.8683C45.2849 11.022 45.289 11.1834 45.3351 11.335L46.9076 16.509C46.9495 16.6465 47.0247 16.7715 47.1263 16.8731C47.228 16.9746 47.3531 17.0497 47.4906 17.0915L52.6646 18.6645C52.8162 18.7108 52.9776 18.7148 53.1314 18.6763C53.2852 18.6379 53.4256 18.5582 53.5376 18.446L60.3171 11.6665L61.0171 12.3665C61.806 13.1574 62.249 14.2289 62.249 15.346C62.249 16.4631 61.806 17.5346 61.0171 18.3255L57.8171 21.5255C57.8001 21.54 57.7831 21.5555 57.7671 21.5715C56.3434 23.0044 54.546 24.0087 52.5796 24.4703C50.6131 24.9319 48.5566 24.8322 46.6441 24.1825C46.4898 24.1309 46.3242 24.1233 46.1658 24.1606C46.0075 24.1979 45.8626 24.2785 45.7476 24.3935L24.3976 45.7435C24.2815 45.8582 24.1999 46.0031 24.1619 46.1618C24.1239 46.3205 24.1311 46.4867 24.1826 46.6415ZM61.2666 55.8415L55.8426 61.2655C55.213 61.8949 54.3593 62.2485 53.4691 62.2485C52.5789 62.2485 51.7251 61.8949 51.0956 61.2655L31.2211 41.392L41.3916 31.2215L61.2666 51.096C61.895 51.7261 62.2479 52.5796 62.2479 53.4695C62.2479 54.3594 61.895 55.213 61.2666 55.843V55.8415Z" fill="#D63E45"/>
<path d="M42.0101 35.022C41.9289 34.9407 41.8325 34.8762 41.7264 34.8322C41.6202 34.7882 41.5065 34.7656 41.3916 34.7656C41.2767 34.7656 41.1629 34.7882 41.0568 34.8322C40.9507 34.8762 40.8543 34.9407 40.7731 35.022L35.0231 40.772C34.9418 40.8532 34.8773 40.9496 34.8333 41.0558C34.7893 41.1619 34.7666 41.2756 34.7666 41.3905C34.7666 41.5054 34.7893 41.6192 34.8333 41.7253C34.8773 41.8315 34.9418 41.9279 35.0231 42.009L52.6931 59.679C52.9011 59.8846 53.182 59.9994 53.4744 59.9985C53.7668 59.9975 54.0469 59.8809 54.2536 59.674L59.6756 54.25C59.883 54.0425 59.9995 53.761 59.9995 53.4675C59.9995 53.1741 59.883 52.8926 59.6756 52.685L42.0101 35.022ZM53.4691 57.9835L36.8776 41.392L41.3916 36.878L57.9831 53.47L53.4691 57.9835Z" fill="#D63E45"/>
</svg>
