<svg width="64" height="51" viewBox="0 0 64 51" fill="none" xmlns="http://www.w3.org/2000/svg">
<path fill-rule="evenodd" clip-rule="evenodd" d="M58.6802 42.1351V22.4751C62.6802 18.1751 64.2602 12.3151 63.1402 5.38514C63.1106 5.21187 63.0358 5.04946 62.9235 4.91427C62.8111 4.77909 62.6651 4.67591 62.5002 4.61514L52.0002 0.635141C51.7715 0.548296 51.5189 0.548296 51.2902 0.635141L40.7802 4.63514C40.6399 4.69045 40.514 4.77675 40.4119 4.88758C40.3097 4.9984 40.2339 5.13089 40.1902 5.27514H7.56017C6.34006 5.27777 5.17053 5.76294 4.30684 6.62475C3.44315 7.48656 2.95545 8.65504 2.95017 9.87514V42.1851C1.88369 42.427 0.943991 43.054 0.311162 43.9458C-0.321667 44.8377 -0.603107 45.9317 -0.479216 47.0182C-0.355326 48.1047 0.165178 49.1073 0.982539 49.8338C1.7999 50.5603 2.85662 50.9596 3.95017 50.9551H57.9502C59.0639 50.9533 60.1363 50.5329 60.9546 49.7774C61.7729 49.0219 62.2774 47.9864 62.368 46.8764C62.4586 45.7663 62.1288 44.6628 61.4438 43.7846C60.7589 42.9063 59.7689 42.3176 58.6702 42.1351H58.6802ZM51.6802 2.63514L61.2902 6.27514C62.2902 13.0551 60.4802 18.4451 56.0202 22.2751C54.6734 23.3493 53.219 24.2809 51.6802 25.0551C50.1412 24.2811 48.6868 23.3494 47.3402 22.2751C44.336 19.7267 42.4158 16.1293 41.9702 12.2151C41.9702 12.2151 41.9702 12.2151 41.9702 12.1451C41.7492 10.1888 41.7862 8.21187 42.0802 6.26514L51.6802 2.63514ZM42.5002 19.7851H29.0202C28.755 19.7851 28.5006 19.8905 28.3131 20.078C28.1255 20.2656 28.0202 20.5199 28.0202 20.7851C28.0202 21.0504 28.1255 21.3047 28.3131 21.4922C28.5006 21.6798 28.755 21.7851 29.0202 21.7851H44.0202C44.6343 22.5024 45.3029 23.171 46.0202 23.7851C47.4639 24.9409 49.022 25.9461 50.6702 26.7851V36.2751H11.0802V13.2251H40.0802C40.446 15.5501 41.2684 17.7796 42.5002 19.7851ZM7.56017 7.25514H39.9202C39.7901 8.58455 39.7701 9.92243 39.8602 11.2551H10.0802C9.81495 11.2551 9.5606 11.3605 9.37306 11.548C9.18552 11.7356 9.08017 11.9899 9.08017 12.2551V37.3151C9.08017 37.5804 9.18552 37.8347 9.37306 38.0222C9.5606 38.2098 9.81495 38.3151 10.0802 38.3151H51.6502C51.9154 38.3151 52.1697 38.2098 52.3573 38.0222C52.5448 37.8347 52.6502 37.5804 52.6502 37.3151V26.8151C54.051 26.0912 55.389 25.2516 56.6502 24.3051V42.0651H4.95017V9.87514C4.95016 9.182 5.22482 8.51711 5.71401 8.02605C6.20319 7.53499 6.86703 7.25779 7.56017 7.25514ZM57.9502 48.9551H3.95017C3.30039 48.9551 2.67722 48.697 2.21776 48.2376C1.75829 47.7781 1.50017 47.1549 1.50017 46.5051C1.50017 45.8554 1.75829 45.2322 2.21776 44.7727C2.67722 44.3133 3.30039 44.0551 3.95017 44.0551H57.9502C58.5999 44.0551 59.2231 44.3133 59.6826 44.7727C60.142 45.2322 60.4002 45.8554 60.4002 46.5051C60.4002 47.1549 60.142 47.7781 59.6826 48.2376C59.2231 48.697 58.5999 48.9551 57.9502 48.9551Z" fill="#D63E45"/>
<path fill-rule="evenodd" clip-rule="evenodd" d="M50.1404 18.0351C50.3258 18.2138 50.5729 18.3141 50.8304 18.3151H50.8804C51.0171 18.307 51.1506 18.2708 51.2728 18.2088C51.3949 18.1469 51.503 18.0606 51.5904 17.9551L57.2704 11.1351C57.4401 10.9309 57.5218 10.6677 57.4974 10.4032C57.473 10.1388 57.3446 9.89489 57.1404 9.72515C56.9362 9.55541 56.6729 9.47375 56.4085 9.49813C56.1441 9.52251 55.9001 9.65093 55.7304 9.85515L50.7304 15.8551L48.5004 13.6951C48.4058 13.6039 48.2942 13.5321 48.172 13.484C48.0497 13.4359 47.9191 13.4123 47.7877 13.4146C47.6563 13.4169 47.5267 13.4451 47.4062 13.4975C47.2857 13.5499 47.1767 13.6256 47.0854 13.7201C46.9941 13.8147 46.9224 13.9263 46.8742 14.0486C46.8261 14.1709 46.8025 14.3014 46.8048 14.4328C46.8095 14.6982 46.9194 14.9508 47.1104 15.1351L50.1404 18.0351Z" fill="#D63E45"/>
<path fill-rule="evenodd" clip-rule="evenodd" d="M28.7598 29.5651H46.0798C46.345 29.5651 46.5993 29.4598 46.7869 29.2722C46.9744 29.0847 47.0798 28.8303 47.0798 28.5651C47.0798 28.2999 46.9744 28.0456 46.7869 27.858C46.5993 27.6705 46.345 27.5651 46.0798 27.5651H28.7598C28.4945 27.5651 28.2402 27.6705 28.0527 27.858C27.8651 28.0456 27.7598 28.2999 27.7598 28.5651C27.7598 28.8303 27.8651 29.0847 28.0527 29.2722C28.2402 29.4598 28.4945 29.5651 28.7598 29.5651Z" fill="#D63E45"/>
<path fill-rule="evenodd" clip-rule="evenodd" d="M18.6695 29.1251L18.9895 29.2151V30.2151C18.9807 30.3687 19.0144 30.5217 19.0867 30.6575C19.159 30.7933 19.2672 30.9066 19.3995 30.9851C19.5356 31.0785 19.6944 31.1336 19.8592 31.1445C20.024 31.1554 20.1886 31.1217 20.3359 31.0471C20.4832 30.9724 20.6077 30.8595 20.6963 30.7201C20.7849 30.5808 20.8343 30.4202 20.8395 30.2551V29.1951L21.1595 29.0951C21.789 28.9154 22.3588 28.57 22.8095 28.0951C23.119 27.7889 23.3553 27.4166 23.5007 27.0063C23.6462 26.5959 23.697 26.1579 23.6495 25.7251C23.5397 25.111 23.2517 24.5428 22.8214 24.0912C22.3911 23.6396 21.8375 23.3245 21.2295 23.1851C20.8895 23.0851 20.5395 23.0451 20.2295 22.9651C19.9195 22.8851 19.0895 22.6851 18.8495 22.2351C18.7908 22.1206 18.76 21.9938 18.7595 21.8651C18.7488 21.709 18.7749 21.5526 18.8357 21.4085C18.8965 21.2643 18.9903 21.1364 19.1095 21.0351C19.3181 20.9144 19.5503 20.8403 19.7902 20.8179C20.0302 20.7955 20.2721 20.8252 20.4995 20.9051C20.8626 20.9988 21.2029 21.1655 21.4995 21.3951C21.6533 21.5509 21.854 21.6519 22.0708 21.6826C22.2875 21.7133 22.5084 21.672 22.6995 21.5651C22.8199 21.4782 22.918 21.3641 22.9858 21.232C23.0536 21.0999 23.0891 20.9536 23.0895 20.8051C23.0787 20.6121 23.0277 20.4235 22.9399 20.2513C22.8521 20.0792 22.7293 19.9272 22.5795 19.8051C22.1708 19.4582 21.6887 19.2085 21.1695 19.0751L20.8495 18.9851V17.7251C20.855 17.607 20.8325 17.4893 20.7838 17.3815C20.7351 17.2738 20.6617 17.1791 20.5695 17.1051C20.0895 16.7351 19.0095 16.8751 19.0095 17.6251V18.9051L18.6895 18.9951C17.9615 19.2025 17.3439 19.6872 16.9695 20.3451C16.5624 21.0091 16.3965 21.7931 16.4995 22.5651C16.5289 22.8635 16.6251 23.1514 16.7809 23.4076C16.9367 23.6638 17.1481 23.8817 17.3995 24.0451C17.9229 24.3192 18.4866 24.5082 19.0695 24.6051C19.4531 24.6878 19.8257 24.8153 20.1795 24.9851C20.3591 25.0781 20.5269 25.1923 20.6795 25.3251C20.8842 25.4522 21.0443 25.6399 21.1375 25.8621C21.2306 26.0843 21.2523 26.33 21.1995 26.5651C21.1051 26.7967 20.947 26.9967 20.7434 27.1419C20.5398 27.287 20.2991 27.3714 20.0495 27.3851C19.7258 27.4098 19.4009 27.3553 19.103 27.2264C18.8051 27.0975 18.543 26.898 18.3395 26.6451C18.1469 26.3596 17.8602 26.1508 17.5295 26.0551C17.2817 26.0059 17.0244 26.0524 16.8095 26.1851C16.6957 26.2614 16.5989 26.3602 16.5249 26.4755C16.4509 26.5907 16.4014 26.7199 16.3795 26.8551C16.358 27.0181 16.37 27.1837 16.4147 27.3419C16.4594 27.5001 16.5359 27.6475 16.6395 27.7751C17.1453 28.4404 17.8604 28.9159 18.6695 29.1251Z" fill="#D63E45"/>
</svg>
