<svg width="62" height="56" viewBox="0 0 62 56" fill="none" xmlns="http://www.w3.org/2000/svg">
<path d="M59.5166 12.3369H58.9092V1.7627C58.9092 1.2105 58.4619 0.762695 57.9092 0.762695H40.4795C39.9268 0.762695 39.4795 1.2105 39.4795 1.7627V4.25389H23.0488C22.4961 4.25389 22.0488 4.70169 22.0488 5.25389V12.3369H17.3985L16.8378 8.4018C16.4648 6.5996 15.2304 4.4511 11.4648 4.4511H4.1465C1.4238 4.4512 0 6.5396 0 8.6021C0 10.6426 1.4238 12.7085 4.1465 12.7085H8.9541L12.9004 42.5107C13.1797 44.625 14.5635 45.8378 16.6953 45.8378H20.0784C19.6009 46.7334 19.3281 47.7539 19.3281 48.8378C19.3281 52.3661 22.1992 55.2372 25.7285 55.2372C29.2568 55.2372 32.1279 52.3661 32.1279 48.8378C32.1279 47.7539 31.8551 46.7334 31.3777 45.8378H40.098C39.6205 46.7334 39.3477 47.7539 39.3477 48.8378C39.3477 52.3661 42.2188 55.2372 45.7481 55.2372C49.2764 55.2372 52.1475 52.3661 52.1475 48.8378C52.1475 47.7539 51.8747 46.7334 51.3973 45.8378H55.6241C58.2491 45.8378 59.6221 43.747 59.6221 41.6825C59.6221 39.6434 58.2491 37.58 55.6241 37.58H55.5257L60.3195 20.1036C61.2936 19.7678 62 18.8518 62 17.7651V14.8232C62 13.4521 60.8857 12.3369 59.5166 12.3369ZM56.9849 24.6958H46.1484L47.3686 20.2485H58.2048L56.9849 24.6958ZM55.2155 31.1465H44.3787L45.5998 26.6958H56.4364L55.2155 31.1465ZM29.7021 37.5801L30.9174 33.1465H41.7551L40.5387 37.5801H29.7021ZM20.9951 37.5801L20.3634 33.1465H28.8426L27.6273 37.5801H20.9951ZM45.2936 20.2485L44.0735 24.6958H33.2336L34.4526 20.2485H45.2936ZM31.1591 24.6958H19.1594L18.5257 20.2485H32.3781L31.1591 24.6958ZM19.4443 26.6958H30.6108L29.3908 31.1465H20.0784L19.4443 26.6958ZM31.4655 31.1465L32.6854 26.6958H43.5248L42.3037 31.1465H31.4655ZM41.4795 2.7627H56.9092V12.3369H41.4795V2.7627ZM24.0488 6.25389H39.4795V12.3369H24.0488V6.25389ZM59.5166 14.3369C59.7783 14.3369 60 14.5596 60 14.8232V17.7651C60 18.0273 59.7783 18.2485 59.5166 18.2485H18.2408L17.6834 14.3369H59.5166ZM25.7285 53.2373C23.3017 53.2373 21.3281 51.2637 21.3281 48.8379C21.3281 46.4111 23.3017 44.4375 25.7285 44.4375C28.1543 44.4375 30.1279 46.4111 30.1279 48.8379C30.1279 51.2637 28.1543 53.2373 25.7285 53.2373ZM45.748 53.2373C43.3212 53.2373 41.3476 51.2637 41.3476 48.8379C41.3476 46.4111 43.3212 44.4375 45.748 44.4375C48.1738 44.4375 50.1474 46.4111 50.1474 48.8379C50.1475 51.2637 48.1738 53.2373 45.748 53.2373ZM57.6221 41.6826C57.6221 42.4834 57.2012 43.8379 55.6241 43.8379H49.7321C48.6377 42.9638 47.2541 42.4375 45.7481 42.4375C44.2417 42.4375 42.8577 42.9638 41.7632 43.8379H29.7125C28.6181 42.9638 27.2345 42.4375 25.7285 42.4375C24.2221 42.4375 22.8381 42.9638 21.7436 43.8379H16.6953C15.5723 43.8379 15.0303 43.3623 14.8828 42.249L10.8213 11.5771C10.7559 11.08 10.332 10.7084 9.8301 10.7084H4.1465C2.5625 10.7085 2 9.5737 2 8.6021C2 7.8033 2.4521 6.45119 4.1465 6.45119H11.4649C13.4893 6.45119 14.543 7.1778 14.8682 8.7451L19.1377 38.7207C19.208 39.2139 19.6299 39.5801 20.1279 39.5801H55.624C57.0986 39.5801 57.6221 40.7129 57.6221 41.6826ZM42.6136 37.5801L43.83 33.1465H54.6669L53.4508 37.5801H42.6136Z" fill="#D63E45"/>
<path d="M45.748 47.8379C45.1953 47.8379 44.748 48.2852 44.748 48.8379C44.748 49.3906 45.1953 49.8379 45.748 49.8379H45.7548C46.3075 49.8379 46.7509 49.3906 46.7509 48.8379C46.7509 48.2852 46.3008 47.8379 45.748 47.8379Z" fill="#D63E45"/>
<path d="M25.7285 47.8379C25.1758 47.8379 24.7285 48.2852 24.7285 48.8379C24.7285 49.3906 25.1758 49.8379 25.7285 49.8379H25.7353C26.288 49.8379 26.7314 49.3906 26.7314 48.8379C26.7314 48.2852 26.2813 47.8379 25.7285 47.8379Z" fill="#D63E45"/>
</svg>
