<svg width="65" height="64" viewBox="0 0 65 64" fill="none" xmlns="http://www.w3.org/2000/svg">
<path d="M63.5 7.5C63.7652 7.5 64.0196 7.39464 64.2071 7.20711C64.3946 7.01957 64.5 6.76522 64.5 6.5V1C64.5 0.734784 64.3946 0.48043 64.2071 0.292893C64.0196 0.105357 63.7652 0 63.5 0L1.5 0C1.23478 0 0.98043 0.105357 0.792893 0.292893C0.605357 0.48043 0.5 0.734784 0.5 1L0.5 6.5C0.5 6.76522 0.605357 7.01957 0.792893 7.20711C0.98043 7.39464 1.23478 7.5 1.5 7.5H5.23V42.89H1.5C1.23478 42.89 0.98043 42.9954 0.792893 43.1829C0.605357 43.3704 0.5 43.6248 0.5 43.89L0.5 49.06C0.5 49.3252 0.605357 49.5796 0.792893 49.7671C0.98043 49.9546 1.23478 50.06 1.5 50.06H31.5V54.93C30.4566 55.1753 29.5397 55.7954 28.9238 56.6726C28.3078 57.5498 28.0356 58.6227 28.1591 59.6874C28.2825 60.7521 28.793 61.7343 29.5933 62.4472C30.3937 63.1601 31.4282 63.554 32.5 63.554C33.5718 63.554 34.6063 63.1601 35.4067 62.4472C36.207 61.7343 36.7175 60.7521 36.8409 59.6874C36.9644 58.6227 36.6922 57.5498 36.0762 56.6726C35.4603 55.7954 34.5434 55.1753 33.5 54.93V50.06H63.5C63.7652 50.06 64.0196 49.9546 64.2071 49.7671C64.3946 49.5796 64.5 49.3252 64.5 49.06V43.89C64.5 43.6248 64.3946 43.3704 64.2071 43.1829C64.0196 42.9954 63.7652 42.89 63.5 42.89H59.77V7.5H63.5ZM34.82 59.11C34.819 59.6416 34.6347 60.1567 34.2981 60.5682C33.9615 60.9797 33.4933 61.2626 32.9724 61.369C32.4515 61.4754 31.9098 61.3989 31.4388 61.1523C30.9678 60.9058 30.5962 60.5043 30.3868 60.0157C30.1774 59.527 30.1429 58.9811 30.2892 58.47C30.4355 57.9588 30.7537 57.5138 31.19 57.21C31.6263 56.9062 32.154 56.7622 32.6841 56.8023C33.2142 56.8424 33.7143 57.0641 34.1 57.43C34.3275 57.6467 34.5087 57.9073 34.6324 58.1961C34.7562 58.4849 34.82 58.7958 34.82 59.11ZM2.5 2H62.5V5.5H2.5V2ZM62.5 48.06H2.5V44.89H62.5V48.06ZM57.77 42.89H7.23V7.5H57.77V42.89Z" fill="#D63E45"/>
<path d="M16.9099 34.93C18.0557 34.93 19.1545 34.4749 19.9646 33.6647C20.7748 32.8546 21.2299 31.7557 21.2299 30.61C21.2278 29.7619 20.9737 28.9335 20.4999 28.23L25.1099 23.11C25.7878 23.7337 26.6508 24.119 27.5677 24.2074C28.4846 24.2959 29.4053 24.0826 30.1899 23.6L33.5699 27.35C33.1287 28.0362 32.8928 28.8342 32.8899 29.65C32.8899 30.7957 33.3451 31.8946 34.1552 32.7047C34.9654 33.5149 36.0642 33.97 37.2099 33.97C38.3557 33.97 39.4545 33.5149 40.2646 32.7047C41.0748 31.8946 41.5299 30.7957 41.5299 29.65C41.5258 28.8696 41.3079 28.1053 40.8999 27.44L47.1899 20.52C47.8552 20.928 48.6195 21.1459 49.3999 21.15C50.2543 21.15 51.0896 20.8966 51.8 20.422C52.5104 19.9473 53.0641 19.2726 53.3911 18.4832C53.7181 17.6938 53.8036 16.8252 53.6369 15.9872C53.4702 15.1492 53.0588 14.3795 52.4546 13.7753C51.8505 13.1711 51.0807 12.7597 50.2427 12.593C49.4047 12.4263 48.5361 12.5119 47.7467 12.8389C46.9574 13.1658 46.2827 13.7195 45.808 14.4299C45.3333 15.1404 45.0799 15.9756 45.0799 16.83C45.0817 17.6414 45.314 18.4356 45.7499 19.12L39.4999 26C38.8239 25.5768 38.0425 25.3524 37.2449 25.3524C36.4474 25.3524 35.6659 25.5768 34.9899 26L31.6099 22.25C32.0211 21.5984 32.2501 20.8485 32.273 20.0783C32.2959 19.3081 32.112 18.5459 31.7403 17.871C31.3686 17.196 30.8228 16.6331 30.1597 16.2407C29.4966 15.8483 28.7404 15.6409 27.9699 15.64C26.8242 15.64 25.7254 16.0952 24.9152 16.9053C24.1051 17.7155 23.6499 18.8143 23.6499 19.96C23.6524 20.4728 23.7473 20.9809 23.9299 21.46L19.0199 26.91C18.4466 26.5852 17.8064 26.3962 17.1486 26.3575C16.4907 26.3188 15.8328 26.4314 15.2253 26.6868C14.6178 26.9421 14.077 27.3334 13.6444 27.8304C13.2118 28.3275 12.8989 28.9171 12.7298 29.554C12.5607 30.1909 12.5399 30.8581 12.6689 31.5043C12.798 32.1505 13.0736 32.7585 13.4744 33.2815C13.8752 33.8046 14.3906 34.2288 14.9809 34.5215C15.5713 34.8142 16.221 34.9676 16.8799 34.97L16.9099 34.93ZM49.4199 14.5C49.8788 14.5 50.3273 14.6361 50.7088 14.891C51.0904 15.1459 51.3877 15.5083 51.5633 15.9322C51.7389 16.3561 51.7849 16.8226 51.6953 17.2726C51.6058 17.7227 51.3849 18.136 51.0604 18.4605C50.736 18.785 50.3226 19.0059 49.8725 19.0954C49.4225 19.185 48.956 19.139 48.5321 18.9634C48.1082 18.7878 47.7458 18.4905 47.4909 18.1089C47.236 17.7274 47.0999 17.2789 47.0999 16.82C47.0986 16.515 47.1577 16.2127 47.2738 15.9306C47.3899 15.6485 47.5608 15.3923 47.7765 15.1766C47.9922 14.9609 48.2485 14.79 48.5305 14.6739C48.8126 14.5578 49.1149 14.4987 49.4199 14.5ZM38.8199 28C39.2128 28.3695 39.4647 28.8644 39.5322 29.3995C39.5997 29.9346 39.4787 30.4765 39.19 30.932C38.9013 31.3876 38.4628 31.7283 37.9501 31.8956C37.4373 32.0629 36.8823 32.0463 36.3805 31.8487C35.8786 31.6511 35.4613 31.2848 35.2003 30.8128C34.9393 30.3409 34.8508 29.7927 34.9502 29.2626C35.0495 28.7325 35.3305 28.2535 35.7447 27.9081C36.159 27.5627 36.6806 27.3725 37.2199 27.37C37.8145 27.3663 38.3875 27.5919 38.8199 28ZM27.9999 17.59C28.4588 17.59 28.9073 17.7261 29.2888 17.981C29.6704 18.2359 29.9677 18.5983 30.1433 19.0222C30.3189 19.4461 30.3649 19.9126 30.2753 20.3626C30.1858 20.8127 29.9649 21.226 29.6404 21.5505C29.316 21.875 28.9026 22.0959 28.4525 22.1854C28.0025 22.275 27.536 22.229 27.1121 22.0534C26.6882 21.8778 26.3258 21.5805 26.0709 21.1989C25.816 20.8174 25.6799 20.3689 25.6799 19.91C25.6799 19.2947 25.9244 18.7046 26.3594 18.2695C26.7945 17.8344 27.3846 17.59 27.9999 17.59ZM16.9099 28.29C17.3688 28.29 17.8173 28.4261 18.1988 28.681C18.5804 28.9359 18.8777 29.2983 19.0533 29.7222C19.2289 30.1461 19.2749 30.6126 19.1853 31.0626C19.0958 31.5127 18.8749 31.926 18.5504 32.2505C18.226 32.575 17.8126 32.7959 17.3625 32.8854C16.9125 32.975 16.446 32.929 16.0221 32.7534C15.5982 32.5778 15.2358 32.2805 14.9809 31.8989C14.726 31.5174 14.5899 31.0689 14.5899 30.61C14.5886 30.305 14.6477 30.0027 14.7638 29.7206C14.8799 29.4386 15.0508 29.1823 15.2665 28.9666C15.4822 28.7509 15.7385 28.58 16.0205 28.4639C16.3026 28.3478 16.6049 28.2887 16.9099 28.29Z" fill="#D63E45"/>
</svg>
