<svg width="64" height="51" viewBox="0 0 64 51" fill="none" xmlns="http://www.w3.org/2000/svg">
<path fill-rule="evenodd" clip-rule="evenodd" d="M59.1802 41.7752V22.1152C63.1802 17.8152 64.7602 11.9552 63.6402 5.02516C63.6106 4.85188 63.5358 4.68947 63.4235 4.55429C63.3111 4.41911 63.1651 4.31593 63.0002 4.25516L52.5002 0.275156C52.2715 0.188311 52.0189 0.188311 51.7902 0.275156L41.2802 4.27516C41.1399 4.33047 41.014 4.41677 40.9119 4.52759C40.8097 4.63842 40.7339 4.77091 40.6902 4.91516H8.06017C6.84006 4.91779 5.67053 5.40295 4.80684 6.26477C3.94315 7.12658 3.45545 8.29505 3.45017 9.51516V41.8252C2.38369 42.067 1.44399 42.694 0.811162 43.5858C0.178333 44.4777 -0.103107 45.5717 0.0207836 46.6582C0.144674 47.7447 0.665178 48.7473 1.48254 49.4738C2.2999 50.2003 3.35662 50.5996 4.45017 50.5952H58.4502C59.5639 50.5933 60.6363 50.1729 61.4546 49.4174C62.2729 48.6619 62.7774 47.6265 62.868 46.5164C62.9586 45.4064 62.6288 44.3028 61.9438 43.4246C61.2589 42.5463 60.2689 41.9576 59.1702 41.7752H59.1802ZM52.1802 2.27516L61.7902 5.91516C62.7902 12.6952 60.9802 18.0852 56.5202 21.9152C55.1734 22.9893 53.719 23.9209 52.1802 24.6952C50.6412 23.9211 49.1868 22.9895 47.8402 21.9152C44.836 19.3667 42.9158 15.7693 42.4702 11.8552C42.4702 11.8552 42.4702 11.8552 42.4702 11.7852C42.2492 9.82879 42.2862 7.85188 42.5802 5.90516L52.1802 2.27516ZM43.0002 19.4252H29.5202C29.255 19.4252 29.0006 19.5305 28.8131 19.7181C28.6255 19.9056 28.5202 20.1599 28.5202 20.4252C28.5202 20.6904 28.6255 20.9447 28.8131 21.1323C29.0006 21.3198 29.255 21.4252 29.5202 21.4252H44.5202C45.1343 22.1424 45.8029 22.8111 46.5202 23.4252C47.9639 24.5809 49.522 25.5861 51.1702 26.4252V35.9152H11.5802V12.8652H40.5802C40.946 15.1901 41.7684 17.4196 43.0002 19.4252ZM8.06017 6.89516H40.4202C40.2901 8.22457 40.2701 9.56244 40.3602 10.8952H10.5802C10.3149 10.8952 10.0606 11.0005 9.87306 11.188C9.68552 11.3756 9.58017 11.6299 9.58017 11.8952V36.9552C9.58017 37.2204 9.68552 37.4747 9.87306 37.6623C10.0606 37.8498 10.3149 37.9552 10.5802 37.9552H52.1502C52.4154 37.9552 52.6697 37.8498 52.8573 37.6623C53.0448 37.4747 53.1502 37.2204 53.1502 36.9552V26.4552C54.551 25.7312 55.889 24.8916 57.1502 23.9452V41.7052H5.45017V9.51516C5.45016 8.82202 5.72482 8.15712 6.21401 7.66606C6.70319 7.175 7.36703 6.8978 8.06017 6.89516ZM58.4502 48.5952H4.45017C3.80039 48.5952 3.17722 48.337 2.71776 47.8776C2.25829 47.4181 2.00017 46.7949 2.00017 46.1452C2.00017 45.4954 2.25829 44.8722 2.71776 44.4127C3.17722 43.9533 3.80039 43.6952 4.45017 43.6952H58.4502C59.0999 43.6952 59.7231 43.9533 60.1826 44.4127C60.642 44.8722 60.9002 45.4954 60.9002 46.1452C60.9002 46.7949 60.642 47.4181 60.1826 47.8776C59.7231 48.337 59.0999 48.5952 58.4502 48.5952Z" fill="#D63E45"/>
<path fill-rule="evenodd" clip-rule="evenodd" d="M50.6404 17.6752C50.8258 17.8538 51.0729 17.9541 51.3304 17.9552H51.3804C51.5171 17.947 51.6506 17.9108 51.7728 17.8489C51.8949 17.7869 52.003 17.7006 52.0904 17.5952L57.7704 10.7752C57.9401 10.5709 58.0218 10.3077 57.9974 10.0432C57.973 9.77881 57.8446 9.5349 57.6404 9.36516C57.4362 9.19542 57.1729 9.11376 56.9085 9.13814C56.6441 9.16252 56.4001 9.29095 56.2304 9.49516L51.2304 15.4952L49.0004 13.3352C48.9058 13.2439 48.7942 13.1721 48.672 13.124C48.5497 13.0759 48.4191 13.0523 48.2877 13.0546C48.1563 13.0569 48.0267 13.0851 47.9062 13.1375C47.7857 13.19 47.6767 13.2656 47.5854 13.3602C47.4941 13.4547 47.4224 13.5663 47.3742 13.6886C47.3261 13.8109 47.3025 13.9414 47.3048 14.0728C47.3095 14.3382 47.4194 14.5908 47.6104 14.7752L50.6404 17.6752Z" fill="#D63E45"/>
<path fill-rule="evenodd" clip-rule="evenodd" d="M29.2603 29.2051H46.5803C46.8455 29.2051 47.0998 29.0998 47.2874 28.9122C47.4749 28.7247 47.5803 28.4704 47.5803 28.2051C47.5803 27.9399 47.4749 27.6856 47.2874 27.498C47.0998 27.3105 46.8455 27.2051 46.5803 27.2051H29.2603C28.995 27.2051 28.7407 27.3105 28.5531 27.498C28.3656 27.6856 28.2603 27.9399 28.2603 28.2051C28.2603 28.4704 28.3656 28.7247 28.5531 28.9122C28.7407 29.0998 28.995 29.2051 29.2603 29.2051Z" fill="#D63E45"/>
<path fill-rule="evenodd" clip-rule="evenodd" d="M19.17 28.7651L19.4899 28.8551V29.8551C19.4812 30.0087 19.5149 30.1617 19.5872 30.2975C19.6595 30.4333 19.7677 30.5466 19.8999 30.6251C20.0361 30.7185 20.1949 30.7736 20.3597 30.7845C20.5244 30.7954 20.6891 30.7617 20.8364 30.6871C20.9837 30.6124 21.1081 30.4995 21.1967 30.3601C21.2853 30.2208 21.3348 30.0602 21.34 29.8951V28.8351L21.6599 28.7351C22.2895 28.5554 22.8593 28.21 23.3099 27.7351C23.6195 27.4289 23.8558 27.0567 24.0012 26.6463C24.1467 26.2359 24.1975 25.7979 24.1499 25.3651C24.0402 24.7511 23.7522 24.1828 23.3219 23.7312C22.8916 23.2796 22.338 22.9645 21.7299 22.8251C21.3899 22.7251 21.0399 22.6851 20.7299 22.6051C20.4199 22.5251 19.59 22.3251 19.35 21.8751C19.2913 21.7606 19.2605 21.6338 19.26 21.5051C19.2493 21.349 19.2754 21.1926 19.3362 21.0485C19.397 20.9043 19.4908 20.7765 19.61 20.6751C19.8185 20.5545 20.0508 20.4804 20.2907 20.4579C20.5306 20.4355 20.7726 20.4652 20.9999 20.5451C21.3631 20.6388 21.7034 20.8055 21.9999 21.0351C22.1538 21.1909 22.3545 21.2919 22.5713 21.3226C22.788 21.3533 23.0089 21.3121 23.2 21.2051C23.3204 21.1183 23.4185 21.0041 23.4863 20.872C23.5541 20.7399 23.5896 20.5936 23.59 20.4451C23.5791 20.2521 23.5282 20.0635 23.4404 19.8914C23.3526 19.7192 23.2298 19.5672 23.0799 19.4451C22.6713 19.0982 22.1892 18.8486 21.67 18.7151L21.35 18.6251V17.3651C21.3554 17.247 21.333 17.1293 21.2843 17.0216C21.2356 16.9138 21.1622 16.8191 21.0699 16.7451C20.5899 16.3751 19.51 16.5151 19.51 17.2651V18.5451L19.19 18.6351C18.4619 18.8425 17.8444 19.3272 17.4699 19.9851C17.0629 20.6492 16.8969 21.4331 17 22.2051C17.0294 22.5035 17.1256 22.7914 17.2814 23.0476C17.4372 23.3038 17.6486 23.5217 17.8999 23.6851C18.4234 23.9592 18.9871 24.1482 19.5699 24.2451C19.9536 24.3278 20.3261 24.4553 20.68 24.6251C20.8596 24.7181 21.0274 24.8323 21.18 24.9651C21.3847 25.0922 21.5448 25.2799 21.6379 25.5021C21.7311 25.7243 21.7528 25.97 21.7 26.2051C21.6056 26.4367 21.4474 26.6367 21.2439 26.7819C21.0403 26.927 20.7996 27.0114 20.5499 27.0251C20.2263 27.0498 19.9014 26.9954 19.6035 26.8664C19.3056 26.7375 19.0435 26.538 18.84 26.2851C18.6474 25.9997 18.3607 25.7909 18.03 25.6951C17.7821 25.646 17.5249 25.6924 17.3099 25.8251C17.1962 25.9014 17.0994 26.0002 17.0254 26.1155C16.9514 26.2307 16.9019 26.36 16.8799 26.4951C16.8585 26.6581 16.8705 26.8237 16.9152 26.9819C16.9599 27.1401 17.0364 27.2875 17.1399 27.4151C17.6458 28.0804 18.3609 28.5559 19.17 28.7651Z" fill="#D63E45"/>
</svg>
