<svg width="58" height="63" viewBox="0 0 58 63" fill="none" xmlns="http://www.w3.org/2000/svg">
<path d="M56.4517 8.39702H44.2495C41.303 3.13022 35.8642 0.815618 30.9463 0.935118C26.3411 1.05512 21.3902 3.43882 18.8287 8.39702H1.32227C0.797766 8.39702 0.322266 8.87242 0.322266 9.39702V57.749C0.336466 59.8257 1.23777 61.5112 2.79587 62.373C3.47017 62.746 4.21437 62.9316 4.95457 62.9316C5.11537 62.9316 5.27537 62.9165 5.43497 62.899L50.0459 62.8823C54.6831 62.8779 57.4517 60.2036 57.4517 55.7285V9.39702C57.4517 8.84472 57.0039 8.39702 56.4517 8.39702ZM30.998 2.93462C34.9148 2.82762 39.2297 4.53802 41.8859 8.39702H21.1036C23.4935 4.58592 27.5565 3.02422 30.998 2.93462ZM7.19637 10.397C6.74187 12.3942 5.82837 13.3568 5.06787 13.3897C4.27497 13.4178 3.27337 12.479 2.61737 10.397H7.19637ZM2.32227 57.7422V14.041C3.22417 15.0425 4.25247 15.4302 5.15477 15.3877C5.98677 15.3516 6.74417 14.9868 7.38427 14.353L7.38527 57.7837C7.43897 59.0796 7.01267 60.0747 6.18507 60.5864C5.88787 60.77 5.55417 60.8618 5.21427 60.8991L4.70887 60.8993C4.38447 60.866 4.06187 60.7873 3.76367 60.6225C2.84327 60.1138 2.33147 59.0884 2.32227 57.7422ZM55.4517 55.7285C55.4517 59.9839 52.5108 60.8799 50.0445 60.8823L8.61887 60.8979C9.16177 60.028 9.43477 58.9432 9.38427 57.7422V10.397H17.9659C17.7352 11.0763 17.5585 11.8057 17.413 12.5624C15.6948 12.8716 14.3847 14.3699 14.3847 16.1758C14.3847 18.2046 16.0351 19.855 18.0639 19.855C20.0908 19.855 21.7397 18.2046 21.7397 16.1758C21.7397 14.6233 20.7709 13.2993 19.4093 12.76C19.5819 11.9094 19.8149 11.1229 20.1012 10.397H43.0128C43.3559 11.1495 43.6433 11.9622 43.8679 12.8374C42.6006 13.419 41.7138 14.6924 41.7138 16.1758C41.7138 18.2046 43.3642 19.855 45.393 19.855C47.4218 19.855 49.0722 18.2046 49.0722 16.1758C49.0722 14.3044 47.6628 12.7722 45.8527 12.5431C45.6699 11.7921 45.4571 11.0704 45.1973 10.397H55.4516V55.7285H55.4517ZM18.064 14.4966C18.9878 14.4966 19.7398 15.25 19.7398 16.1758C19.7398 17.1016 18.9878 17.855 18.064 17.855C17.1382 17.855 16.3848 17.1016 16.3848 16.1758C16.3848 15.25 17.1382 14.4966 18.064 14.4966ZM45.3931 14.4966C46.3189 14.4966 47.0723 15.25 47.0723 16.1758C47.0723 17.1016 46.3189 17.855 45.3931 17.855C44.4673 17.855 43.7139 17.1016 43.7139 16.1758C43.7139 15.25 44.4673 14.4966 45.3931 14.4966Z" fill="#D63E45"/>
<path d="M18.2749 40.9976L20.002 42.6421L20.7579 44.5454C21.1607 45.6221 21.4508 45.9648 22.7252 46.3271L25.0177 46.9809L26.5695 48.312C27.4245 49.0801 27.84 49.2485 29.1398 48.98L31.4762 48.4917L33.4708 48.9487C33.8565 49.0459 34.1622 49.1045 34.4391 49.1045C34.9635 49.1045 35.3854 48.895 36.0514 48.3433L37.8942 46.8287L39.8737 46.3067C40.9914 46.0362 41.3674 45.7891 41.8815 44.5694L42.8068 42.3707L44.319 40.9874C45.1808 40.2281 45.3981 39.8351 45.2838 38.5201L45.0836 36.1431L45.7784 34.2202C46.192 33.1445 46.2022 32.6948 45.4888 31.5815L44.2061 29.5698L43.9268 27.5439C43.793 26.4038 43.5938 26.0014 42.4449 25.3383L40.3746 24.1567L39.1905 22.498C38.5416 21.5454 38.1768 21.2807 36.8492 21.2314L34.4654 21.144L32.6387 20.2236C31.625 19.6855 31.1802 19.6206 29.9839 20.1923L27.8345 21.2216L26.0547 21.2582L25.7891 21.2577C24.6495 21.2557 24.2149 21.4013 23.4224 22.4628L21.9995 24.3739L20.206 25.3529C19.1845 25.8817 18.8784 26.2113 18.6699 27.5223L18.2983 29.8773L17.1674 31.5731C16.5063 32.5169 16.3876 32.9515 16.8129 34.2103L17.5756 36.4691L17.3632 38.4984C17.2178 39.6421 17.3149 40.0815 18.2749 40.9976ZM18.8057 32.7207L20.0855 30.8008C20.1646 30.6812 20.2173 30.5464 20.2398 30.4043L20.6456 27.8355C20.7081 27.4429 20.7384 27.3394 20.7179 27.3565C20.7667 27.315 20.9576 27.2164 21.1261 27.129L23.1534 26.0221C23.2794 25.9528 23.3883 25.858 23.4742 25.7428L25.026 23.6583C25.2614 23.3443 25.34 23.2774 25.3121 23.2696C25.3746 23.2559 25.5899 23.2559 25.7794 23.2579L26.0782 23.2584L28.0919 23.2174C28.2345 23.2145 28.3746 23.1808 28.5035 23.1193L30.8473 21.9967C31.1979 21.8287 31.3121 21.7941 31.2833 21.7848C31.3448 21.8014 31.5353 21.902 31.7027 21.9909L31.9517 22.1218C31.9561 22.1242 31.9605 22.1267 31.9649 22.1286L33.7637 23.0295C33.8916 23.0935 34.0318 23.1296 34.1748 23.135L36.7754 23.2307C37.1489 23.2439 37.2764 23.2644 37.2612 23.2449C37.3086 23.2884 37.4301 23.4671 37.5376 23.6243L38.877 25.5008C38.961 25.6175 39.0689 25.7147 39.1939 25.786L41.4498 27.0736C41.7852 27.2674 41.8785 27.3436 41.8717 27.3138C41.8932 27.3743 41.9186 27.5887 41.9405 27.7782L42.2559 30.0638C42.2759 30.2054 42.3257 30.3416 42.4029 30.4622L43.8038 32.659C44.0142 32.9871 44.0611 33.0906 44.0665 33.0609C44.0572 33.1239 43.9801 33.3251 43.9117 33.5028L43.1275 35.6732C43.0792 35.808 43.0606 35.9515 43.0723 36.0946L43.2911 38.6908C43.3248 39.0814 43.3209 39.1952 43.336 39.1688C43.2989 39.2206 43.1382 39.3622 42.9966 39.4867L41.293 41.0458C41.1875 41.143 41.104 41.2616 41.0479 41.3939L40.0381 43.7933C39.8867 44.1502 39.8262 44.2454 39.853 44.2396C39.7959 44.2679 39.5869 44.3187 39.4028 44.3631L37.1689 44.9525C37.0307 44.9896 36.9023 45.0555 36.7919 45.1463L34.7787 46.8006C34.4818 47.0467 34.3804 47.1077 34.4135 47.1097C34.3496 47.1082 34.1425 47.056 33.9599 47.0096L31.705 46.493C31.5658 46.4622 31.4208 46.4608 31.2797 46.4896L28.7318 47.0223C28.3519 47.1009 28.2333 47.1073 28.2601 47.1239C28.2044 47.0931 28.0457 46.9501 27.9051 46.8241L26.1497 45.3187C26.0408 45.2254 25.9129 45.1571 25.7752 45.118L23.2728 44.4041C22.9666 44.3172 22.8387 44.2684 22.8114 44.2684C22.8055 44.2684 22.8046 44.2704 22.807 44.2752C22.7718 44.222 22.6971 44.0218 22.6312 43.845L21.7772 41.6971C21.724 41.5638 21.6424 41.4437 21.5389 41.3446L19.6546 39.5502C19.3851 39.2934 19.303 39.1962 19.3021 39.2191C19.2958 39.1551 19.3231 38.9408 19.347 38.7513L19.5872 36.4569C19.6018 36.3148 19.5857 36.1708 19.5398 36.0355L18.7073 33.5711C18.5857 33.2112 18.555 33.0926 18.5481 33.1131C18.5728 33.0532 18.6963 32.8765 18.8057 32.7207Z" fill="#D63E45"/>
<path d="M45.062 53.561H18.395C17.8428 53.561 17.395 54.0088 17.395 54.561C17.395 55.1132 17.8428 55.561 18.395 55.561H45.062C45.6142 55.561 46.062 55.1132 46.062 54.561C46.062 54.0088 45.6143 53.561 45.062 53.561Z" fill="#D63E45"/>
<path d="M26.4673 34.9214C28.3247 34.9214 29.836 33.4102 29.836 31.5523C29.836 29.6949 28.3248 28.1836 26.4673 28.1836C24.6079 28.1836 23.0952 29.6948 23.0952 31.5523C23.0952 33.4102 24.6079 34.9214 26.4673 34.9214ZM26.4673 30.1836C27.2222 30.1836 27.836 30.7974 27.836 31.5523C27.836 32.3072 27.2222 32.9214 26.4673 32.9214C25.711 32.9214 25.0952 32.3071 25.0952 31.5523C25.0952 30.7975 25.7109 30.1836 26.4673 30.1836Z" fill="#D63E45"/>
<path d="M27.2974 41.4932C27.4566 41.5874 27.6319 41.6319 27.8042 41.6319C28.1465 41.6319 28.48 41.4561 28.6665 41.1397L35.6807 29.2442C35.9615 28.7686 35.8033 28.1553 35.3272 27.8751C34.8531 27.5938 34.2388 27.7535 33.9581 28.2286L26.9438 40.124C26.6631 40.5996 26.8213 41.2129 27.2974 41.4932Z" fill="#D63E45"/>
<path d="M32.7881 37.8159C32.7881 39.6733 34.2993 41.1846 36.1572 41.1846C38.0166 41.1846 39.5293 39.6734 39.5293 37.8159C39.5293 35.958 38.0166 34.4468 36.1572 34.4468C34.2993 34.4468 32.7881 35.958 32.7881 37.8159ZM36.1572 36.4468C36.9135 36.4468 37.5293 37.0611 37.5293 37.8159C37.5293 38.5707 36.9136 39.1846 36.1572 39.1846C35.4023 39.1846 34.7881 38.5708 34.7881 37.8159C34.7881 37.061 35.4023 36.4468 36.1572 36.4468Z" fill="#D63E45"/>
</svg>
