<svg width="60" height="65" viewBox="0 0 60 65" fill="none" xmlns="http://www.w3.org/2000/svg">
<path d="M55.5598 54.25V48.8C55.5598 48.5348 55.4544 48.2804 55.2669 48.0929C55.0793 47.9053 54.825 47.8 54.5598 47.8H30.9998V41.88C36.9203 41.8256 42.7967 40.8541 48.4198 39C48.6267 38.9304 48.8053 38.795 48.928 38.6144C49.0508 38.4338 49.1111 38.218 49.0998 38C49.0998 31.2 45.3998 26.3 38.6498 24C40.401 22.2117 41.418 19.8316 41.4998 17.33V11.33C41.4998 6.43998 38.4998 2.47998 33.6498 0.749979C29.8698 -0.580021 26.0398 -0.110021 24.1498 1.86998C19.9298 2.86998 18.0198 7.64998 18.0698 10.72V13.34V17.34C18.1265 19.8765 19.1453 22.2966 20.9198 24.11C14.2998 26.48 10.8398 31.16 10.6898 38C10.6777 38.2168 10.7366 38.4317 10.8574 38.6121C10.9783 38.7925 11.1546 38.9287 11.3598 39C17.0533 40.875 23.0055 41.8468 28.9998 41.88V47.8H5.43976C5.17454 47.8 4.92019 47.9053 4.73265 48.0929C4.54511 48.2804 4.43976 48.5348 4.43976 48.8V54.25C3.23923 54.4976 2.17328 55.1819 1.4483 56.1703C0.723319 57.1588 0.390877 58.381 0.515339 59.6005C0.639801 60.82 1.21231 61.9499 2.12203 62.7715C3.03175 63.5931 4.21395 64.0479 5.43976 64.0479C6.66556 64.0479 7.84777 63.5931 8.75749 62.7715C9.6672 61.9499 10.2397 60.82 10.3642 59.6005C10.4886 58.381 10.1562 57.1588 9.43122 56.1703C8.70624 55.1819 7.64029 54.4976 6.43976 54.25V49.8H28.9998V54.25C27.8019 54.4976 26.7385 55.1808 26.0154 56.1673C25.2923 57.1538 24.9609 58.3735 25.0854 59.5903C25.2098 60.8071 25.7813 61.9345 26.6891 62.7542C27.5969 63.5739 28.7766 64.0277 29.9998 64.0277C31.2229 64.0277 32.4026 63.5739 33.3104 62.7542C34.2182 61.9345 34.7897 60.8071 34.9141 59.5903C35.0386 58.3735 34.7072 57.1538 33.9841 56.1673C33.261 55.1808 32.1976 54.4976 30.9998 54.25V49.8H53.5598V54.25C52.3619 54.4976 51.2985 55.1808 50.5754 56.1673C49.8523 57.1538 49.5209 58.3735 49.6454 59.5903C49.7698 60.8071 50.3413 61.9345 51.2491 62.7542C52.1569 63.5739 53.3366 64.0277 54.5598 64.0277C55.7829 64.0277 56.9626 63.5739 57.8704 62.7542C58.7782 61.9345 59.3497 60.8071 59.4741 59.5903C59.5986 58.3735 59.2672 57.1538 58.5441 56.1673C57.821 55.1808 56.7576 54.4976 55.5598 54.25ZM8.38976 59.08C8.39173 59.6615 8.22124 60.2305 7.89983 60.715C7.57842 61.1996 7.12054 61.578 6.58409 61.8023C6.04763 62.0267 5.4567 62.0869 4.88602 61.9754C4.31533 61.8639 3.79052 61.5857 3.37796 61.1759C2.9654 60.7662 2.68361 60.2433 2.56823 59.6733C2.45285 59.1034 2.50906 58.5121 2.72975 57.9741C2.95044 57.4362 3.32571 56.9757 3.80808 56.651C4.29046 56.3263 4.85829 56.152 5.43976 56.15C5.82584 56.1487 6.20841 56.2234 6.56561 56.3699C6.92281 56.5165 7.24765 56.7319 7.52158 57.004C7.79552 57.2761 8.01318 57.5995 8.16214 57.9557C8.3111 58.3118 8.38845 58.6939 8.38976 59.08ZM20.0698 10.69C20.0698 8.62998 21.4398 4.33998 24.8398 3.77998C25.0982 3.75039 25.335 3.62126 25.4998 3.41998C26.7198 1.89998 29.9598 1.55998 33.0298 2.63998C34.4998 3.16998 39.4998 5.37998 39.4998 11.35V12.35H31.4998C28.5898 12.35 27.8998 11.52 26.3398 9.10998C26.2518 8.96544 26.1286 8.84558 25.9817 8.76163C25.8348 8.67769 25.6689 8.63239 25.4998 8.62998C25.3324 8.63026 25.1679 8.67252 25.0211 8.75288C24.8744 8.83325 24.7501 8.94915 24.6598 9.08998L24.1298 9.93998C22.8898 11.94 22.6298 12.33 20.8398 12.33H20.0998L20.0698 10.69ZM20.0698 17.33V14.33H20.7498C23.4298 14.33 24.3098 13.26 25.4498 11.46C26.7698 13.27 28.1798 14.33 31.4498 14.33H39.4498V17.33C39.3864 18.7313 38.9793 20.0954 38.2643 21.3022C37.5493 22.509 36.5484 23.5213 35.3498 24.25C33.7259 25.3564 31.8144 25.9646 29.8498 26H29.7998C24.7298 25.95 20.1098 21.83 20.1098 17.33H20.0698ZM32.9398 59.08C32.9417 59.6619 32.771 60.2313 32.4491 60.7161C32.1273 61.2009 31.6688 61.5793 31.1318 61.8033C30.5948 62.0274 30.0033 62.087 29.4323 61.9747C28.8614 61.8624 28.3366 61.5832 27.9244 61.1724C27.5123 60.7616 27.2313 60.2378 27.117 59.6672C27.0027 59.0967 27.0604 58.505 27.2826 57.9672C27.5048 57.4294 27.8817 56.9697 28.3653 56.6462C28.849 56.3227 29.4179 56.15 29.9998 56.15C30.7778 56.15 31.5241 56.4584 32.0751 57.0075C32.6262 57.5567 32.9371 58.302 32.9398 59.08ZM12.7198 37.34C13.0798 31.34 16.2798 27.56 22.7198 25.63C24.7738 27.1337 27.2444 27.9619 29.7898 28H29.8498C32.2234 27.9701 34.5358 27.2434 36.4998 25.91C36.6398 25.82 36.7498 25.72 36.8898 25.62C41.5198 26.88 46.7898 29.94 47.1098 37.33C35.9043 40.7653 23.9272 40.7688 12.7198 37.34ZM54.5598 62C53.9803 61.998 53.4144 61.8242 52.9336 61.5006C52.4529 61.177 52.0789 60.7181 51.859 60.182C51.6391 59.6459 51.583 59.0565 51.698 58.4886C51.813 57.9206 52.0939 57.3995 52.505 56.9911C52.9162 56.5827 53.4392 56.3055 54.008 56.1944C54.5767 56.0832 55.1656 56.1433 55.7003 56.3669C56.2349 56.5905 56.6912 56.9676 57.0115 57.4505C57.3318 57.9334 57.5017 58.5005 57.4998 59.08C57.4945 59.8562 57.1824 60.5989 56.6316 61.146C56.0808 61.693 55.336 62 54.5598 62Z" fill="#D63E45"/>
</svg>
