<svg width="59" height="64" viewBox="0 0 59 64" fill="none" xmlns="http://www.w3.org/2000/svg">
<path d="M53.6302 27.72C53.5834 27.4907 53.4577 27.2851 53.275 27.1389C53.0923 26.9927 52.8641 26.9153 52.6302 26.92H44.0002C43.4402 22.75 40.8002 19.7 36.4602 18.13C37.678 16.773 38.3666 15.023 38.4002 13.2V8.72997C38.4121 6.90627 37.8344 5.12752 36.7532 3.65886C35.672 2.19019 34.1451 1.11024 32.4002 0.579971C29.5102 -0.420029 26.5602 -0.0800291 25.0602 1.42997C21.8602 2.19997 20.4102 5.82997 20.4102 8.25997V13.2C20.4596 15.0339 21.1698 16.7882 22.4102 18.14C18.1102 19.78 15.6402 22.72 15.0402 26.91H6.35015C6.11621 26.9053 5.88801 26.9827 5.7053 27.1289C5.52258 27.2751 5.3969 27.4807 5.35015 27.71L0.00015419 53.78C-0.0333565 53.9283 -0.0325765 54.0824 0.00243469 54.2304C0.0374459 54.3785 0.105766 54.5166 0.202194 54.6342C0.298622 54.7518 0.420618 54.8459 0.558895 54.9093C0.697173 54.9727 0.848088 55.0037 1.00015 55H15.0602C13.9593 56.756 13.3769 58.7874 13.3802 60.86C13.3701 61.0806 13.4332 61.2983 13.5599 61.4792C13.6865 61.6601 13.8694 61.794 14.0802 61.86C18.9174 63.3201 23.9475 64.0416 29.0002 64C34.0812 64.0404 39.1389 63.3087 44.0002 61.83C44.2109 61.764 44.3938 61.6301 44.5204 61.4492C44.6471 61.2683 44.7103 61.0506 44.7002 60.83C44.7195 58.7617 44.1281 56.7337 43.0002 55H58.0002C58.1501 55.003 58.2989 54.9723 58.4354 54.91C58.5718 54.8478 58.6926 54.7556 58.7886 54.6404C58.8847 54.5251 58.9535 54.3897 58.9902 54.2443C59.0268 54.0988 59.0302 53.9469 59.0002 53.8L53.6302 27.72ZM42.0002 26.92H33.4402L32.1502 21C33.0101 20.7282 33.828 20.3377 34.5802 19.84L34.7602 19.7C39.0002 20.86 41.4102 23.29 42.0002 26.92ZM22.4402 13.2V11.2H23.2102C23.9296 11.248 24.6473 11.0841 25.2747 10.7287C25.902 10.3732 26.4115 9.84177 26.7402 9.19997C27.2493 9.88564 27.9257 10.4295 28.7047 10.7796C29.4837 11.1297 30.3393 11.2744 31.1902 11.2H36.4402V13.2C36.3955 14.2172 36.0977 15.2071 35.5739 16.0802C35.0501 16.9533 34.3167 17.6819 33.4402 18.2C32.2582 19.0011 30.8678 19.4391 29.4402 19.46C28.9934 19.4556 28.548 19.4087 28.1102 19.32C25.0002 18.64 22.4402 16 22.4402 13.2ZM29.4402 21.41C29.6702 21.41 29.9102 21.41 30.1402 21.35L31.3502 26.91H27.5502L28.6502 21.37C28.9402 21.39 29.1902 21.41 29.4302 21.41H29.4402ZM22.4402 8.24997C22.4402 6.72997 23.4402 3.70997 25.7702 3.31997C26.005 3.28891 26.2211 3.17551 26.3802 2.99997C27.2202 1.99997 29.5802 1.72997 31.7602 2.49997C33.1004 2.91712 34.2746 3.74704 35.115 4.87125C35.9555 5.99546 36.4193 7.35648 36.4402 8.75997V9.19997H31.1902C29.1202 9.19997 28.6602 8.63997 27.5302 6.89997C27.4398 6.75914 27.3156 6.64324 27.1688 6.56287C27.022 6.48251 26.8575 6.44025 26.6902 6.43997C26.5228 6.44025 26.3583 6.48251 26.2115 6.56287C26.0648 6.64324 25.9405 6.75914 25.8502 6.89997L25.4602 7.50997C24.5302 8.99997 24.4102 9.17997 23.1902 9.18997H22.4402V8.24997ZM24.0902 19.67C24.8994 20.2477 25.7933 20.6964 26.7402 21L25.5602 26.93H17.0002C17.6502 23.28 19.9102 21 24.0802 19.67H24.0902ZM15.4102 60.14C15.5099 58.0833 16.3769 56.1387 17.8402 54.69C19.3702 53.3138 21.2193 52.3411 23.2202 51.86C24.9181 52.9829 26.9046 53.5907 28.9402 53.61C30.8807 53.5915 32.778 53.0341 34.4202 52L34.6802 51.82C38.2702 52.74 42.3302 54.92 42.6802 60.09C33.7639 62.5867 24.3355 62.604 15.4102 60.14ZM21.3102 40.47C21.3102 39.06 22.1402 36.01 24.9802 35.57C25.2128 35.534 25.4252 35.4172 25.5802 35.24C25.997 34.8764 26.4827 34.6005 27.0084 34.4287C27.5342 34.2569 28.0891 34.1927 28.6402 34.24C29.7431 34.246 30.8363 34.4457 31.8702 34.83C33.2802 35.36 36.5502 37.01 36.5502 40.94V43.8C31.7002 46.63 24.3602 45.8 21.3402 43.8L21.3102 40.47ZM28.8202 47.68C31.4614 47.7072 34.0774 47.1649 36.4902 46.09C36.3063 46.9837 35.9314 47.8271 35.3911 48.5623C34.8509 49.2976 34.1581 49.9074 33.3602 50.35C32.0501 51.1637 30.5422 51.6029 29.0002 51.62C25.3402 51.62 22.0002 49.1 21.4702 46.2C23.7901 47.2118 26.2994 47.7164 28.8302 47.68H28.8202ZM41.2902 53C39.8864 51.798 38.2535 50.8931 36.4902 50.34C37.7697 49.0205 38.5052 47.2674 38.5502 45.43V41C38.5502 37.4 36.3102 34.42 32.5502 33C29.3702 31.81 25.9902 32.11 24.3102 33.68C20.7802 34.43 19.2502 38.08 19.3102 40.52V45.45C19.3548 47.2953 20.094 49.0559 21.3802 50.38C19.6884 50.9466 18.1227 51.8364 16.7702 53H2.23015L7.17015 28.92H51.8302L56.7702 53H41.2902Z" fill="#D63E45"/>
</svg>
