<svg width="64" height="46" viewBox="0 0 64 46" fill="none" xmlns="http://www.w3.org/2000/svg">
<path d="M63.892 28.0695L61.4135 23.5495L59.094 18.0635C59.792 17.7799 60.3699 17.2626 60.7286 16.6001C61.0874 15.9375 61.2048 15.1709 61.0608 14.4314C60.9169 13.6918 60.5204 13.0253 59.9393 12.5457C59.3581 12.0662 58.6284 11.8035 57.875 11.8025H47.875V1.80249C47.875 1.68758 47.8524 1.5738 47.8084 1.46764C47.7644 1.36148 47.7 1.26502 47.6187 1.18377C47.5375 1.10252 47.441 1.03807 47.3348 0.994096C47.2287 0.950123 47.1149 0.92749 47 0.92749H0.875C0.642936 0.92749 0.420376 1.01968 0.256282 1.18377C0.0921872 1.34787 0 1.57043 0 1.80249L0 36.1775C0.000793838 36.8071 0.251271 37.4108 0.696498 37.856C1.14173 38.3012 1.74535 38.5517 2.375 38.5525H6.841C6.841 38.577 6.8375 38.6025 6.8375 38.625C6.8375 39.4716 7.00426 40.31 7.32825 41.0921C7.65224 41.8743 8.12712 42.585 8.72578 43.1837C9.32444 43.7824 10.0352 44.2572 10.8173 44.5812C11.5995 44.9052 12.4379 45.072 13.2845 45.072C14.1311 45.072 14.9695 44.9052 15.7517 44.5812C16.5338 44.2572 17.2446 43.7824 17.8432 43.1837C18.4419 42.585 18.9168 41.8743 19.2408 41.0921C19.5647 40.31 19.7315 39.4716 19.7315 38.625C19.7315 38.6005 19.728 38.575 19.728 38.5525H44.6095C44.6095 38.577 44.606 38.6025 44.606 38.625C44.5985 39.4764 44.7597 40.3209 45.0804 41.1097C45.401 41.8985 45.8747 42.616 46.4741 43.2207C47.0736 43.8254 47.7869 44.3055 48.5728 44.633C49.3587 44.9606 50.2018 45.1293 51.0532 45.1293C51.9047 45.1293 52.7478 44.9606 53.5337 44.633C54.3197 44.3055 55.0329 43.8254 55.6324 43.2207C56.2318 42.616 56.7055 41.8985 57.0261 41.1097C57.3468 40.3209 57.508 39.4764 57.5005 38.625C57.5005 38.6005 57.497 38.575 57.497 38.5525H61.625C62.2546 38.5517 62.8583 38.3012 63.3035 37.856C63.7487 37.4108 63.9992 36.8071 64 36.1775V28.49C64 28.343 63.9629 28.1983 63.892 28.0695ZM62.25 32.1775H47.875V24.8025H60.105L62.25 28.7145V32.1775ZM47.875 23.0525V18.3025H57.295L59.303 23.0525H47.875ZM57.875 13.5525C58.2728 13.5525 58.6544 13.7105 58.9357 13.9918C59.217 14.2731 59.375 14.6547 59.375 15.0525C59.375 15.4503 59.217 15.8318 58.9357 16.1132C58.6544 16.3945 58.2728 16.5525 57.875 16.5525H47.875V13.5525H57.875ZM1.75 2.67749H46.125V32.1775H1.75V2.67749ZM2.375 36.8025C2.20928 36.8024 2.05039 36.7365 1.9332 36.6193C1.81602 36.5021 1.75013 36.3432 1.75 36.1775V33.9275H8.864C8.04292 34.721 7.43725 35.7104 7.104 36.8025H2.375ZM13.284 43.3225C12.355 43.322 11.4471 43.0461 10.6749 42.5296C9.90272 42.0131 9.30102 41.2793 8.94586 40.4209C8.5907 39.5625 8.49803 38.6181 8.67957 37.707C8.8611 36.796 9.30869 35.9592 9.96575 35.3025C10.6228 34.6458 11.4598 34.1986 12.371 34.0176C13.2821 33.8365 14.2265 33.9297 15.0847 34.2853C15.9429 34.6409 16.6764 35.243 17.1925 36.0155C17.7086 36.7879 17.984 37.696 17.984 38.625C17.9827 39.8709 17.487 41.0653 16.6058 41.946C15.7246 42.8268 14.5299 43.3218 13.284 43.3225ZM19.465 36.8025C19.1316 35.7102 18.5255 34.7208 17.704 33.9275H46.6335C45.8118 34.7207 45.2057 35.7101 44.8725 36.8025H19.465ZM51.053 43.3225C50.124 43.322 49.2161 43.0461 48.4439 42.5296C47.6717 42.0131 47.07 41.2793 46.7149 40.4209C46.3597 39.5625 46.267 38.6181 46.4486 37.707C46.6301 36.796 47.0777 35.9592 47.7347 35.3025C48.3918 34.6458 49.2288 34.1986 50.14 34.0176C51.0511 33.8365 51.9955 33.9297 52.8537 34.2853C53.7119 34.6409 54.4454 35.243 54.9615 36.0155C55.4776 36.7879 55.753 37.696 55.753 38.625C55.7515 39.8708 55.2558 41.0652 54.3746 41.9459C53.4935 42.8266 52.2988 43.3217 51.053 43.3225ZM62.25 36.1775C62.2497 36.3432 62.1838 36.502 62.0667 36.6191C61.9495 36.7363 61.7907 36.8022 61.625 36.8025H57.234C56.9006 35.7102 56.2945 34.7208 55.473 33.9275H62.25V36.1775Z" fill="#D63E45"/>
<path d="M51.8748 26.662H50.4683C50.2362 26.662 50.0136 26.7542 49.8495 26.9183C49.6855 27.0824 49.5933 27.3049 49.5933 27.537C49.5933 27.7691 49.6855 27.9916 49.8495 28.1557C50.0136 28.3198 50.2362 28.412 50.4683 28.412H51.8748C52.1068 28.412 52.3294 28.3198 52.4935 28.1557C52.6576 27.9916 52.7498 27.7691 52.7498 27.537C52.7498 27.3049 52.6576 27.0824 52.4935 26.9183C52.3294 26.7542 52.1068 26.662 51.8748 26.662Z" fill="#D63E45"/>
<path d="M51.053 35.6775C50.47 35.6774 49.9001 35.8502 49.4153 36.174C48.9305 36.4978 48.5527 36.9581 48.3295 37.4967C48.1063 38.0353 48.0479 38.6279 48.1616 39.1997C48.2752 39.7715 48.5559 40.2967 48.9681 40.709C49.3803 41.1213 49.9055 41.402 50.4773 41.5158C51.049 41.6296 51.6417 41.5712 52.1803 41.3482C52.7189 41.1251 53.1793 40.7473 53.5032 40.2626C53.8271 39.7779 54 39.208 54 38.625C53.9993 37.8436 53.6886 37.0943 53.1361 36.5417C52.5836 35.9891 51.8344 35.6783 51.053 35.6775ZM51.053 39.822C50.8162 39.8215 50.5849 39.7508 50.3883 39.6189C50.1917 39.487 50.0386 39.2998 49.9484 39.0809C49.8581 38.862 49.8348 38.6213 49.8813 38.3892C49.9279 38.157 50.0422 37.9439 50.2098 37.7767C50.3774 37.6095 50.5908 37.4957 50.8231 37.4498C51.0553 37.4038 51.296 37.4277 51.5147 37.5185C51.7333 37.6093 51.9202 37.7629 52.0516 37.9598C52.183 38.1568 52.2531 38.3882 52.253 38.625C52.2522 38.9427 52.1254 39.2472 51.9005 39.4716C51.6755 39.696 51.3707 39.822 51.053 39.822Z" fill="#D63E45"/>
<path d="M13.2839 35.6775C12.701 35.678 12.1314 35.8513 11.647 36.1754C11.1626 36.4996 10.7852 36.9601 10.5625 37.4988C10.3398 38.0374 10.2818 38.63 10.3958 39.2015C10.5098 39.7731 10.7907 40.2981 11.2031 40.7101C11.6154 41.122 12.1406 41.4025 12.7123 41.516C13.2839 41.6296 13.8765 41.571 14.4149 41.3479C14.9533 41.1247 15.4135 40.7469 15.7373 40.2623C16.0611 39.7776 16.2339 39.2078 16.2339 38.625C16.2332 37.843 15.9221 37.0933 15.3689 36.5406C14.8158 35.9879 14.0658 35.6775 13.2839 35.6775ZM13.2839 39.822C13.047 39.822 12.8155 39.7517 12.6185 39.6201C12.4216 39.4885 12.2681 39.3015 12.1775 39.0826C12.0869 38.8638 12.0632 38.623 12.1094 38.3907C12.1557 38.1584 12.2698 37.945 12.4373 37.7775C12.6048 37.6101 12.8182 37.4961 13.0506 37.4499C13.2829 37.4038 13.5237 37.4276 13.7425 37.5183C13.9613 37.609 14.1483 37.7626 14.2798 37.9596C14.4113 38.1565 14.4815 38.3881 14.4814 38.625C14.4806 38.9423 14.3541 39.2464 14.1297 39.4707C13.9053 39.695 13.6012 39.8213 13.2839 39.822Z" fill="#D63E45"/>
</svg>
