<svg width="24" height="25" viewBox="0 0 24 25" fill="none" xmlns="http://www.w3.org/2000/svg">
<g clip-path="url(#clip0_3_31)">
<path fill-rule="evenodd" clip-rule="evenodd" d="M24 12.5C24 19.127 18.627 24.5 12 24.5C5.373 24.5 0 19.127 0 12.5C0 5.873 5.373 0.5 12 0.5C18.627 0.5 24 5.873 24 12.5ZM12.43 9.359C11.263 9.844 8.93 10.849 5.432 12.373C4.864 12.599 4.566 12.82 4.539 13.036C4.493 13.402 4.951 13.546 5.573 13.741C5.658 13.768 5.746 13.795 5.836 13.825C6.449 14.024 7.273 14.257 7.701 14.266C8.09 14.274 8.524 14.114 9.003 13.786C12.271 11.579 13.958 10.464 14.064 10.44C14.139 10.423 14.243 10.401 14.313 10.464C14.383 10.526 14.376 10.644 14.369 10.676C14.323 10.869 12.529 12.538 11.599 13.402C11.309 13.671 11.104 13.862 11.062 13.906C10.968 14.003 10.872 14.096 10.78 14.185C10.21 14.733 9.784 15.145 10.804 15.817C11.294 16.14 11.686 16.407 12.077 16.673C12.504 16.964 12.93 17.254 13.482 17.616C13.622 17.708 13.756 17.803 13.887 17.896C14.384 18.251 14.831 18.569 15.383 18.519C15.703 18.489 16.035 18.188 16.203 17.289C16.6 15.163 17.382 10.559 17.563 8.661C17.574 8.50341 17.5673 8.34509 17.543 8.189C17.5285 8.06293 17.4671 7.94693 17.371 7.864C17.228 7.747 17.006 7.722 16.906 7.724C16.455 7.732 15.763 7.973 12.43 9.359Z" fill="#61BEC4"/>
</g>
<defs>
<clipPath id="clip0_3_31">
<rect width="24" height="24" fill="white" transform="translate(0 0.5)"/>
</clipPath>
</defs>
</svg>
