<svg width="24" height="25" viewBox="0 0 24 25" fill="none" xmlns="http://www.w3.org/2000/svg">
<g clip-path="url(#clip0_3_35)">
<path d="M15.6833 0.5H8.31602C1.59302 0.5 -0.000732422 2.09375 -0.000732422 8.81675V16.184C-0.000732422 22.907 1.59302 24.5007 8.31602 24.5007H15.6833C22.4063 24.5007 24 22.907 24 16.184V8.81675C24 2.09375 22.3905 0.5 15.6833 0.5ZM19.3748 17.621H17.6325C16.9725 17.621 16.7693 17.0975 15.582 15.8945C14.5508 14.8947 14.094 14.762 13.8398 14.762C13.4805 14.762 13.3785 14.8633 13.3785 15.356V16.9303C13.3785 17.3525 13.2458 17.606 12.1283 17.606C10.2803 17.606 8.22977 16.4885 6.79202 14.4065C4.62377 11.3555 4.03052 9.07025 4.03052 8.59775C4.03052 8.3435 4.13177 8.10575 4.62002 8.10575H6.36602C6.80777 8.10575 6.97577 8.309 7.14752 8.7815C8.01077 11.2738 9.44852 13.457 10.0418 13.457C10.2608 13.457 10.362 13.3558 10.362 12.797V10.223C10.2953 9.03575 9.67052 8.93375 9.67052 8.51225C9.67052 8.309 9.83852 8.10575 10.1078 8.10575H12.8535C13.2248 8.10575 13.3613 8.309 13.3613 8.74625V12.2188C13.3613 12.5938 13.5293 12.7265 13.6305 12.7265C13.8495 12.7265 14.037 12.5938 14.4428 12.1873C15.6968 10.781 16.5953 8.61275 16.5953 8.61275C16.7123 8.3585 16.9155 8.12075 17.3573 8.12075H19.1033C19.6268 8.12075 19.7438 8.39 19.6268 8.765C19.4078 9.7805 17.271 12.7963 17.271 12.7963C17.0873 13.1007 17.0168 13.2335 17.271 13.5732C17.4585 13.8275 18.0683 14.3548 18.474 14.8273C19.2203 15.6748 19.794 16.3857 19.947 16.8778C20.1188 17.366 19.8653 17.6203 19.3725 17.6203L19.3748 17.621Z" fill="#61BEC4"/>
</g>
<defs>
<clipPath id="clip0_3_35">
<rect width="24" height="24" fill="white" transform="translate(0 0.5)"/>
</clipPath>
</defs>
</svg>
