<svg width="54" height="64" viewBox="0 0 54 64" fill="none" xmlns="http://www.w3.org/2000/svg">
<path d="M9.10986 47.78C9.10986 48.0452 9.21522 48.2996 9.40276 48.4871C9.59029 48.6747 9.84465 48.78 10.1099 48.78H43.3899C43.6551 48.78 43.9094 48.6747 44.097 48.4871C44.2845 48.2996 44.3899 48.0452 44.3899 47.78C44.3899 47.5148 44.2845 47.2605 44.097 47.0729C43.9094 46.8854 43.6551 46.78 43.3899 46.78H10.1099C9.84465 46.78 9.59029 46.8854 9.40276 47.0729C9.21522 47.2605 9.10986 47.5148 9.10986 47.78Z" fill="#D63E45"/>
<path d="M14.1799 53.39H10.1099C9.84465 53.39 9.59029 53.4954 9.40276 53.6829C9.21522 53.8704 9.10986 54.1248 9.10986 54.39C9.10986 54.6552 9.21522 54.9096 9.40276 55.0971C9.59029 55.2847 9.84465 55.39 10.1099 55.39H14.1799C14.4451 55.39 14.6994 55.2847 14.887 55.0971C15.0745 54.9096 15.1799 54.6552 15.1799 54.39C15.1799 54.1248 15.0745 53.8704 14.887 53.6829C14.6994 53.4954 14.4451 53.39 14.1799 53.39Z" fill="#D63E45"/>
<path d="M23.9201 53.39H19.8501C19.5849 53.39 19.3305 53.4954 19.143 53.6829C18.9555 53.8704 18.8501 54.1248 18.8501 54.39C18.8501 54.6552 18.9555 54.9096 19.143 55.0971C19.3305 55.2847 19.5849 55.39 19.8501 55.39H23.9201C24.1853 55.39 24.4397 55.2847 24.6272 55.0971C24.8147 54.9096 24.9201 54.6552 24.9201 54.39C24.9201 54.1248 24.8147 53.8704 24.6272 53.6829C24.4397 53.4954 24.1853 53.39 23.9201 53.39Z" fill="#D63E45"/>
<path d="M33.6498 53.39H29.5898C29.3246 53.39 29.0703 53.4954 28.8827 53.6829C28.6952 53.8704 28.5898 54.1248 28.5898 54.39C28.5898 54.6552 28.6952 54.9096 28.8827 55.0971C29.0703 55.2847 29.3246 55.39 29.5898 55.39H33.6598C33.9251 55.39 34.1794 55.2847 34.367 55.0971C34.5545 54.9096 34.6598 54.6552 34.6598 54.39C34.6598 54.1248 34.5545 53.8704 34.367 53.6829C34.1794 53.4954 33.9251 53.39 33.6598 53.39H33.6498Z" fill="#D63E45"/>
<path d="M43.3898 53.39H39.3198C39.0546 53.39 38.8003 53.4954 38.6127 53.6829C38.4252 53.8704 38.3198 54.1248 38.3198 54.39C38.3198 54.6552 38.4252 54.9096 38.6127 55.0971C38.8003 55.2847 39.0546 55.39 39.3198 55.39H43.3898C43.655 55.39 43.9094 55.2847 44.0969 55.0971C44.2845 54.9096 44.3898 54.6552 44.3898 54.39C44.3898 54.1248 44.2845 53.8704 44.0969 53.6829C43.9094 53.4954 43.655 53.39 43.3898 53.39Z" fill="#D63E45"/>
<path d="M34.7899 38.42C34.9773 38.6062 35.2308 38.7108 35.4949 38.7108C35.7591 38.7108 36.0126 38.6062 36.1999 38.42L37.5299 37.09L38.8599 38.42C38.9532 38.5132 39.0639 38.5872 39.1857 38.6376C39.3075 38.6881 39.4381 38.7141 39.5699 38.7141C39.7018 38.7141 39.8324 38.6881 39.9542 38.6376C40.076 38.5872 40.1867 38.5132 40.2799 38.42C40.3732 38.3267 40.4471 38.216 40.4976 38.0942C40.5481 37.9724 40.574 37.8418 40.574 37.71C40.574 37.5781 40.5481 37.4475 40.4976 37.3257C40.4471 37.2039 40.3732 37.0932 40.2799 37L38.9499 35.67L40.2799 34.34C40.4438 34.1487 40.5294 33.9026 40.5196 33.6509C40.5099 33.3992 40.4056 33.1605 40.2275 32.9824C40.0494 32.8043 39.8107 32.7 39.559 32.6903C39.3073 32.6805 39.0612 32.7661 38.8699 32.93L37.5399 34.26L36.2099 32.93C36.0186 32.7661 35.7726 32.6805 35.5209 32.6903C35.2692 32.7 35.0305 32.8043 34.8524 32.9824C34.6743 33.1605 34.5699 33.3992 34.5602 33.6509C34.5505 33.9026 34.6361 34.1487 34.7999 34.34L36.1299 35.67L34.7899 37C34.6962 37.0929 34.6218 37.2035 34.571 37.3254C34.5203 37.4473 34.4941 37.578 34.4941 37.71C34.4941 37.842 34.5203 37.9727 34.571 38.0945C34.6218 38.2164 34.6962 38.327 34.7899 38.42Z" fill="#D63E45"/>
<path d="M15.1199 33.4C14.4334 33.2994 13.7325 33.3998 13.1019 33.6892C12.4713 33.9786 11.938 34.4446 11.5667 35.0307C11.1954 35.6168 11.0018 36.2979 11.0095 36.9917C11.0172 37.6855 11.2257 38.3622 11.6099 38.94C11.9329 39.4242 12.37 39.8215 12.8827 40.097C13.3954 40.3726 13.9679 40.5178 14.5499 40.52C15.2748 40.519 15.9822 40.298 16.5788 39.8863C17.1753 39.4745 17.6328 38.8914 17.8907 38.214C18.1487 37.5366 18.1949 36.7969 18.0234 36.0927C17.8518 35.3884 17.4705 34.7528 16.9299 34.27C18.9299 29.6 22.6199 29.11 25.4199 29.57C27.4093 29.8489 29.4361 29.4961 31.2142 28.5613C32.9923 27.6265 34.4319 26.1569 35.3299 24.36L36.6599 25.11C36.8301 25.2083 37.0254 25.2543 37.2216 25.2422C37.4177 25.2302 37.606 25.1606 37.7628 25.0421C37.9196 24.9237 38.0381 24.7617 38.1034 24.5764C38.1687 24.391 38.1779 24.1905 38.1299 24L37.3399 20C37.3124 19.8584 37.2546 19.7245 37.1704 19.6074C37.0862 19.4903 36.9777 19.3928 36.8524 19.3215C36.727 19.2503 36.5877 19.207 36.444 19.1947C36.3003 19.1823 36.1556 19.2012 36.0199 19.25L32.1999 20.65C32.0204 20.7154 31.8634 20.8309 31.7474 20.9827C31.6315 21.1346 31.5615 21.3165 31.5457 21.507C31.5299 21.6974 31.569 21.8884 31.6584 22.0573C31.7477 22.2262 31.8836 22.3659 32.0499 22.46L33.5799 23.32C32.8854 24.7702 31.7505 25.9639 30.3371 26.7308C28.9238 27.4976 27.3043 27.7983 25.7099 27.59C20.9199 26.81 17.0999 28.91 15.1199 33.4ZM16.1199 37.23C16.0422 37.6386 15.8064 38.0001 15.4638 38.236C15.1212 38.4719 14.6994 38.5631 14.2899 38.49C14.0876 38.4524 13.8949 38.3746 13.7231 38.2612C13.5514 38.1479 13.4041 38.0012 13.2899 37.83C13.1327 37.5913 13.0422 37.3149 13.0279 37.0294C13.0137 36.744 13.0761 36.4599 13.2088 36.2067C13.3415 35.9536 13.5396 35.7406 13.7825 35.5899C14.0254 35.4393 14.3042 35.3564 14.5899 35.35H14.8799L15.0899 35.42C15.171 35.4872 15.2621 35.5412 15.3599 35.58H15.4499C15.7081 35.7606 15.9068 36.0139 16.0207 36.3077C16.1347 36.6015 16.1588 36.9225 16.0899 37.23H16.1199Z" fill="#D63E45"/>
<path d="M14.7099 16.77C14.5236 16.9574 14.4191 17.2108 14.4191 17.475C14.4191 17.7392 14.5236 17.9926 14.7099 18.18L16.0399 19.51L14.7099 20.85C14.6052 20.9396 14.5202 21.05 14.4602 21.174C14.4001 21.2981 14.3664 21.4332 14.3611 21.5709C14.3558 21.7087 14.379 21.846 14.4293 21.9743C14.4795 22.1026 14.5558 22.2192 14.6532 22.3166C14.7507 22.4141 14.8672 22.4904 14.9956 22.5406C15.1239 22.5909 15.2612 22.6141 15.3989 22.6088C15.5367 22.6035 15.6718 22.5697 15.7959 22.5097C15.9199 22.4497 16.0302 22.3647 16.1199 22.26L17.4499 20.93L18.7799 22.26C18.9712 22.4238 19.2173 22.5094 19.4689 22.4997C19.7206 22.49 19.9594 22.3856 20.1375 22.2076C20.3156 22.0295 20.4199 21.7907 20.4296 21.539C20.4393 21.2874 20.3537 21.0413 20.1899 20.85L18.8599 19.52L20.1899 18.19C20.3537 17.9987 20.4393 17.7526 20.4296 17.5009C20.4199 17.2493 20.3156 17.0105 20.1375 16.8324C19.9594 16.6543 19.7206 16.55 19.4689 16.5403C19.2173 16.5306 18.9712 16.6162 18.7799 16.78L17.4399 18.1L16.1099 16.77C15.923 16.5868 15.6716 16.4841 15.4099 16.4841C15.1481 16.4841 14.8968 16.5868 14.7099 16.77Z" fill="#D63E45"/>
<path d="M39.0701 17.14C39.8805 17.303 40.7223 17.1797 41.4519 16.7912C42.1816 16.4027 42.7538 15.7731 43.0709 15.0097C43.388 14.2464 43.4305 13.3967 43.1909 12.6055C42.9514 11.8144 42.4447 11.1309 41.7574 10.6717C41.0701 10.2125 40.2447 10.006 39.4222 10.0875C38.5996 10.169 37.8308 10.5334 37.2469 11.1185C36.6631 11.7037 36.3004 12.4733 36.2207 13.296C36.1411 14.1188 36.3494 14.9437 36.8101 15.63C37.0692 16.0178 37.4021 16.3507 37.7899 16.6098C38.1777 16.8689 38.6127 17.0491 39.0701 17.14ZM38.2401 13.32C38.3228 12.9113 38.5636 12.5518 38.9101 12.32C39.1646 12.1498 39.464 12.0592 39.7701 12.06H40.0701C40.2724 12.0976 40.4652 12.1754 40.6369 12.2887C40.8087 12.4021 40.956 12.5487 41.0701 12.72C41.3036 13.0735 41.3884 13.5048 41.306 13.9203C41.2236 14.3359 40.9808 14.7023 40.6301 14.94C40.4621 15.0532 40.2734 15.1321 40.0749 15.1723C39.8763 15.2125 39.6718 15.213 39.473 15.174C39.2742 15.135 39.085 15.0572 38.9164 14.9449C38.7477 14.8327 38.6029 14.6883 38.4901 14.52C38.3706 14.3467 38.2869 14.1513 38.244 13.9452C38.2011 13.7391 38.1998 13.5266 38.2401 13.32Z" fill="#D63E45"/>
<path d="M52.29 2.95996e-06H14.58C14.4533 -0.000305188 14.3277 0.0234492 14.21 0.070003L14.09 0.140003C14.034 0.165034 13.9804 0.195161 13.93 0.230003L1.05996 11.15C0.992567 11.2181 0.935315 11.2956 0.889961 11.38C0.864613 11.4119 0.841236 11.4453 0.819961 11.48C0.762656 11.6057 0.732012 11.7419 0.729961 11.88H0.709961V63C0.709961 63.2652 0.815318 63.5196 1.00285 63.7071C1.19039 63.8946 1.44474 64 1.70996 64H52.29C52.5552 64 52.8095 63.8946 52.9971 63.7071C53.1846 63.5196 53.29 63.2652 53.29 63V1C53.29 0.734787 53.1846 0.480433 52.9971 0.292896C52.8095 0.10536 52.5552 2.95996e-06 52.29 2.95996e-06ZM13.58 3.16V10.93H4.42996L13.58 3.16ZM51.29 62H2.70996V12.91H14.58C14.8452 12.91 15.0995 12.8046 15.2871 12.6171C15.4746 12.4296 15.58 12.1752 15.58 11.91V2H51.29V62Z" fill="#D63E45"/>
</svg>
