<svg width="64" height="52" viewBox="0 0 64 52" fill="none" xmlns="http://www.w3.org/2000/svg">
<path d="M63 0H1C0.734784 0 0.48043 0.105357 0.292893 0.292893C0.105357 0.48043 0 0.734784 0 1L0 50.69C0 50.9552 0.105357 51.2096 0.292893 51.3971C0.48043 51.5846 0.734784 51.69 1 51.69H63C63.2652 51.69 63.5196 51.5846 63.7071 51.3971C63.8946 51.2096 64 50.9552 64 50.69V1C64 0.734784 63.8946 0.48043 63.7071 0.292893C63.5196 0.105357 63.2652 0 63 0V0ZM2 39.72H62V44H2V39.72ZM2 2H62V37.72H2V2ZM62 49.69H2V46H62V49.69Z" fill="#D63E45"/>
<path d="M57.2997 11.78C54.6597 11.78 52.5097 10.03 52.5097 7.87C52.5097 7.60478 52.4044 7.35042 52.2168 7.16289C52.0293 6.97535 51.7749 6.87 51.5097 6.87H12.5097C12.2445 6.87 11.9902 6.97535 11.8026 7.16289C11.6151 7.35042 11.5097 7.60478 11.5097 7.87C11.5097 10.03 9.35973 11.78 6.71973 11.78C6.45451 11.78 6.20016 11.8854 6.01262 12.0729C5.82508 12.2604 5.71973 12.5148 5.71973 12.78V26.92C5.71973 27.1852 5.82508 27.4396 6.01262 27.6271C6.20016 27.8146 6.45451 27.92 6.71973 27.92C9.35973 27.92 11.5097 29.67 11.5097 31.83C11.5097 32.0952 11.6151 32.3496 11.8026 32.5371C11.9902 32.7246 12.2445 32.83 12.5097 32.83H51.5097C51.7749 32.83 52.0293 32.7246 52.2168 32.5371C52.4044 32.3496 52.5097 32.0952 52.5097 31.83C52.5097 29.67 54.6597 27.92 57.2997 27.92C57.5649 27.92 57.8193 27.8146 58.0068 27.6271C58.1944 27.4396 58.2997 27.1852 58.2997 26.92V12.78C58.2997 12.5148 58.1944 12.2604 58.0068 12.0729C57.8193 11.8854 57.5649 11.78 57.2997 11.78ZM56.2997 26C54.9633 26.1153 53.696 26.6444 52.6744 27.5137C51.6527 28.383 50.9275 29.5492 50.5997 30.85H13.3897C13.0625 29.5507 12.3388 28.3856 11.3191 27.5165C10.2994 26.6473 9.03442 26.1173 7.69973 26V13.72C9.03619 13.6047 10.3034 13.0755 11.3251 12.2063C12.3467 11.337 13.0719 10.1708 13.3997 8.87H50.6097C50.9375 10.1708 51.6627 11.337 52.6844 12.2063C53.706 13.0755 54.9733 13.6047 56.3097 13.72L56.2997 26Z" fill="#D63E45"/>
<path d="M33.1499 19C32.7999 18.9 32.4399 18.85 32.0799 18.77C31.7199 18.69 30.8999 18.47 30.6499 18.01C30.5897 17.8924 30.5588 17.762 30.5599 17.63C30.5455 17.4682 30.5708 17.3053 30.6335 17.1555C30.6962 17.0056 30.7945 16.8733 30.9199 16.77C31.134 16.6449 31.3727 16.5677 31.6195 16.5435C31.8664 16.5193 32.1155 16.5488 32.3499 16.63C32.7354 16.7227 33.0968 16.8966 33.4099 17.14C33.5695 17.3044 33.7807 17.4091 34.0083 17.4364C34.2358 17.4637 34.4659 17.412 34.6599 17.29C34.7846 17.1989 34.8865 17.0802 34.9576 16.9431C35.0287 16.806 35.0672 16.6544 35.0699 16.5C35.0632 16.2941 35.0124 16.092 34.921 15.9075C34.8296 15.7229 34.6996 15.56 34.5399 15.43C34.1155 15.0738 33.6165 14.8175 33.0799 14.68L32.7499 14.59V13.36C32.7566 13.2378 32.7337 13.1159 32.6833 13.0045C32.6328 12.893 32.5561 12.7954 32.4599 12.72C31.9699 12.34 30.8499 12.48 30.8499 13.25V14.57L30.5199 14.66C29.7802 14.8639 29.1468 15.3434 28.7499 16C28.3504 16.6958 28.2021 17.5078 28.3299 18.3C28.3611 18.6095 28.4608 18.9083 28.6216 19.1746C28.7824 19.4409 29.0004 19.6682 29.2599 19.84C29.8003 20.1177 30.3805 20.31 30.9799 20.41C31.3738 20.495 31.7564 20.6259 32.1199 20.8C32.3053 20.8936 32.4797 21.0076 32.6399 21.14C32.834 21.278 32.9831 21.4702 33.0685 21.6925C33.1539 21.9149 33.1718 22.1575 33.1199 22.39C33.0223 22.6269 32.8598 22.8315 32.651 22.9801C32.4422 23.1288 32.1957 23.2154 31.9399 23.23C31.6072 23.262 31.2718 23.2101 30.9644 23.0791C30.6569 22.9481 30.3872 22.7421 30.1799 22.48C29.979 22.1875 29.6816 21.9751 29.3399 21.88C29.0812 21.8257 28.8115 21.876 28.5899 22.02C28.472 22.0975 28.3719 22.199 28.296 22.3179C28.2202 22.4368 28.1704 22.5704 28.1499 22.71C28.1214 22.8863 28.1308 23.0666 28.1773 23.239C28.2239 23.4114 28.3066 23.5719 28.4199 23.71C28.9418 24.4154 29.6902 24.9203 30.5399 25.14L30.8699 25.23V26.3C30.8606 26.4575 30.895 26.6146 30.969 26.7539C31.0431 26.8932 31.1541 27.0095 31.2899 27.09C31.4329 27.1699 31.5935 27.2134 31.7573 27.2167C31.9212 27.22 32.0833 27.183 32.2295 27.1089C32.3757 27.0348 32.5014 26.926 32.5956 26.7919C32.6899 26.6578 32.7497 26.5026 32.7699 26.34V25.19L33.0999 25.1C33.7437 24.9199 34.3296 24.5753 34.7999 24.1C35.1162 23.7832 35.3576 23.3997 35.5064 22.9774C35.6552 22.5552 35.7076 22.1051 35.6599 21.66C35.5529 21.0175 35.257 20.4214 34.81 19.9477C34.363 19.4739 33.7851 19.144 33.1499 19Z" fill="#D63E45"/>
<path d="M15.1396 18.86C14.8744 18.86 14.6201 18.9653 14.4325 19.1529C14.245 19.3404 14.1396 19.5948 14.1396 19.86C14.1396 20.1252 14.245 20.3796 14.4325 20.5671C14.6201 20.7546 14.8744 20.86 15.1396 20.86C15.4049 20.86 15.6592 20.7546 15.8468 20.5671C16.0343 20.3796 16.1396 20.1252 16.1396 19.86C16.1396 19.5948 16.0343 19.3404 15.8468 19.1529C15.6592 18.9653 15.4049 18.86 15.1396 18.86Z" fill="#D63E45"/>
<path d="M48.2598 18.86C47.9945 18.86 47.7402 18.9653 47.5527 19.1529C47.3651 19.3404 47.2598 19.5948 47.2598 19.86C47.2598 20.1252 47.3651 20.3796 47.5527 20.5671C47.7402 20.7546 47.9945 20.86 48.2598 20.86C48.525 20.86 48.7793 20.7546 48.9669 20.5671C49.1544 20.3796 49.2598 20.1252 49.2598 19.86C49.2598 19.5948 49.1544 19.3404 48.9669 19.1529C48.7793 18.9653 48.525 18.86 48.2598 18.86Z" fill="#D63E45"/>
</svg>
